Hind_0.ufo
<glyph name="exclam" format="1">
  <advance width="241"/>
  <unicode hex="0021"/>
  <outline>
    <contour>
      <point x="90" y="196" type="line"/>
      <point x="151" y="196" type="line"/>
      <point x="151" y="674" type="line"/>
      <point x="90" y="674" type="line"/>
    </contour>
    <contour>
      <point x="69" y="42" type="curve" smooth="yes"/>
      <point x="69" y="13"/>
      <point x="90" y="-8"/>
      <point x="119" y="-8" type="curve" smooth="yes"/>
      <point x="148" y="-8"/>
      <point x="171" y="13"/>
      <point x="171" y="42" type="curve" smooth="yes"/>
      <point x="171" y="70"/>
      <point x="148" y="93"/>
      <point x="119" y="93" type="curve" smooth="yes"/>
      <point x="90" y="93"/>
      <point x="69" y="70"/>
    </contour>
  </outline>
</glyph>
<glyph name="quotedbl" format="1">
  <advance width="271"/>
  <unicode hex="0022"/>
  <outline>
    <contour>
      <point x="45" y="451" type="line"/>
      <point x="102" y="451" type="line"/>
      <point x="102" y="681" type="line"/>
      <point x="45" y="681" type="line"/>
    </contour>
    <contour>
      <point x="169" y="451" type="line"/>
      <point x="226" y="451" type="line"/>
      <point x="226" y="681" type="line"/>
      <point x="169" y="681" type="line"/>
    </contour>
  </outline>
</glyph>
<glyph name="numbersign" format="1">
  <advance width="697"/>
  <unicode hex="0023"/>
  <outline>
    <contour>
      <point x="114" y="449" type="line"/>
      <point x="642" y="449" type="line"/>
      <point x="642" y="500" type="line"/>
      <point x="114" y="500" type="line"/>
    </contour>
    <contour>
      <point x="377" y="0" type="line"/>
      <point x="436" y="0" type="line"/>
      <point x="577" y="674" type="line"/>
      <point x="520" y="674" type="line"/>
    </contour>
    <contour>
      <point x="130" y="0" type="line"/>
      <point x="187" y="0" type="line"/>
      <point x="330" y="674" type="line"/>
      <point x="271" y="674" type="line"/>
    </contour>
    <contour>
      <point x="55" y="174" type="line"/>
      <point x="585" y="174" type="line"/>
      <point x="585" y="225" type="line"/>
      <point x="55" y="225" type="line"/>
    </contour>
  </outline>
</glyph>
<glyph name="ampersand" format="1">
  <advance width="693"/>
  <unicode hex="0026"/>
  <outline>
    <contour>
      <point x="692" y="0" type="line"/>
      <point x="501" y="176"/>
      <point x="309" y="351"/>
      <point x="309" y="351" type="curve"/>
      <point x="215" y="445"/>
      <point x="199" y="480"/>
      <point x="199" y="527" type="curve" smooth="yes"/>
      <point x="199" y="594"/>
      <point x="248" y="631"/>
      <point x="312" y="631" type="curve" smooth="yes"/>
      <point x="393" y="631"/>
      <point x="430" y="578"/>
      <point x="430" y="523" type="curve" smooth="yes"/>
      <point x="430" y="457"/>
      <point x="381" y="416"/>
      <point x="282" y="372" type="curve"/>
      <point x="325" y="331" type="line"/>
      <point x="452" y="386"/>
      <point x="494" y="448"/>
      <point x="494" y="522" type="curve" smooth="yes"/>
      <point x="494" y="613"/>
      <point x="422" y="691"/>
      <point x="314" y="691" type="curve" smooth="yes"/>
      <point x="202" y="691"/>
      <point x="134" y="622"/>
      <point x="134" y="528" type="curve" smooth="yes"/>
      <point x="134" y="463"/>
      <point x="165" y="412"/>
      <point x="258" y="319" type="curve"/>
      <point x="258" y="319"/>
      <point x="439" y="154"/>
      <point x="604" y="0" type="curve"/>
    </contour>
    <contour>
      <point x="239" y="352" type="line"/>
      <point x="134" y="310"/>
      <point x="69" y="259"/>
      <point x="69" y="174" type="curve" smooth="yes"/>
      <point x="69" y="66"/>
      <point x="169" y="-8"/>
      <point x="312" y="-8" type="curve" smooth="yes"/>
      <point x="499" y="-8"/>
      <point x="594" y="110"/>
      <point x="610" y="259" type="curve"/>
      <point x="549" y="259" type="line"/>
      <point x="536" y="125"/>
      <point x="442" y="52"/>
      <point x="309" y="52" type="curve" smooth="yes"/>
      <point x="208" y="52"/>
      <point x="133" y="98"/>
      <point x="133" y="174" type="curve" smooth="yes"/>
      <point x="133" y="241"/>
      <point x="195" y="276"/>
      <point x="285" y="312" type="curve"/>
    </contour>
  </outline>
</glyph>
<glyph name="parenleft" format="1">
  <advance width="303"/>
  <unicode hex="0028"/>
  <outline>
    <contour>
      <point x="232" y="707" type="curve"/>
      <point x="303" y="707" type="line"/>
      <point x="196" y="560"/>
      <point x="145" y="419"/>
      <point x="145" y="257" type="curve" smooth="yes"/>
      <point x="145" y="101"/>
      <point x="202" y="-54"/>
      <point x="310" y="-196" type="curve"/>
      <point x="240" y="-196" type="line"/>
      <point x="134" y="-61"/>
      <point x="80" y="103"/>
      <point x="80" y="262" type="curve" smooth="yes"/>
      <point x="80" y="424"/>
      <point x="141" y="587"/>
    </contour>
  </outline>
</glyph>
<glyph name="asterisk" format="1">
  <advance width="381"/>
  <unicode hex="002A"/>
  <outline>
    <contour>
      <point x="164" y="578" type="line"/>
      <point x="164" y="544"/>
      <point x="176" y="527"/>
      <point x="190" y="513" type="curve"/>
      <point x="204" y="527"/>
      <point x="214" y="544"/>
      <point x="214" y="578" type="curve" smooth="yes"/>
      <point x="214" y="674" type="line"/>
      <point x="164" y="674" type="line"/>
    </contour>
    <contour>
      <point x="120" y="508" type="line"/>
      <point x="132" y="504"/>
      <point x="142" y="503"/>
      <point x="151" y="503" type="curve" smooth="yes"/>
      <point x="166" y="503"/>
      <point x="178" y="507"/>
      <point x="190" y="513" type="curve"/>
      <point x="181" y="530"/>
      <point x="168" y="545"/>
      <point x="136" y="556" type="curve" smooth="yes"/>
      <point x="44" y="586" type="line"/>
      <point x="29" y="538" type="line"/>
    </contour>
    <contour>
      <point x="173" y="445" type="line"/>
      <point x="187" y="464"/>
      <point x="191" y="481"/>
      <point x="191" y="496" type="curve" smooth="yes"/>
      <point x="191" y="502"/>
      <point x="191" y="507"/>
      <point x="190" y="513" type="curve"/>
      <point x="171" y="509"/>
      <point x="152" y="502"/>
      <point x="132" y="475" type="curve" smooth="yes"/>
      <point x="75" y="397" type="line"/>
      <point x="116" y="368" type="line"/>
    </contour>
    <contour>
      <point x="249" y="476" type="line"/>
      <point x="230" y="503"/>
      <point x="210" y="510"/>
      <point x="190" y="513" type="curve"/>
      <point x="189" y="508"/>
      <point x="189" y="504"/>
      <point x="189" y="499" type="curve" smooth="yes"/>
      <point x="189" y="484"/>
      <point x="193" y="467"/>
      <point x="208" y="446" type="curve" smooth="yes"/>
      <point x="265" y="368" type="line"/>
      <point x="305" y="398" type="line"/>
    </contour>
    <contour>
      <point x="243" y="558" type="line"/>
      <point x="212" y="548"/>
      <point x="199" y="531"/>
      <point x="190" y="513" type="curve"/>
      <point x="201" y="507"/>
      <point x="212" y="504"/>
      <point x="226" y="504" type="curve" smooth="yes"/>
      <point x="235" y="504"/>
      <point x="247" y="505"/>
      <point x="259" y="509" type="curve" smooth="yes"/>
      <point x="351" y="540" type="line"/>
      <point x="335" y="587" type="line"/>
    </contour>
  </outline>
</glyph>
<glyph name="plus" format="1">
  <advance width="544"/>
  <unicode hex="002B"/>
  <outline>
    <contour>
      <point x="60" y="312" type="line"/>
      <point x="484" y="312" type="line"/>
      <point x="484" y="368" type="line"/>
      <point x="60" y="368" type="line"/>
    </contour>
    <contour>
      <point x="296" y="120" type="line"/>
      <point x="296" y="560" type="line"/>
      <point x="239" y="560" type="line"/>
      <point x="239" y="120" type="line"/>
    </contour>
  </outline>
</glyph>
<glyph name="one" format="1">
  <advance width="308"/>
  <unicode hex="0031"/>
  <outline>
    <contour>
      <point x="20" y="495" type="line"/>
      <point x="167" y="587" type="line"/>
      <point x="167" y="0" type="line"/>
      <point x="228" y="0" type="line"/>
      <point x="228" y="654" type="line"/>
      <point x="167" y="654" type="line"/>
      <point x="20" y="564" type="line"/>
    </contour>
  </outline>
</glyph>
<glyph name="three" format="1">
  <advance width="461"/>
  <unicode hex="0033"/>
  <outline>
    <contour>
      <point x="186" y="358" type="line"/>
      <point x="258" y="358"/>
      <point x="322" y="405"/>
      <point x="322" y="485" type="curve" smooth="yes"/>
      <point x="322" y="565"/>
      <point x="269" y="602"/>
      <point x="189" y="602" type="curve" smooth="yes"/>
      <point x="144" y="602"/>
      <point x="93" y="585"/>
      <point x="58" y="562" type="curve"/>
      <point x="58" y="624" type="line"/>
      <point x="85" y="642"/>
      <point x="137" y="660"/>
      <point x="188" y="660" type="curve" smooth="yes"/>
      <point x="323" y="660"/>
      <point x="386" y="578"/>
      <point x="386" y="491" type="curve" smooth="yes"/>
      <point x="386" y="411"/>
      <point x="340" y="340"/>
      <point x="237" y="318" type="curve"/>
      <point x="238" y="338" type="line"/>
      <point x="333" y="335"/>
      <point x="406" y="275"/>
      <point x="406" y="180" type="curve" smooth="yes"/>
      <point x="406" y="80"/>
      <point x="337" y="-6"/>
      <point x="199" y="-6" type="curve" smooth="yes"/>
      <point x="150" y="-6"/>
      <point x="84" y="6"/>
      <point x="40" y="27" type="curve"/>
      <point x="40" y="89" type="line"/>
      <point x="90" y="63"/>
      <point x="144" y="52"/>
      <point x="200" y="52" type="curve" smooth="yes"/>
      <point x="292" y="52"/>
      <point x="343" y="107"/>
      <point x="343" y="182" type="curve" smooth="yes"/>
      <point x="343" y="262"/>
      <point x="282" y="303"/>
      <point x="186" y="303" type="curve"/>
    </contour>
    <contour>
      <point x="225" y="303" type="line"/>
      <point x="142" y="303" type="line"/>
      <point x="142" y="358" type="line"/>
      <point x="225" y="358" type="line"/>
    </contour>
  </outline>
</glyph>
<glyph name="four" format="1">
  <advance width="534"/>
  <unicode hex="0034"/>
  <outline>
    <contour>
      <point x="45" y="219" type="line"/>
      <point x="509" y="219" type="line"/>
      <point x="509" y="164" type="line"/>
      <point x="45" y="164" type="line"/>
    </contour>
    <contour>
      <point x="307" y="654" type="line"/>
      <point x="369" y="654" type="line"/>
      <point x="108" y="219" type="line"/>
      <point x="45" y="219" type="line"/>
    </contour>
    <contour>
      <point x="348" y="654" type="line"/>
      <point x="408" y="654" type="line"/>
      <point x="408" y="0" type="line"/>
      <point x="348" y="0" type="line"/>
    </contour>
  </outline>
</glyph>
<glyph name="nine" format="1">
  <advance width="496"/>
  <unicode hex="0039"/>
  <outline>
    <contour>
      <point x="414" y="398" type="curve"/>
      <point x="414" y="335" type="line"/>
      <point x="371" y="264"/>
      <point x="323" y="236"/>
      <point x="236" y="236" type="curve" smooth="yes"/>
      <point x="138" y="236"/>
      <point x="40" y="315"/>
      <point x="40" y="450" type="curve" smooth="yes"/>
      <point x="40" y="568"/>
      <point x="113" y="662"/>
      <point x="239" y="662" type="curve" smooth="yes"/>
      <point x="394" y="662"/>
      <point x="452" y="524"/>
      <point x="452" y="380" type="curve" smooth="yes"/>
      <point x="452" y="156"/>
      <point x="374" y="-8"/>
      <point x="175" y="-8" type="curve" smooth="yes"/>
      <point x="134" y="-8"/>
      <point x="100" y="-2"/>
      <point x="63" y="11" type="curve"/>
      <point x="63" y="73" type="line"/>
      <point x="100" y="57"/>
      <point x="134" y="50"/>
      <point x="175" y="50" type="curve" smooth="yes"/>
      <point x="331" y="50"/>
      <point x="392" y="179"/>
      <point x="392" y="380" type="curve" smooth="yes"/>
      <point x="392" y="486"/>
      <point x="361" y="604"/>
      <point x="240" y="604" type="curve" smooth="yes"/>
      <point x="158" y="604"/>
      <point x="104" y="545"/>
      <point x="104" y="450" type="curve" smooth="yes"/>
      <point x="104" y="346"/>
      <point x="163" y="293"/>
      <point x="251" y="293" type="curve" smooth="yes"/>
      <point x="334" y="293"/>
      <point x="392" y="346"/>
    </contour>
  </outline>
</glyph>
<glyph name="less" format="1">
  <advance width="510"/>
  <unicode hex="003C"/>
  <outline>
    <contour>
      <point x="60" y="311" type="line"/>
      <point x="460" y="120" type="line"/>
      <point x="460" y="185" type="line"/>
      <point x="460" y="185"/>
      <point x="223" y="295"/>
      <point x="127" y="342" type="curve"/>
      <point x="221" y="387"/>
      <point x="460" y="497"/>
      <point x="460" y="497" type="curve"/>
      <point x="460" y="562" type="line"/>
      <point x="60" y="371" type="line"/>
    </contour>
  </outline>
</glyph>
<glyph name="B" format="1">
  <advance width="562"/>
  <unicode hex="0042"/>
  <outline>
    <contour>
      <point x="497" y="499" type="curve" smooth="yes"/>
      <point x="497" y="610"/>
      <point x="401" y="674"/>
      <point x="268" y="674" type="curve" smooth="yes"/>
      <point x="80" y="674" type="line"/>
      <point x="80" y="619" type="line"/>
      <point x="275" y="619" type="line" smooth="yes"/>
      <point x="385" y="619"/>
      <point x="432" y="563"/>
      <point x="432" y="501" type="curve" smooth="yes"/>
      <point x="432" y="430"/>
      <point x="387" y="368"/>
      <point x="263" y="368" type="curve" smooth="yes"/>
      <point x="80" y="368" type="line"/>
      <point x="80" y="313" type="line"/>
      <point x="295" y="313" type="line" smooth="yes"/>
      <point x="393" y="313"/>
      <point x="452" y="266"/>
      <point x="452" y="181" type="curve" smooth="yes"/>
      <point x="452" y="98"/>
      <point x="400" y="55"/>
      <point x="314" y="55" type="curve"/>
      <point x="80" y="55" type="line"/>
      <point x="80" y="0" type="line"/>
      <point x="314" y="0" type="line" smooth="yes"/>
      <point x="449" y="0"/>
      <point x="517" y="75"/>
      <point x="517" y="179" type="curve" smooth="yes"/>
      <point x="517" y="283"/>
      <point x="446" y="335"/>
      <point x="377" y="343" type="curve"/>
      <point x="446" y="357"/>
      <point x="497" y="418"/>
    </contour>
    <contour>
      <point x="80" y="0" type="line"/>
      <point x="142" y="0" type="line"/>
      <point x="142" y="674" type="line"/>
      <point x="80" y="674" type="line"/>
    </contour>
  </outline>
</glyph>
<glyph name="O" format="1">
  <advance width="691"/>
  <unicode hex="004F"/>
  <outline>
    <contour>
      <point x="50" y="340" type="curve" smooth="yes"/>
      <point x="50" y="128"/>
      <point x="169" y="-8"/>
      <point x="347" y="-8" type="curve" smooth="yes"/>
      <point x="529" y="-8"/>
      <point x="641" y="128"/>
      <point x="641" y="340" type="curve" smooth="yes"/>
      <point x="641" y="552"/>
      <point x="533" y="688"/>
      <point x="345" y="688" type="curve" smooth="yes"/>
      <point x="164" y="688"/>
      <point x="50" y="552"/>
    </contour>
    <contour>
      <point x="114" y="340" type="curve" smooth="yes"/>
      <point x="114" y="519"/>
      <point x="200" y="628"/>
      <point x="345" y="628" type="curve" smooth="yes"/>
      <point x="495" y="628"/>
      <point x="577" y="519"/>
      <point x="577" y="340" type="curve" smooth="yes"/>
      <point x="577" y="161"/>
      <point x="495" y="52"/>
      <point x="347" y="52" type="curve" smooth="yes"/>
      <point x="207" y="52"/>
      <point x="114" y="161"/>
    </contour>
  </outline>
</glyph>
<glyph name="T" format="1">
  <advance width="465"/>
  <unicode hex="0054"/>
  <outline>
    <contour>
      <point x="201" y="0" type="line"/>
      <point x="263" y="0" type="line"/>
      <point x="263" y="674" type="line"/>
      <point x="201" y="674" type="line"/>
    </contour>
    <contour>
      <point x="15" y="617" type="line"/>
      <point x="450" y="617" type="line"/>
      <point x="450" y="674" type="line"/>
      <point x="15" y="674" type="line"/>
    </contour>
  </outline>
</glyph>
<glyph name="U" format="1">
  <advance width="639"/>
  <unicode hex="0055"/>
  <outline>
    <contour>
      <point x="497" y="253" type="line"/>
      <point x="497" y="106"/>
      <point x="424" y="52"/>
      <point x="318" y="52" type="curve" smooth="yes"/>
      <point x="217" y="52"/>
      <point x="142" y="107"/>
      <point x="142" y="248" type="curve" smooth="yes"/>
      <point x="142" y="674" type="line"/>
      <point x="80" y="674" type="line"/>
      <point x="80" y="247" type="line" smooth="yes"/>
      <point x="80" y="78"/>
      <point x="169" y="-8"/>
      <point x="318" y="-8" type="curve" smooth="yes"/>
      <point x="468" y="-8"/>
      <point x="559" y="79"/>
      <point x="559" y="255" type="curve" smooth="yes"/>
      <point x="559" y="674" type="line"/>
      <point x="497" y="674" type="line"/>
    </contour>
  </outline>
</glyph>
<glyph name="V" format="1">
  <advance width="631"/>
  <unicode hex="0056"/>
  <outline>
    <contour>
      <point x="591" y="674" type="line"/>
      <point x="524" y="674" type="line"/>
      <point x="432" y="407" type="line" smooth="yes"/>
      <point x="357" y="187"/>
      <point x="312" y="55"/>
      <point x="312" y="55" type="curve"/>
      <point x="312" y="55"/>
      <point x="269" y="187"/>
      <point x="196" y="407" type="curve" smooth="yes"/>
      <point x="107" y="674" type="line"/>
      <point x="40" y="674" type="line"/>
      <point x="269" y="0" type="line"/>
      <point x="354" y="0" type="line"/>
    </contour>
  </outline>
</glyph>
<glyph name="X" format="1">
  <advance width="600"/>
  <unicode hex="0058"/>
  <outline>
    <contour>
      <point x="55" y="674" type="line"/>
      <point x="127" y="674" type="line"/>
      <point x="294" y="396" type="line"/>
      <point x="461" y="674" type="line"/>
      <point x="533" y="674" type="line"/>
      <point x="329" y="340" type="line"/>
      <point x="558" y="0" type="line"/>
      <point x="486" y="0" type="line"/>
      <point x="295" y="287" type="line"/>
      <point x="114" y="0" type="line"/>
      <point x="42" y="0" type="line"/>
      <point x="260" y="340" type="line"/>
    </contour>
  </outline>
</glyph>
<glyph name="bracketleft" format="1">
  <advance width="296"/>
  <unicode hex="005B"/>
  <outline>
    <contour>
      <point x="80" y="-179" type="line"/>
      <point x="142" y="-179" type="line"/>
      <point x="142" y="707" type="line"/>
      <point x="80" y="707" type="line"/>
    </contour>
    <contour>
      <point x="80" y="652" type="line"/>
      <point x="296" y="652" type="line"/>
      <point x="296" y="707" type="line"/>
      <point x="80" y="707" type="line"/>
    </contour>
    <contour>
      <point x="80" y="-179" type="line"/>
      <point x="296" y="-179" type="line"/>
      <point x="296" y="-123" type="line"/>
      <point x="80" y="-123" type="line"/>
    </contour>
  </outline>
</glyph>
<glyph name="grave" format="1">
  <advance width="400"/>
  <unicode hex="0060"/>
  <outline>
    <contour>
      <point x="191" y="798" type="line"/>
      <point x="110" y="798" type="line"/>
      <point x="238" y="648" type="line"/>
      <point x="293" y="648" type="line"/>
    </contour>
  </outline>
</glyph>
<glyph name="a" format="1">
  <advance width="486"/>
  <unicode hex="0061"/>
  <outline>
    <contour>
      <point x="355" y="168" type="line"/>
      <point x="355" y="102"/>
      <point x="305" y="51"/>
      <point x="223" y="51" type="curve" smooth="yes"/>
      <point x="150" y="51"/>
      <point x="115" y="92"/>
      <point x="115" y="145" type="curve" smooth="yes"/>
      <point x="115" y="195"/>
      <point x="155" y="241"/>
      <point x="256" y="241" type="curve" smooth="yes"/>
      <point x="367" y="241" type="line"/>
      <point x="367" y="297" type="line"/>
      <point x="256" y="297" type="line" smooth="yes"/>
      <point x="134" y="297"/>
      <point x="50" y="242"/>
      <point x="50" y="143" type="curve" smooth="yes"/>
      <point x="50" y="57"/>
      <point x="115" y="-5"/>
      <point x="209" y="-5" type="curve" smooth="yes"/>
      <point x="295" y="-5"/>
      <point x="338" y="33"/>
      <point x="355" y="59" type="curve"/>
      <point x="355" y="0" type="line"/>
      <point x="416" y="0" type="line"/>
      <point x="416" y="320" type="line" smooth="yes"/>
      <point x="416" y="442"/>
      <point x="364" y="515"/>
      <point x="230" y="515" type="curve" smooth="yes"/>
      <point x="180" y="515"/>
      <point x="122" y="501"/>
      <point x="87" y="480" type="curve"/>
      <point x="87" y="414" type="line"/>
      <point x="125" y="440"/>
      <point x="182" y="457"/>
      <point x="229" y="457" type="curve" smooth="yes"/>
      <point x="324" y="457"/>
      <point x="355" y="406"/>
      <point x="355" y="320" type="curve" smooth="yes"/>
    </contour>
  </outline>
</glyph>
<glyph name="b" format="1">
  <advance width="559"/>
  <unicode hex="0062"/>
  <outline>
    <contour>
      <point x="80" y="0" type="line"/>
      <point x="141" y="0" type="line"/>
      <point x="141" y="707" type="line"/>
      <point x="80" y="707" type="line"/>
    </contour>
    <contour>
      <point x="141" y="256" type="curve" smooth="yes"/>
      <point x="141" y="414"/>
      <point x="236" y="457"/>
      <point x="294" y="457" type="curve" smooth="yes"/>
      <point x="380" y="457"/>
      <point x="450" y="388"/>
      <point x="450" y="247" type="curve" smooth="yes"/>
      <point x="450" y="130"/>
      <point x="386" y="50"/>
      <point x="300" y="50" type="curve" smooth="yes"/>
      <point x="227" y="50"/>
      <point x="141" y="94"/>
    </contour>
    <contour>
      <point x="95" y="256" type="curve" smooth="yes"/>
      <point x="95" y="141"/>
      <point x="139" y="-8"/>
      <point x="298" y="-8" type="curve" smooth="yes"/>
      <point x="440" y="-8"/>
      <point x="514" y="113"/>
      <point x="514" y="248" type="curve" smooth="yes"/>
      <point x="514" y="405"/>
      <point x="424" y="515"/>
      <point x="296" y="515" type="curve" smooth="yes"/>
      <point x="165" y="515"/>
      <point x="95" y="397"/>
    </contour>
  </outline>
</glyph>
<glyph name="c" format="1">
  <advance width="472"/>
  <unicode hex="0063"/>
  <outline>
    <contour>
      <point x="109" y="251" type="curve" smooth="yes"/>
      <point x="109" y="358"/>
      <point x="183" y="457"/>
      <point x="312" y="457" type="curve" smooth="yes"/>
      <point x="340" y="457"/>
      <point x="387" y="447"/>
      <point x="417" y="427" type="curve"/>
      <point x="417" y="489" type="line"/>
      <point x="381" y="509"/>
      <point x="335" y="516"/>
      <point x="306" y="516" type="curve" smooth="yes"/>
      <point x="137" y="516"/>
      <point x="45" y="384"/>
      <point x="45" y="252" type="curve" smooth="yes"/>
      <point x="45" y="116"/>
      <point x="134" y="-12"/>
      <point x="306" y="-12" type="curve" smooth="yes"/>
      <point x="343" y="-12"/>
      <point x="392" y="0"/>
      <point x="417" y="17" type="curve"/>
      <point x="417" y="79" type="line"/>
      <point x="394" y="62"/>
      <point x="352" y="47"/>
      <point x="313" y="47" type="curve" smooth="yes"/>
      <point x="175" y="47"/>
      <point x="109" y="145"/>
    </contour>
  </outline>
</glyph>
<glyph name="i" format="1">
  <advance width="221"/>
  <unicode hex="0069"/>
  <outline>
    <contour>
      <point x="80" y="0" type="line"/>
      <point x="141" y="0" type="line"/>
      <point x="141" y="507" type="line"/>
      <point x="80" y="507" type="line"/>
    </contour>
    <contour>
      <point x="68" y="669" type="curve" smooth="yes"/>
      <point x="68" y="645"/>
      <point x="86" y="627"/>
      <point x="110" y="627" type="curve" smooth="yes"/>
      <point x="134" y="627"/>
      <point x="153" y="645"/>
      <point x="153" y="669" type="curve" smooth="yes"/>
      <point x="153" y="693"/>
      <point x="134" y="712"/>
      <point x="110" y="712" type="curve" smooth="yes"/>
      <point x="86" y="712"/>
      <point x="68" y="693"/>
    </contour>
  </outline>
</glyph>
<glyph name="j" format="1">
  <advance width="216"/>
  <unicode hex="006A"/>
  <outline>
    <contour>
      <point x="-47" y="-180" type="line"/>
      <point x="-24" y="-189"/>
      <point x="-5" y="-194"/>
      <point x="22" y="-194" type="curve" smooth="yes"/>
      <point x="96" y="-194"/>
      <point x="141" y="-148"/>
      <point x="141" y="-64" type="curve" smooth="yes"/>
      <point x="141" y="507" type="line"/>
      <point x="80" y="507" type="line"/>
      <point x="80" y="-62" type="line" smooth="yes"/>
      <point x="80" y="-116"/>
      <point x="58" y="-136"/>
      <point x="23" y="-136" type="curve" smooth="yes"/>
      <point x="1" y="-136"/>
      <point x="-23" y="-131"/>
      <point x="-47" y="-120" type="curve"/>
    </contour>
    <contour>
      <point x="67" y="669" type="curve" smooth="yes"/>
      <point x="67" y="645"/>
      <point x="85" y="627"/>
      <point x="109" y="627" type="curve" smooth="yes"/>
      <point x="133" y="627"/>
      <point x="152" y="645"/>
      <point x="152" y="669" type="curve" smooth="yes"/>
      <point x="152" y="693"/>
      <point x="133" y="712"/>
      <point x="109" y="712" type="curve" smooth="yes"/>
      <point x="85" y="712"/>
      <point x="67" y="693"/>
    </contour>
  </outline>
</glyph>
<glyph name="m" format="1">
  <advance width="807"/>
  <unicode hex="006D"/>
  <outline>
    <contour>
      <point x="76" y="0" type="line"/>
      <point x="137" y="0" type="line"/>
      <point x="137" y="507" type="line"/>
      <point x="76" y="507" type="line"/>
    </contour>
    <contour>
      <point x="376" y="0" type="line"/>
      <point x="437" y="0" type="line"/>
      <point x="437" y="354" type="line" smooth="yes"/>
      <point x="437" y="447"/>
      <point x="392" y="515"/>
      <point x="279" y="515" type="curve" smooth="yes"/>
      <point x="180" y="515"/>
      <point x="110" y="441"/>
      <point x="110" y="280" type="curve"/>
      <point x="137" y="280" type="line"/>
      <point x="137" y="394"/>
      <point x="207" y="456"/>
      <point x="270" y="456" type="curve" smooth="yes"/>
      <point x="343" y="456"/>
      <point x="376" y="414"/>
      <point x="376" y="335" type="curve" smooth="yes"/>
    </contour>
    <contour>
      <point x="676" y="0" type="line"/>
      <point x="737" y="0" type="line"/>
      <point x="737" y="354" type="line" smooth="yes"/>
      <point x="737" y="444"/>
      <point x="692" y="515"/>
      <point x="579" y="515" type="curve" smooth="yes"/>
      <point x="485" y="515"/>
      <point x="403" y="440"/>
      <point x="403" y="280" type="curve"/>
      <point x="437" y="280" type="line"/>
      <point x="437" y="394"/>
      <point x="507" y="456"/>
      <point x="570" y="456" type="curve" smooth="yes"/>
      <point x="643" y="456"/>
      <point x="676" y="414"/>
      <point x="676" y="335" type="curve" smooth="yes"/>
    </contour>
  </outline>
</glyph>
<glyph name="n" format="1">
  <advance width="529"/>
  <unicode hex="006E"/>
  <outline>
    <contour>
      <point x="76" y="0" type="line"/>
      <point x="137" y="0" type="line"/>
      <point x="137" y="507" type="line"/>
      <point x="76" y="507" type="line"/>
    </contour>
    <contour>
      <point x="398" y="0" type="line"/>
      <point x="459" y="0" type="line"/>
      <point x="459" y="354" type="line" smooth="yes"/>
      <point x="459" y="448"/>
      <point x="397" y="515"/>
      <point x="298" y="515" type="curve" smooth="yes"/>
      <point x="190" y="515"/>
      <point x="116" y="447"/>
      <point x="110" y="299" type="curve" smooth="yes"/>
      <point x="110" y="293"/>
      <point x="110" y="287"/>
      <point x="110" y="280" type="curve"/>
      <point x="137" y="280" type="line"/>
      <point x="137" y="394"/>
      <point x="212" y="456"/>
      <point x="289" y="456" type="curve" smooth="yes"/>
      <point x="351" y="456"/>
      <point x="398" y="416"/>
      <point x="398" y="335" type="curve" smooth="yes"/>
    </contour>
  </outline>
</glyph>
<glyph name="o" format="1">
  <advance width="561"/>
  <unicode hex="006F"/>
  <outline>
    <contour>
      <point x="278" y="-9" type="curve" smooth="yes"/>
      <point x="430" y="-9"/>
      <point x="516" y="106"/>
      <point x="516" y="251" type="curve" smooth="yes"/>
      <point x="516" y="396"/>
      <point x="435" y="514"/>
      <point x="278" y="514" type="curve" smooth="yes"/>
      <point x="138" y="514"/>
      <point x="45" y="396"/>
      <point x="45" y="251" type="curve" smooth="yes"/>
      <point x="45" y="106"/>
      <point x="132" y="-9"/>
    </contour>
    <contour>
      <point x="278" y="456" type="curve" smooth="yes"/>
      <point x="403" y="456"/>
      <point x="452" y="358"/>
      <point x="452" y="251" type="curve" smooth="yes"/>
      <point x="452" y="144"/>
      <point x="394" y="49"/>
      <point x="278" y="49" type="curve" smooth="yes"/>
      <point x="174" y="49"/>
      <point x="109" y="144"/>
      <point x="109" y="251" type="curve" smooth="yes"/>
      <point x="109" y="358"/>
      <point x="168" y="456"/>
    </contour>
  </outline>
</glyph>
<glyph name="x" format="1">
  <advance width="465"/>
  <unicode hex="0078"/>
  <outline>
    <contour>
      <point x="438" y="0" type="line"/>
      <point x="365" y="0" type="line"/>
      <point x="232" y="213" type="line"/>
      <point x="96" y="0" type="line"/>
      <point x="27" y="0" type="line"/>
      <point x="194" y="261" type="line"/>
      <point x="37" y="508" type="line"/>
      <point x="109" y="508" type="line"/>
      <point x="233" y="308" type="line"/>
      <point x="356" y="508" type="line"/>
      <point x="427" y="508" type="line"/>
      <point x="268" y="260" type="line"/>
    </contour>
  </outline>
</glyph>
<glyph name="y" format="1">
  <advance width="482"/>
  <unicode hex="0079"/>
  <outline>
    <contour>
      <point x="9" y="507" type="line"/>
      <point x="79" y="507" type="line"/>
      <point x="148" y="337" type="line" smooth="yes"/>
      <point x="237" y="116"/>
      <point x="246" y="93"/>
      <point x="246" y="93" type="curve"/>
      <point x="246" y="93"/>
      <point x="253" y="116"/>
      <point x="333" y="337" type="curve" smooth="yes"/>
      <point x="395" y="507" type="line"/>
      <point x="463" y="507" type="line"/>
      <point x="279" y="13" type="line" smooth="yes"/>
      <point x="224" y="-135"/>
      <point x="148" y="-168"/>
      <point x="71" y="-168" type="curve" smooth="yes"/>
      <point x="60" y="-168"/>
      <point x="44" y="-166"/>
      <point x="33" y="-163" type="curve"/>
      <point x="33" y="-103" type="line"/>
      <point x="44" y="-106"/>
      <point x="57" y="-108"/>
      <point x="67" y="-108" type="curve" smooth="yes"/>
      <point x="135" y="-108"/>
      <point x="188" y="-67"/>
      <point x="216" y="14" type="curve"/>
    </contour>
  </outline>
</glyph>
<glyph name="z" format="1">
  <advance width="446"/>
  <unicode hex="007A"/>
  <outline>
    <contour>
      <point x="387" y="507" type="line"/>
      <point x="55" y="507" type="line"/>
      <point x="55" y="448" type="line"/>
      <point x="311" y="448" type="line"/>
      <point x="45" y="51" type="line"/>
      <point x="45" y="0" type="line"/>
      <point x="401" y="0" type="line"/>
      <point x="401" y="60" type="line"/>
      <point x="117" y="60" type="line"/>
      <point x="387" y="461" type="line"/>
    </contour>
  </outline>
</glyph>
<glyph name="braceleft" format="1">
  <advance width="322"/>
  <unicode hex="007B"/>
  <outline>
    <contour>
      <point x="112" y="264" type="curve"/>
      <point x="198" y="278"/>
      <point x="235" y="336"/>
      <point x="235" y="404" type="curve" smooth="yes"/>
      <point x="235" y="466"/>
      <point x="212" y="512"/>
      <point x="212" y="573" type="curve" smooth="yes"/>
      <point x="212" y="615"/>
      <point x="231" y="652"/>
      <point x="278" y="652" type="curve" smooth="yes"/>
      <point x="288" y="652"/>
      <point x="301" y="649"/>
      <point x="312" y="643" type="curve"/>
      <point x="312" y="705" type="line"/>
      <point x="298" y="710"/>
      <point x="284" y="712"/>
      <point x="270" y="712" type="curve" smooth="yes"/>
      <point x="206" y="712"/>
      <point x="148" y="661"/>
      <point x="148" y="571" type="curve" smooth="yes"/>
      <point x="148" y="516"/>
      <point x="171" y="469"/>
      <point x="171" y="420" type="curve" smooth="yes"/>
      <point x="171" y="359"/>
      <point x="143" y="308"/>
      <point x="82" y="297" type="curve" smooth="yes"/>
      <point x="71" y="295"/>
      <point x="59" y="295"/>
      <point x="50" y="295" type="curve"/>
      <point x="50" y="234" type="line"/>
      <point x="59" y="234"/>
      <point x="74" y="234"/>
      <point x="82" y="232" type="curve" smooth="yes"/>
      <point x="147" y="216"/>
      <point x="171" y="168"/>
      <point x="171" y="107" type="curve" smooth="yes"/>
      <point x="171" y="58"/>
      <point x="148" y="11"/>
      <point x="148" y="-44" type="curve" smooth="yes"/>
      <point x="148" y="-134"/>
      <point x="206" y="-185"/>
      <point x="270" y="-185" type="curve" smooth="yes"/>
      <point x="284" y="-185"/>
      <point x="298" y="-183"/>
      <point x="312" y="-178" type="curve"/>
      <point x="312" y="-116" type="line"/>
      <point x="301" y="-122"/>
      <point x="288" y="-125"/>
      <point x="278" y="-125" type="curve" smooth="yes"/>
      <point x="231" y="-125"/>
      <point x="212" y="-88"/>
      <point x="212" y="-46" type="curve" smooth="yes"/>
      <point x="212" y="15"/>
      <point x="235" y="61"/>
      <point x="235" y="123" type="curve" smooth="yes"/>
      <point x="235" y="191"/>
      <point x="198" y="250"/>
    </contour>
  </outline>
</glyph>
<glyph name="asciitilde" format="1">
  <advance width="585"/>
  <unicode hex="007E"/>
  <outline>
    <contour>
      <point x="499" y="312" type="line"/>
      <point x="480" y="276"/>
      <point x="449" y="252"/>
      <point x="411" y="252" type="curve" smooth="yes"/>
      <point x="338" y="252"/>
      <point x="285" y="332"/>
      <point x="190" y="332" type="curve" smooth="yes"/>
      <point x="136" y="332"/>
      <point x="84" y="305"/>
      <point x="38" y="241" type="curve"/>
      <point x="78" y="204" type="line"/>
      <point x="114" y="257"/>
      <point x="155" y="276"/>
      <point x="197" y="276" type="curve" smooth="yes"/>
      <point x="255" y="276"/>
      <point x="328" y="195"/>
      <point x="411" y="195" type="curve" smooth="yes"/>
      <point x="472" y="195"/>
      <point x="511" y="224"/>
      <point x="546" y="280" type="curve"/>
    </contour>
  </outline>
</glyph>
<glyph name="exclamdown" format="1">
  <advance width="241"/>
  <unicode hex="00A1"/>
  <outline>
    <contour>
      <point x="90" y="313" type="line"/>
      <point x="151" y="313" type="line"/>
      <point x="151" y="-165" type="line"/>
      <point x="90" y="-165" type="line"/>
    </contour>
    <contour>
      <point x="69" y="467" type="curve" smooth="yes"/>
      <point x="69" y="496"/>
      <point x="90" y="517"/>
      <point x="119" y="517" type="curve" smooth="yes"/>
      <point x="148" y="517"/>
      <point x="171" y="496"/>
      <point x="171" y="467" type="curve" smooth="yes"/>
      <point x="171" y="439"/>
      <point x="148" y="416"/>
      <point x="119" y="416" type="curve" smooth="yes"/>
      <point x="90" y="416"/>
      <point x="69" y="439"/>
    </contour>
  </outline>
</glyph>
<glyph name="cent" format="1">
  <advance width="445"/>
  <unicode hex="00A2"/>
  <outline>
    <contour>
      <point x="114" y="251" type="curve" smooth="yes"/>
      <point x="114" y="358"/>
      <point x="188" y="453"/>
      <point x="317" y="453" type="curve" smooth="yes"/>
      <point x="345" y="453"/>
      <point x="377" y="445"/>
      <point x="405" y="430" type="curve"/>
      <point x="405" y="492" type="line"/>
      <point x="371" y="507"/>
      <point x="340" y="512"/>
      <point x="311" y="512" type="curve" smooth="yes"/>
      <point x="142" y="512"/>
      <point x="50" y="384"/>
      <point x="50" y="252" type="curve" smooth="yes"/>
      <point x="50" y="116"/>
      <point x="139" y="-8"/>
      <point x="311" y="-8" type="curve" smooth="yes"/>
      <point x="340" y="-8"/>
      <point x="372" y="-3"/>
      <point x="405" y="11" type="curve"/>
      <point x="405" y="73" type="line"/>
      <point x="380" y="59"/>
      <point x="346" y="51"/>
      <point x="318" y="51" type="curve" smooth="yes"/>
      <point x="180" y="51"/>
      <point x="114" y="145"/>
    </contour>
    <contour>
      <point x="327" y="470" type="line"/>
      <point x="327" y="614" type="line"/>
      <point x="272" y="614" type="line"/>
      <point x="272" y="470" type="line"/>
    </contour>
    <contour>
      <point x="272" y="32" type="line"/>
      <point x="272" y="-111" type="line"/>
      <point x="327" y="-111" type="line"/>
      <point x="327" y="32" type="line"/>
    </contour>
  </outline>
</glyph>
<glyph name="sterling" format="1">
  <advance width="517"/>
  <unicode hex="00A3"/>
  <outline>
    <contour>
      <point x="65" y="52" type="line"/>
      <point x="148" y="90"/>
      <point x="171" y="136"/>
      <point x="171" y="249" type="curve"/>
      <point x="171" y="312"/>
      <point x="154" y="398"/>
      <point x="154" y="457" type="curve"/>
      <point x="154" y="589"/>
      <point x="229" y="659"/>
      <point x="350" y="659" type="curve" smooth="yes"/>
      <point x="384" y="659"/>
      <point x="421" y="650"/>
      <point x="451" y="635" type="curve"/>
      <point x="451" y="573" type="line"/>
      <point x="415" y="593"/>
      <point x="389" y="600"/>
      <point x="351" y="600" type="curve" smooth="yes"/>
      <point x="264" y="600"/>
      <point x="214" y="558"/>
      <point x="214" y="463" type="curve"/>
      <point x="214" y="396"/>
      <point x="231" y="315"/>
      <point x="231" y="250" type="curve"/>
      <point x="231" y="121"/>
      <point x="188" y="80"/>
      <point x="147" y="55" type="curve"/>
      <point x="477" y="55" type="line"/>
      <point x="477" y="0" type="line"/>
      <point x="65" y="0" type="line"/>
    </contour>
    <contour>
      <point x="72" y="350" type="line"/>
      <point x="407" y="350" type="line"/>
      <point x="407" y="299" type="line"/>
      <point x="72" y="299" type="line"/>
    </contour>
  </outline>
</glyph>
<glyph name="yen" format="1">
  <advance width="572"/>
  <unicode hex="00A5"/>
  <outline>
    <contour>
      <point x="252" y="312" type="line"/>
      <point x="73" y="312" type="line"/>
      <point x="73" y="362" type="line"/>
      <point x="252" y="362" type="line"/>
    </contour>
    <contour>
      <point x="73" y="217" type="line"/>
      <point x="493" y="217" type="line"/>
      <point x="493" y="167" type="line"/>
      <point x="73" y="167" type="line"/>
    </contour>
    <contour>
      <point x="252" y="252" type="line"/>
      <point x="40" y="654" type="line"/>
      <point x="108" y="654" type="line"/>
      <point x="283" y="311" type="line"/>
      <point x="460" y="654" type="line"/>
      <point x="528" y="654" type="line"/>
      <point x="314" y="252" type="line"/>
    </contour>
    <contour>
      <point x="252" y="272" type="line"/>
      <point x="314" y="272" type="line"/>
      <point x="314" y="0" type="line"/>
      <point x="252" y="0" type="line"/>
    </contour>
    <contour>
      <point x="493" y="312" type="line"/>
      <point x="314" y="312" type="line"/>
      <point x="314" y="362" type="line"/>
      <point x="493" y="362" type="line"/>
    </contour>
  </outline>
</glyph>
<glyph name="brokenbar" format="1">
  <advance width="214"/>
  <unicode hex="00A6"/>
  <outline>
    <contour>
      <point x="134" y="366" type="line"/>
      <point x="134" y="695" type="line"/>
      <point x="80" y="695" type="line"/>
      <point x="80" y="366" type="line"/>
    </contour>
    <contour>
      <point x="134" y="-194" type="line"/>
      <point x="134" y="135" type="line"/>
      <point x="80" y="135" type="line"/>
      <point x="80" y="-194" type="line"/>
    </contour>
  </outline>
</glyph>
<glyph name="section" format="1">
  <advance width="489"/>
  <unicode hex="00A7"/>
  <outline>
    <contour>
      <point x="371" y="63" type="line"/>
      <point x="413" y="93"/>
      <point x="439" y="140"/>
      <point x="439" y="204" type="curve" smooth="yes"/>
      <point x="439" y="318"/>
      <point x="346" y="358"/>
      <point x="260" y="395" type="curve" smooth="yes"/>
      <point x="184" y="428"/>
      <point x="114" y="438"/>
      <point x="114" y="514" type="curve" smooth="yes"/>
      <point x="114" y="583"/>
      <point x="171" y="619"/>
      <point x="261" y="619" type="curve" smooth="yes"/>
      <point x="311" y="619"/>
      <point x="369" y="602"/>
      <point x="400" y="581" type="curve"/>
      <point x="400" y="650" type="line"/>
      <point x="361" y="671"/>
      <point x="307" y="680"/>
      <point x="260" y="680" type="curve" smooth="yes"/>
      <point x="150" y="680"/>
      <point x="50" y="629"/>
      <point x="50" y="510" type="curve" smooth="yes"/>
      <point x="50" y="391"/>
      <point x="165" y="371"/>
      <point x="259" y="329" type="curve" smooth="yes"/>
      <point x="322" y="301"/>
      <point x="378" y="269"/>
      <point x="378" y="204" type="curve" smooth="yes"/>
      <point x="378" y="160"/>
      <point x="360" y="126"/>
      <point x="329" y="106" type="curve"/>
    </contour>
    <contour>
      <point x="99" y="422" type="line"/>
      <point x="69" y="392"/>
      <point x="50" y="352"/>
      <point x="50" y="300" type="curve" smooth="yes"/>
      <point x="50" y="174"/>
      <point x="165" y="139"/>
      <point x="259" y="97" type="curve" smooth="yes"/>
      <point x="322" y="69"/>
      <point x="376" y="38"/>
      <point x="376" y="-27" type="curve" smooth="yes"/>
      <point x="376" y="-106"/>
      <point x="319" y="-147"/>
      <point x="226" y="-147" type="curve" smooth="yes"/>
      <point x="159" y="-147"/>
      <point x="91" y="-124"/>
      <point x="52" y="-94" type="curve"/>
      <point x="52" y="-163" type="line"/>
      <point x="100" y="-192"/>
      <point x="166" y="-207"/>
      <point x="229" y="-207" type="curve" smooth="yes"/>
      <point x="345" y="-207"/>
      <point x="439" y="-148"/>
      <point x="439" y="-26" type="curve" smooth="yes"/>
      <point x="439" y="88"/>
      <point x="346" y="126"/>
      <point x="260" y="163" type="curve" smooth="yes"/>
      <point x="184" y="196"/>
      <point x="112" y="226"/>
      <point x="112" y="302" type="curve" smooth="yes"/>
      <point x="112" y="336"/>
      <point x="126" y="367"/>
      <point x="151" y="387" type="curve"/>
    </contour>
  </outline>
</glyph>
<glyph name="dieresis" format="1">
  <advance width="400"/>
  <unicode hex="00A8"/>
  <outline>
    <contour>
      <point x="65" y="726" type="curve" smooth="yes"/>
      <point x="65" y="702"/>
      <point x="83" y="683"/>
      <point x="108" y="683" type="curve" smooth="yes"/>
      <point x="132" y="683"/>
      <point x="151" y="702"/>
      <point x="151" y="726" type="curve" smooth="yes"/>
      <point x="151" y="751"/>
      <point x="132" y="769"/>
      <point x="108" y="769" type="curve" smooth="yes"/>
      <point x="83" y="769"/>
      <point x="65" y="751"/>
    </contour>
    <contour>
      <point x="249" y="726" type="curve" smooth="yes"/>
      <point x="249" y="702"/>
      <point x="268" y="683"/>
      <point x="292" y="683" type="curve" smooth="yes"/>
      <point x="317" y="683"/>
      <point x="335" y="702"/>
      <point x="335" y="726" type="curve" smooth="yes"/>
      <point x="335" y="751"/>
      <point x="317" y="769"/>
      <point x="292" y="769" type="curve" smooth="yes"/>
      <point x="268" y="769"/>
      <point x="249" y="751"/>
    </contour>
  </outline>
</glyph>
<glyph name="ordfeminine" format="1">
  <advance width="337"/>
  <unicode hex="00AA"/>
  <outline>
    <contour>
      <point x="256" y="527" type="line"/>
      <point x="256" y="481"/>
      <point x="210" y="437"/>
      <point x="145" y="437" type="curve" smooth="yes"/>
      <point x="84" y="437"/>
      <point x="53" y="469"/>
      <point x="53" y="513" type="curve" smooth="yes"/>
      <point x="53" y="567"/>
      <point x="100" y="593"/>
      <point x="187" y="593" type="curve" smooth="yes"/>
      <point x="267" y="593" type="line"/>
      <point x="267" y="643" type="line"/>
      <point x="175" y="643" type="line" smooth="yes"/>
      <point x="71" y="643"/>
      <point x="0" y="596"/>
      <point x="0" y="512" type="curve" smooth="yes"/>
      <point x="0" y="434"/>
      <point x="56" y="388"/>
      <point x="134" y="388" type="curve" smooth="yes"/>
      <point x="184" y="388"/>
      <point x="228" y="412"/>
      <point x="256" y="446" type="curve"/>
      <point x="256" y="392" type="line"/>
      <point x="307" y="392" type="line"/>
      <point x="307" y="661" type="line" smooth="yes"/>
      <point x="307" y="764"/>
      <point x="264" y="825"/>
      <point x="151" y="825" type="curve" smooth="yes"/>
      <point x="109" y="825"/>
      <point x="60" y="812"/>
      <point x="31" y="794" type="curve"/>
      <point x="31" y="741" type="line"/>
      <point x="63" y="763"/>
      <point x="111" y="777"/>
      <point x="150" y="777" type="curve" smooth="yes"/>
      <point x="231" y="777"/>
      <point x="256" y="733"/>
      <point x="256" y="661" type="curve" smooth="yes"/>
    </contour>
  </outline>
</glyph>
<glyph name="guillemotleft" format="1">
  <advance width="450"/>
  <unicode hex="00AB"/>
  <outline>
    <contour>
      <point x="27" y="253" type="line"/>
      <point x="177" y="415" type="line"/>
      <point x="247" y="415" type="line"/>
      <point x="100" y="253" type="line"/>
    </contour>
    <contour>
      <point x="100" y="253" type="line"/>
      <point x="247" y="91" type="line"/>
      <point x="177" y="91" type="line"/>
      <point x="27" y="253" type="line"/>
    </contour>
    <contour>
      <point x="204" y="253" type="line"/>
      <point x="354" y="415" type="line"/>
      <point x="424" y="415" type="line"/>
      <point x="277" y="253" type="line"/>
    </contour>
    <contour>
      <point x="277" y="253" type="line"/>
      <point x="424" y="91" type="line"/>
      <point x="354" y="91" type="line"/>
      <point x="204" y="253" type="line"/>
    </contour>
  </outline>
</glyph>
<glyph name="softhyphen" format="1">
  <advance width="345"/>
  <unicode hex="00AD"/>
  <outline>
    <contour>
      <point x="60" y="243" type="line"/>
      <point x="285" y="243" type="line"/>
      <point x="285" y="298" type="line"/>
      <point x="60" y="298" type="line"/>
    </contour>
  </outline>
</glyph>
<glyph name="registered" format="1">
  <advance width="438"/>
  <unicode hex="00AE"/>
  <outline>
    <contour>
      <point x="201" y="584" type="line"/>
      <point x="262" y="482" type="line"/>
      <point x="310" y="482" type="line"/>
      <point x="246" y="584" type="line"/>
    </contour>
    <contour>
      <point x="252" y="624" type="curve" smooth="yes"/>
      <point x="252" y="603"/>
      <point x="243" y="591"/>
      <point x="222" y="591" type="curve" smooth="yes"/>
      <point x="155" y="591" type="line"/>
      <point x="155" y="558" type="line"/>
      <point x="217" y="558" type="line" smooth="yes"/>
      <point x="267" y="558"/>
      <point x="293" y="584"/>
      <point x="293" y="624" type="curve" smooth="yes"/>
      <point x="293" y="665"/>
      <point x="269" y="690"/>
      <point x="214" y="690" type="curve" smooth="yes"/>
      <point x="155" y="690" type="line"/>
      <point x="155" y="656" type="line"/>
      <point x="219" y="656" type="line" smooth="yes"/>
      <point x="240" y="656"/>
      <point x="252" y="648"/>
    </contour>
    <contour>
      <point x="155" y="482" type="line"/>
      <point x="196" y="482" type="line"/>
      <point x="196" y="690" type="line"/>
      <point x="155" y="690" type="line"/>
    </contour>
    <contour>
      <point x="10" y="579" type="curve" smooth="yes"/>
      <point x="10" y="458"/>
      <point x="98" y="371"/>
      <point x="219" y="371" type="curve" smooth="yes"/>
      <point x="340" y="371"/>
      <point x="428" y="458"/>
      <point x="428" y="579" type="curve" smooth="yes"/>
      <point x="428" y="700"/>
      <point x="340" y="788"/>
      <point x="219" y="788" type="curve" smooth="yes"/>
      <point x="98" y="788"/>
      <point x="10" y="700"/>
    </contour>
    <contour>
      <point x="55" y="579" type="curve" smooth="yes"/>
      <point x="55" y="677"/>
      <point x="120" y="745"/>
      <point x="220" y="745" type="curve" smooth="yes"/>
      <point x="319" y="745"/>
      <point x="385" y="677"/>
      <point x="385" y="579" type="curve" smooth="yes"/>
      <point x="385" y="481"/>
      <point x="319" y="414"/>
      <point x="220" y="414" type="curve" smooth="yes"/>
      <point x="120" y="414"/>
      <point x="55" y="481"/>
    </contour>
  </outline>
</glyph>
<glyph name="macron" format="1">
  <advance width="400"/>
  <unicode hex="00AF"/>
  <outline>
    <contour>
      <point x="331" y="704" type="line"/>
      <point x="331" y="749" type="line"/>
      <point x="68" y="749" type="line"/>
      <point x="68" y="704" type="line"/>
    </contour>
  </outline>
</glyph>
<glyph name="degree" format="1">
  <advance width="332"/>
  <unicode hex="00B0"/>
  <outline>
    <contour>
      <point x="30" y="539" type="curve" smooth="yes"/>
      <point x="30" y="460"/>
      <point x="85" y="408"/>
      <point x="164" y="408" type="curve" smooth="yes"/>
      <point x="243" y="408"/>
      <point x="302" y="464"/>
      <point x="302" y="543" type="curve" smooth="yes"/>
      <point x="302" y="622"/>
      <point x="247" y="674"/>
      <point x="168" y="674" type="curve" smooth="yes"/>
      <point x="89" y="674"/>
      <point x="30" y="618"/>
    </contour>
    <contour>
      <point x="83" y="541" type="curve" smooth="yes"/>
      <point x="83" y="589"/>
      <point x="116" y="627"/>
      <point x="164" y="627" type="curve" smooth="yes"/>
      <point x="212" y="627"/>
      <point x="249" y="589"/>
      <point x="249" y="541" type="curve" smooth="yes"/>
      <point x="249" y="493"/>
      <point x="216" y="455"/>
      <point x="168" y="455" type="curve" smooth="yes"/>
      <point x="120" y="455"/>
      <point x="83" y="493"/>
    </contour>
  </outline>
</glyph>
<glyph name="acute" format="1">
  <advance width="400"/>
  <unicode hex="00B4"/>
  <outline>
    <contour>
      <point x="110" y="648" type="line"/>
      <point x="165" y="648" type="line"/>
      <point x="293" y="798" type="line"/>
      <point x="212" y="798" type="line"/>
    </contour>
  </outline>
</glyph>
<glyph name="paragraph" format="1">
  <advance width="533"/>
  <unicode hex="00B6"/>
  <outline>
    <contour>
      <point x="276" y="674" type="line"/>
      <point x="215" y="674" type="line"/>
      <point x="94" y="674"/>
      <point x="30" y="589"/>
      <point x="30" y="507" type="curve" smooth="yes"/>
      <point x="30" y="420"/>
      <point x="93" y="347"/>
      <point x="216" y="347" type="curve"/>
      <point x="216" y="-148" type="line"/>
      <point x="276" y="-148" type="line"/>
    </contour>
    <contour>
      <point x="397" y="-148" type="line"/>
      <point x="457" y="-148" type="line"/>
      <point x="457" y="674" type="line"/>
      <point x="397" y="674" type="line"/>
    </contour>
  </outline>
</glyph>
<glyph name="cedilla" format="1">
  <advance width="400"/>
  <unicode hex="00B8"/>
  <outline>
    <contour>
      <point x="271" y="-121" type="curve" smooth="yes"/>
      <point x="271" y="-99"/>
      <point x="264" y="-67"/>
      <point x="253" y="-51" type="curve"/>
      <point x="192" y="-51" type="line"/>
      <point x="209" y="-79"/>
      <point x="215" y="-98"/>
      <point x="215" y="-126" type="curve" smooth="yes"/>
      <point x="215" y="-168"/>
      <point x="185" y="-193"/>
      <point x="128" y="-199" type="curve"/>
      <point x="128" y="-248" type="line"/>
      <point x="224" y="-244"/>
      <point x="271" y="-186"/>
    </contour>
  </outline>
</glyph>
<glyph name="guillemotright" format="1">
  <advance width="453"/>
  <unicode hex="00BB"/>
  <outline>
    <contour>
      <point x="423" y="253" type="line"/>
      <point x="273" y="415" type="line"/>
      <point x="203" y="415" type="line"/>
      <point x="350" y="253" type="line"/>
    </contour>
    <contour>
      <point x="350" y="253" type="line"/>
      <point x="203" y="91" type="line"/>
      <point x="273" y="91" type="line"/>
      <point x="423" y="253" type="line"/>
    </contour>
    <contour>
      <point x="246" y="253" type="line"/>
      <point x="96" y="415" type="line"/>
      <point x="26" y="415" type="line"/>
      <point x="173" y="253" type="line"/>
    </contour>
    <contour>
      <point x="173" y="253" type="line"/>
      <point x="26" y="91" type="line"/>
      <point x="96" y="91" type="line"/>
      <point x="246" y="253" type="line"/>
    </contour>
  </outline>
</glyph>
<glyph name="onehalf" format="1">
  <advance width="833"/>
  <unicode hex="00BD"/>
  <outline>
    <contour>
      <point x="512" y="0" type="line"/>
      <point x="787" y="0" type="line"/>
      <point x="787" y="46" type="line"/>
      <point x="590" y="46" type="line"/>
      <point x="692" y="125"/>
      <point x="772" y="223"/>
      <point x="772" y="304" type="curve" smooth="yes"/>
      <point x="772" y="391"/>
      <point x="703" y="433"/>
      <point x="634" y="433" type="curve" smooth="yes"/>
      <point x="592" y="433"/>
      <point x="555" y="417"/>
      <point x="527" y="400" type="curve"/>
      <point x="527" y="341" type="line"/>
      <point x="558" y="366"/>
      <point x="597" y="385"/>
      <point x="636" y="385" type="curve" smooth="yes"/>
      <point x="680" y="385"/>
      <point x="717" y="361"/>
      <point x="717" y="302" type="curve" smooth="yes"/>
      <point x="717" y="218"/>
      <point x="613" y="118"/>
      <point x="512" y="41" type="curve"/>
    </contour>
    <contour>
      <point x="80" y="590" type="line"/>
      <point x="184" y="648" type="line"/>
      <point x="184" y="282" type="line"/>
      <point x="236" y="282" type="line"/>
      <point x="236" y="711" type="line"/>
      <point x="193" y="711" type="line"/>
      <point x="80" y="647" type="line"/>
    </contour>
    <contour>
      <point x="150" y="0" type="line"/>
      <point x="211" y="0" type="line"/>
      <point x="668" y="712" type="line"/>
      <point x="606" y="712" type="line"/>
    </contour>
  </outline>
</glyph>
<glyph name="threequarters" format="1">
  <advance width="858"/>
  <unicode hex="00BE"/>
  <outline>
    <contour>
      <point x="522" y="144" type="line"/>
      <point x="835" y="144" type="line"/>
      <point x="835" y="102" type="line"/>
      <point x="522" y="102" type="line"/>
    </contour>
    <contour>
      <point x="695" y="429" type="line"/>
      <point x="746" y="429" type="line"/>
      <point x="575" y="144" type="line"/>
      <point x="522" y="144" type="line"/>
    </contour>
    <contour>
      <point x="720" y="429" type="line"/>
      <point x="770" y="429" type="line"/>
      <point x="770" y="0" type="line"/>
      <point x="720" y="0" type="line"/>
    </contour>
    <contour>
      <point x="207" y="0" type="line"/>
      <point x="268" y="0" type="line"/>
      <point x="725" y="712" type="line"/>
      <point x="663" y="712" type="line"/>
    </contour>
    <contour>
      <point x="178" y="522" type="line" smooth="yes"/>
      <point x="224" y="522"/>
      <point x="265" y="549"/>
      <point x="265" y="598" type="curve" smooth="yes"/>
      <point x="265" y="646"/>
      <point x="234" y="667"/>
      <point x="187" y="667" type="curve" smooth="yes"/>
      <point x="159" y="667"/>
      <point x="124" y="654"/>
      <point x="96" y="636" type="curve"/>
      <point x="96" y="689" type="line"/>
      <point x="115" y="701"/>
      <point x="152" y="715"/>
      <point x="186" y="715" type="curve" smooth="yes"/>
      <point x="278" y="715"/>
      <point x="319" y="661"/>
      <point x="319" y="601" type="curve" smooth="yes"/>
      <point x="319" y="547"/>
      <point x="288" y="513"/>
      <point x="241" y="501" type="curve"/>
      <point x="289" y="497"/>
      <point x="333" y="454"/>
      <point x="333" y="397" type="curve" smooth="yes"/>
      <point x="333" y="329"/>
      <point x="286" y="278"/>
      <point x="195" y="278" type="curve" smooth="yes"/>
      <point x="161" y="278"/>
      <point x="116" y="287"/>
      <point x="85" y="302" type="curve"/>
      <point x="85" y="353" type="line"/>
      <point x="122" y="333"/>
      <point x="159" y="326"/>
      <point x="195" y="326" type="curve" smooth="yes"/>
      <point x="247" y="326"/>
      <point x="279" y="353"/>
      <point x="279" y="398" type="curve" smooth="yes"/>
      <point x="279" y="447"/>
      <point x="240" y="476"/>
      <point x="178" y="476" type="curve" smooth="yes"/>
      <point x="151" y="476" type="line"/>
      <point x="151" y="522" type="line"/>
    </contour>
  </outline>
</glyph>
<glyph name="AE" format="1">
  <advance width="863"/>
  <unicode hex="00C6"/>
  <outline>
    <contour>
      <point x="27" y="0" type="line"/>
      <point x="94" y="0" type="line"/>
      <point x="263" y="284" type="line" smooth="yes"/>
      <point x="421" y="550"/>
      <point x="487" y="674"/>
      <point x="487" y="674" type="curve"/>
      <point x="425" y="674" type="line"/>
    </contour>
    <contour>
      <point x="185" y="187" type="line"/>
      <point x="483" y="187" type="line"/>
      <point x="483" y="242" type="line"/>
      <point x="185" y="242" type="line"/>
    </contour>
    <contour>
      <point x="461" y="0" type="line"/>
      <point x="818" y="0" type="line"/>
      <point x="818" y="57" type="line"/>
      <point x="461" y="57" type="line"/>
    </contour>
    <contour>
      <point x="453" y="0" type="line"/>
      <point x="515" y="0" type="line"/>
      <point x="515" y="674" type="line"/>
      <point x="453" y="674" type="line"/>
    </contour>
    <contour>
      <point x="461" y="308" type="line"/>
      <point x="777" y="308" type="line"/>
      <point x="777" y="365" type="line"/>
      <point x="461" y="365" type="line"/>
    </contour>
    <contour>
      <point x="461" y="617" type="line"/>
      <point x="812" y="617" type="line"/>
      <point x="812" y="674" type="line"/>
      <point x="461" y="674" type="line"/>
    </contour>
  </outline>
</glyph>
<glyph name="multiply" format="1">
  <advance width="481"/>
  <unicode hex="00D7"/>
  <outline>
    <contour>
      <point x="372" y="170" type="line"/>
      <point x="412" y="210" type="line"/>
      <point x="103" y="516" type="line"/>
      <point x="63" y="476" type="line"/>
    </contour>
    <contour>
      <point x="108" y="170" type="line"/>
      <point x="417" y="477" type="line"/>
      <point x="377" y="517" type="line"/>
      <point x="68" y="210" type="line"/>
    </contour>
  </outline>
</glyph>
<glyph name="Oslash" format="1">
  <advance width="664"/>
  <unicode hex="00D8"/>
  <outline>
    <contour>
      <point x="42" y="340" type="curve" smooth="yes"/>
      <point x="42" y="128"/>
      <point x="161" y="-8"/>
      <point x="339" y="-8" type="curve" smooth="yes"/>
      <point x="521" y="-8"/>
      <point x="633" y="128"/>
      <point x="633" y="340" type="curve" smooth="yes"/>
      <point x="633" y="552"/>
      <point x="525" y="688"/>
      <point x="337" y="688" type="curve" smooth="yes"/>
      <point x="156" y="688"/>
      <point x="42" y="552"/>
    </contour>
    <contour>
      <point x="106" y="340" type="curve" smooth="yes"/>
      <point x="106" y="519"/>
      <point x="192" y="628"/>
      <point x="337" y="628" type="curve" smooth="yes"/>
      <point x="487" y="628"/>
      <point x="569" y="519"/>
      <point x="569" y="340" type="curve" smooth="yes"/>
      <point x="569" y="161"/>
      <point x="487" y="52"/>
      <point x="339" y="52" type="curve" smooth="yes"/>
      <point x="199" y="52"/>
      <point x="106" y="161"/>
    </contour>
    <contour>
      <point x="41" y="-9" type="line"/>
      <point x="112" y="-9" type="line"/>
      <point x="634" y="688" type="line"/>
      <point x="562" y="688" type="line"/>
    </contour>
  </outline>
</glyph>
<glyph name="germandbls" format="1">
  <advance width="526"/>
  <unicode hex="00DF"/>
  <outline>
    <contour>
      <point x="252" y="67" type="line"/>
      <point x="278" y="55"/>
      <point x="299" y="50"/>
      <point x="333" y="50" type="curve" smooth="yes"/>
      <point x="394" y="50"/>
      <point x="432" y="82"/>
      <point x="432" y="126" type="curve" smooth="yes"/>
      <point x="432" y="223"/>
      <point x="281" y="244"/>
      <point x="281" y="352" type="curve" smooth="yes"/>
      <point x="281" y="437"/>
      <point x="368" y="457"/>
      <point x="368" y="541" type="curve" smooth="yes"/>
      <point x="368" y="596"/>
      <point x="323" y="631"/>
      <point x="260" y="631" type="curve" smooth="yes"/>
      <point x="185" y="631"/>
      <point x="142" y="592"/>
      <point x="142" y="505" type="curve"/>
      <point x="142" y="0" type="line"/>
      <point x="80" y="0" type="line"/>
      <point x="80" y="505" type="line"/>
      <point x="80" y="635"/>
      <point x="160" y="690"/>
      <point x="265" y="690" type="curve" smooth="yes"/>
      <point x="367" y="690"/>
      <point x="430" y="622"/>
      <point x="430" y="541" type="curve" smooth="yes"/>
      <point x="430" y="435"/>
      <point x="347" y="410"/>
      <point x="347" y="356" type="curve" smooth="yes"/>
      <point x="347" y="281"/>
      <point x="494" y="258"/>
      <point x="494" y="131" type="curve" smooth="yes"/>
      <point x="494" y="54"/>
      <point x="438" y="-7"/>
      <point x="330" y="-7" type="curve" smooth="yes"/>
      <point x="300" y="-7"/>
      <point x="278" y="-5"/>
      <point x="252" y="3" type="curve"/>
    </contour>
  </outline>
</glyph>
<glyph name="ae" format="1">
  <advance width="822"/>
  <unicode hex="00E6"/>
  <outline>
    <contour>
      <point x="778" y="226" type="line"/>
      <point x="781" y="241"/>
      <point x="782" y="265"/>
      <point x="782" y="275" type="curve" smooth="yes"/>
      <point x="782" y="426"/>
      <point x="714" y="513"/>
      <point x="583" y="513" type="curve" smooth="yes"/>
      <point x="507" y="513"/>
      <point x="444" y="481"/>
      <point x="404" y="420" type="curve"/>
      <point x="380" y="481"/>
      <point x="326" y="515"/>
      <point x="235" y="515" type="curve" smooth="yes"/>
      <point x="185" y="515"/>
      <point x="127" y="500"/>
      <point x="92" y="478" type="curve"/>
      <point x="92" y="415" type="line"/>
      <point x="130" y="441"/>
      <point x="187" y="457"/>
      <point x="234" y="457" type="curve" smooth="yes"/>
      <point x="329" y="457"/>
      <point x="360" y="406"/>
      <point x="360" y="320" type="curve" smooth="yes"/>
      <point x="360" y="298" type="line"/>
      <point x="264" y="298" type="line" smooth="yes"/>
      <point x="140" y="298"/>
      <point x="55" y="242"/>
      <point x="55" y="142" type="curve" smooth="yes"/>
      <point x="55" y="50"/>
      <point x="122" y="-5"/>
      <point x="214" y="-5" type="curve" smooth="yes"/>
      <point x="305" y="-5"/>
      <point x="371" y="38"/>
      <point x="397" y="102" type="curve"/>
      <point x="437" y="39"/>
      <point x="515" y="-5"/>
      <point x="608" y="-5" type="curve" smooth="yes"/>
      <point x="651" y="-5"/>
      <point x="707" y="6"/>
      <point x="745" y="25" type="curve"/>
      <point x="745" y="87" type="line"/>
      <point x="709" y="63"/>
      <point x="652" y="53"/>
      <point x="611" y="53" type="curve" smooth="yes"/>
      <point x="511" y="53"/>
      <point x="432" y="111"/>
      <point x="422" y="226" type="curve"/>
    </contour>
    <contour>
      <point x="581" y="456" type="curve" smooth="yes"/>
      <point x="658" y="456"/>
      <point x="719" y="407"/>
      <point x="719" y="305" type="curve" smooth="yes"/>
      <point x="719" y="282" type="line"/>
      <point x="422" y="282" type="line"/>
      <point x="433" y="403"/>
      <point x="503" y="456"/>
    </contour>
    <contour>
      <point x="360" y="178" type="line"/>
      <point x="360" y="101"/>
      <point x="299" y="54"/>
      <point x="228" y="54" type="curve" smooth="yes"/>
      <point x="155" y="54"/>
      <point x="119" y="91"/>
      <point x="119" y="144" type="curve" smooth="yes"/>
      <point x="119" y="208"/>
      <point x="174" y="239"/>
      <point x="278" y="239" type="curve" smooth="yes"/>
      <point x="360" y="239" type="line"/>
    </contour>
  </outline>
</glyph>
<glyph name="igrave" format="1">
  <advance width="221"/>
  <unicode hex="00EC"/>
  <outline>
    <contour>
      <point x="80" y="0" type="line"/>
      <point x="141" y="0" type="line"/>
      <point x="141" y="507" type="line"/>
      <point x="80" y="507" type="line"/>
    </contour>
    <component base="grave" xOffset="-159" yOffset="-87"/>
  </outline>
</glyph>
<glyph name="icircumflex" format="1">
  <advance width="221"/>
  <unicode hex="00EE"/>
  <outline>
    <contour>
      <point x="80" y="0" type="line"/>
      <point x="141" y="0" type="line"/>
      <point x="141" y="507" type="line"/>
      <point x="80" y="507" type="line"/>
    </contour>
    <component base="circumflex" xOffset="-88" yOffset="-86"/>
  </outline>
</glyph>
<glyph name="idieresis" format="1">
  <advance width="221"/>
  <unicode hex="00EF"/>
  <outline>
    <contour>
      <point x="80" y="0" type="line"/>
      <point x="141" y="0" type="line"/>
      <point x="141" y="507" type="line"/>
      <point x="80" y="507" type="line"/>
    </contour>
    <component base="dieresis" xOffset="-89" yOffset="-87"/>
  </outline>
</glyph>
<glyph name="eth" format="1">
  <advance width="506"/>
  <unicode hex="00F0"/>
  <outline>
    <contour>
      <point x="240" y="674" type="line"/>
      <point x="336" y="613"/>
      <point x="461" y="472"/>
      <point x="461" y="264" type="curve" smooth="yes"/>
      <point x="461" y="76"/>
      <point x="372" y="-9"/>
      <point x="247" y="-9" type="curve" smooth="yes"/>
      <point x="121" y="-9"/>
      <point x="39" y="90"/>
      <point x="39" y="202" type="curve" smooth="yes"/>
      <point x="39" y="339"/>
      <point x="141" y="410"/>
      <point x="243" y="410" type="curve" smooth="yes"/>
      <point x="316" y="410"/>
      <point x="384" y="372"/>
      <point x="420" y="304" type="curve"/>
      <point x="420" y="234" type="line"/>
      <point x="389" y="298"/>
      <point x="323" y="350"/>
      <point x="240" y="350" type="curve" smooth="yes"/>
      <point x="166" y="350"/>
      <point x="103" y="299"/>
      <point x="103" y="202" type="curve" smooth="yes"/>
      <point x="103" y="105"/>
      <point x="165" y="49"/>
      <point x="247" y="49" type="curve" smooth="yes"/>
      <point x="329" y="49"/>
      <point x="404" y="112"/>
      <point x="404" y="265" type="curve" smooth="yes"/>
      <point x="404" y="488"/>
      <point x="235" y="626"/>
      <point x="132" y="674" type="curve"/>
    </contour>
    <contour>
      <point x="162" y="470" type="line"/>
      <point x="162" y="526" type="line"/>
      <point x="444" y="672" type="line"/>
      <point x="444" y="616" type="line"/>
    </contour>
  </outline>
</glyph>
<glyph name="divide" format="1">
  <advance width="544"/>
  <unicode hex="00F7"/>
  <outline>
    <contour>
      <point x="226" y="519" type="curve" smooth="yes"/>
      <point x="226" y="494"/>
      <point x="247" y="473"/>
      <point x="272" y="473" type="curve" smooth="yes"/>
      <point x="297" y="473"/>
      <point x="318" y="494"/>
      <point x="318" y="519" type="curve" smooth="yes"/>
      <point x="318" y="544"/>
      <point x="297" y="565"/>
      <point x="272" y="565" type="curve" smooth="yes"/>
      <point x="247" y="565"/>
      <point x="226" y="544"/>
    </contour>
    <contour>
      <point x="60" y="312" type="line"/>
      <point x="484" y="312" type="line"/>
      <point x="484" y="368" type="line"/>
      <point x="60" y="368" type="line"/>
    </contour>
    <contour>
      <point x="226" y="161" type="curve" smooth="yes"/>
      <point x="226" y="136"/>
      <point x="247" y="115"/>
      <point x="272" y="115" type="curve" smooth="yes"/>
      <point x="297" y="115"/>
      <point x="318" y="136"/>
      <point x="318" y="161" type="curve" smooth="yes"/>
      <point x="318" y="186"/>
      <point x="297" y="207"/>
      <point x="272" y="207" type="curve" smooth="yes"/>
      <point x="247" y="207"/>
      <point x="226" y="186"/>
    </contour>
  </outline>
</glyph>
<glyph name="oslash" format="1">
  <advance width="563"/>
  <unicode hex="00F8"/>
  <outline>
    <contour>
      <point x="295" y="-9" type="curve" smooth="yes"/>
      <point x="447" y="-9"/>
      <point x="533" y="106"/>
      <point x="533" y="251" type="curve" smooth="yes"/>
      <point x="533" y="396"/>
      <point x="452" y="514"/>
      <point x="295" y="514" type="curve" smooth="yes"/>
      <point x="155" y="514"/>
      <point x="62" y="396"/>
      <point x="62" y="251" type="curve" smooth="yes"/>
      <point x="62" y="106"/>
      <point x="149" y="-9"/>
    </contour>
    <contour>
      <point x="295" y="459" type="curve" smooth="yes"/>
      <point x="422" y="459"/>
      <point x="472" y="360"/>
      <point x="472" y="251" type="curve" smooth="yes"/>
      <point x="472" y="142"/>
      <point x="413" y="46"/>
      <point x="295" y="46" type="curve" smooth="yes"/>
      <point x="189" y="46"/>
      <point x="123" y="142"/>
      <point x="123" y="251" type="curve" smooth="yes"/>
      <point x="123" y="360"/>
      <point x="183" y="459"/>
    </contour>
    <contour>
      <point x="62" y="-9" type="line"/>
      <point x="133" y="-9" type="line"/>
      <point x="533" y="514" type="line"/>
      <point x="461" y="514" type="line"/>
    </contour>
  </outline>
</glyph>
<glyph name="thorn" format="1">
  <advance width="555"/>
  <unicode hex="00FE"/>
  <outline>
    <contour>
      <point x="76" y="-200" type="line"/>
      <point x="137" y="-200" type="line"/>
      <point x="137" y="707" type="line"/>
      <point x="76" y="707" type="line"/>
    </contour>
    <contour>
      <point x="137" y="251" type="curve" smooth="yes"/>
      <point x="137" y="413"/>
      <point x="223" y="457"/>
      <point x="296" y="457" type="curve" smooth="yes"/>
      <point x="382" y="457"/>
      <point x="446" y="377"/>
      <point x="446" y="260" type="curve" smooth="yes"/>
      <point x="446" y="119"/>
      <point x="376" y="50"/>
      <point x="290" y="50" type="curve" smooth="yes"/>
      <point x="232" y="50"/>
      <point x="137" y="93"/>
    </contour>
    <contour>
      <point x="91" y="251" type="curve" smooth="yes"/>
      <point x="91" y="110"/>
      <point x="161" y="-8"/>
      <point x="292" y="-8" type="curve" smooth="yes"/>
      <point x="420" y="-8"/>
      <point x="510" y="102"/>
      <point x="510" y="259" type="curve" smooth="yes"/>
      <point x="510" y="394"/>
      <point x="436" y="515"/>
      <point x="294" y="515" type="curve" smooth="yes"/>
      <point x="135" y="515"/>
      <point x="91" y="366"/>
    </contour>
  </outline>
</glyph>
<glyph name="aogonek" format="1">
  <advance width="486"/>
  <unicode hex="0105"/>
  <outline>
    <contour>
      <point x="355" y="160" type="line"/>
      <point x="355" y="105"/>
      <point x="300" y="54"/>
      <point x="223" y="54" type="curve" smooth="yes"/>
      <point x="150" y="54"/>
      <point x="114" y="91"/>
      <point x="114" y="144" type="curve" smooth="yes"/>
      <point x="114" y="208"/>
      <point x="169" y="239"/>
      <point x="273" y="239" type="curve" smooth="yes"/>
      <point x="368" y="239" type="line"/>
      <point x="368" y="298" type="line"/>
      <point x="259" y="298" type="line" smooth="yes"/>
      <point x="135" y="298"/>
      <point x="50" y="242"/>
      <point x="50" y="142" type="curve" smooth="yes"/>
      <point x="50" y="50"/>
      <point x="117" y="-5"/>
      <point x="209" y="-5" type="curve" smooth="yes"/>
      <point x="269" y="-5"/>
      <point x="322" y="23"/>
      <point x="355" y="63" type="curve"/>
      <point x="355" y="0" type="line"/>
      <point x="416" y="0" type="line"/>
      <point x="416" y="320" type="line" smooth="yes"/>
      <point x="416" y="442"/>
      <point x="364" y="515"/>
      <point x="230" y="515" type="curve" smooth="yes"/>
      <point x="180" y="515"/>
      <point x="122" y="500"/>
      <point x="87" y="478" type="curve"/>
      <point x="87" y="415" type="line"/>
      <point x="125" y="441"/>
      <point x="182" y="457"/>
      <point x="229" y="457" type="curve" smooth="yes"/>
      <point x="324" y="457"/>
      <point x="355" y="406"/>
      <point x="355" y="320" type="curve" smooth="yes"/>
    </contour>
    <contour>
      <point x="439" y="-219" type="curve"/>
      <point x="439" y="-169" type="line"/>
      <point x="424" y="-180"/>
      <point x="397" y="-189"/>
      <point x="375" y="-189" type="curve" smooth="yes"/>
      <point x="333" y="-189"/>
      <point x="305" y="-167"/>
      <point x="305" y="-124" type="curve" smooth="yes"/>
      <point x="305" y="-70"/>
      <point x="354" y="-28"/>
      <point x="416" y="0" type="curve"/>
      <point x="390" y="31" type="line"/>
      <point x="318" y="7"/>
      <point x="249" y="-54"/>
      <point x="249" y="-129" type="curve" smooth="yes"/>
      <point x="249" y="-190"/>
      <point x="292" y="-237"/>
      <point x="368" y="-237" type="curve" smooth="yes"/>
      <point x="392" y="-237"/>
      <point x="419" y="-232"/>
    </contour>
  </outline>
</glyph>
<glyph name="Gcommaaccent" format="1">
  <advance width="661"/>
  <unicode hex="0122"/>
  <outline>
    <contour>
      <point x="569" y="570" type="line"/>
      <point x="516" y="607"/>
      <point x="445" y="624"/>
      <point x="381" y="624" type="curve" smooth="yes"/>
      <point x="225" y="624"/>
      <point x="114" y="512"/>
      <point x="114" y="338" type="curve" smooth="yes"/>
      <point x="114" y="160"/>
      <point x="219" y="54"/>
      <point x="392" y="54" type="curve" smooth="yes"/>
      <point x="478" y="54"/>
      <point x="533" y="84"/>
      <point x="561" y="104" type="curve"/>
      <point x="591" y="50" type="line"/>
      <point x="542" y="14"/>
      <point x="466" y="-8"/>
      <point x="391" y="-8" type="curve" smooth="yes"/>
      <point x="189" y="-8"/>
      <point x="50" y="121"/>
      <point x="50" y="338" type="curve" smooth="yes"/>
      <point x="50" y="541"/>
      <point x="187" y="686"/>
      <point x="373" y="686" type="curve" smooth="yes"/>
      <point x="439" y="686"/>
      <point x="513" y="673"/>
      <point x="569" y="639" type="curve"/>
    </contour>
    <contour>
      <point x="529" y="371" type="line"/>
      <point x="591" y="371" type="line"/>
      <point x="591" y="50" type="line"/>
      <point x="529" y="35" type="line"/>
    </contour>
    <contour>
      <point x="370" y="371" type="line"/>
      <point x="591" y="371" type="line"/>
      <point x="591" y="316" type="line"/>
      <point x="370" y="316" type="line"/>
    </contour>
    <contour>
      <point x="249" y="-238" type="line"/>
      <point x="303" y="-238" type="line"/>
      <point x="413" y="-51" type="line"/>
      <point x="337" y="-51" type="line"/>
    </contour>
  </outline>
</glyph>
<glyph name="imacron" format="1">
  <advance width="221"/>
  <unicode hex="012B"/>
  <outline>
    <contour>
      <point x="80" y="0" type="line"/>
      <point x="141" y="0" type="line"/>
      <point x="141" y="507" type="line"/>
      <point x="80" y="507" type="line"/>
    </contour>
    <component base="macron" xOffset="-88" yOffset="-90"/>
  </outline>
</glyph>
<glyph name="Kcommaaccent" format="1">
  <advance width="549"/>
  <unicode hex="0136"/>
  <outline>
    <contour>
      <point x="159" y="-238" type="line"/>
      <point x="213" y="-238" type="line"/>
      <point x="323" y="-51" type="line"/>
      <point x="247" y="-51" type="line"/>
    </contour>
    <contour>
      <point x="80" y="0" type="line"/>
      <point x="142" y="0" type="line"/>
      <point x="142" y="674" type="line"/>
      <point x="80" y="674" type="line"/>
    </contour>
    <contour>
      <point x="160" y="332" type="line"/>
      <point x="437" y="0" type="line"/>
      <point x="519" y="0" type="line"/>
      <point x="239" y="332" type="line"/>
    </contour>
    <contour>
      <point x="239" y="332" type="line"/>
      <point x="505" y="674" type="line"/>
      <point x="427" y="674" type="line"/>
      <point x="160" y="332" type="line"/>
    </contour>
  </outline>
</glyph>
<glyph name="kcommaaccent" format="1">
  <advance width="462"/>
  <unicode hex="0137"/>
  <outline>
    <contour>
      <point x="109" y="-238" type="line"/>
      <point x="163" y="-238" type="line"/>
      <point x="273" y="-51" type="line"/>
      <point x="197" y="-51" type="line"/>
    </contour>
    <contour>
      <point x="364" y="0" type="line"/>
      <point x="440" y="0" type="line"/>
      <point x="226" y="266" type="line"/>
      <point x="152" y="266" type="line"/>
    </contour>
    <contour>
      <point x="76" y="0" type="line"/>
      <point x="137" y="0" type="line"/>
      <point x="137" y="707" type="line"/>
      <point x="76" y="707" type="line"/>
    </contour>
    <contour>
      <point x="152" y="266" type="line"/>
      <point x="226" y="266" type="line"/>
      <point x="433" y="507" type="line"/>
      <point x="358" y="507" type="line"/>
    </contour>
  </outline>
</glyph>
<glyph name="lcommaaccent" format="1">
  <advance width="221"/>
  <unicode hex="013C"/>
  <outline>
    <contour>
      <point x="80" y="0" type="line"/>
      <point x="141" y="0" type="line"/>
      <point x="141" y="707" type="line"/>
      <point x="80" y="707" type="line"/>
    </contour>
    <contour>
      <point x="-14" y="-238" type="line"/>
      <point x="40" y="-238" type="line"/>
      <point x="150" y="-51" type="line"/>
      <point x="74" y="-51" type="line"/>
    </contour>
  </outline>
</glyph>
<glyph name="Lcaron" format="1">
  <advance width="474"/>
  <unicode hex="013D"/>
  <outline>
    <contour>
      <point x="80" y="674" type="line"/>
      <point x="142" y="674" type="line"/>
      <point x="142" y="0" type="line"/>
      <point x="80" y="0" type="line"/>
    </contour>
    <contour>
      <point x="88" y="57" type="line"/>
      <point x="439" y="57" type="line"/>
      <point x="439" y="0" type="line"/>
      <point x="88" y="0" type="line"/>
    </contour>
    <contour>
      <point x="240" y="515" type="line"/>
      <point x="294" y="515" type="line"/>
      <point x="404" y="702" type="line"/>
      <point x="328" y="702" type="line"/>
    </contour>
  </outline>
</glyph>
<glyph name="Lslash" format="1">
  <advance width="483"/>
  <unicode hex="0141"/>
  <outline>
    <contour>
      <point x="89" y="674" type="line"/>
      <point x="151" y="674" type="line"/>
      <point x="151" y="0" type="line"/>
      <point x="89" y="0" type="line"/>
    </contour>
    <contour>
      <point x="97" y="57" type="line"/>
      <point x="448" y="57" type="line"/>
      <point x="448" y="0" type="line"/>
      <point x="97" y="0" type="line"/>
    </contour>
    <contour>
      <point x="25" y="208" type="line"/>
      <point x="25" y="274" type="line"/>
      <point x="297" y="476" type="line"/>
      <point x="297" y="410" type="line"/>
    </contour>
  </outline>
</glyph>
<glyph name="Rcommaaccent" format="1">
  <advance width="531"/>
  <unicode hex="0156"/>
  <outline>
    <contour>
      <point x="155" y="-238" type="line"/>
      <point x="209" y="-238" type="line"/>
      <point x="319" y="-51" type="line"/>
      <point x="243" y="-51" type="line"/>
    </contour>
    <contour>
      <point x="244" y="306" type="line"/>
      <point x="432" y="0" type="line"/>
      <point x="506" y="0" type="line"/>
      <point x="314" y="306" type="line"/>
    </contour>
    <contour>
      <point x="405" y="472" type="curve" smooth="yes"/>
      <point x="405" y="395"/>
      <point x="354" y="329"/>
      <point x="251" y="329" type="curve" smooth="yes"/>
      <point x="80" y="329" type="line"/>
      <point x="80" y="274" type="line"/>
      <point x="244" y="274" type="line" smooth="yes"/>
      <point x="391" y="274"/>
      <point x="463" y="357"/>
      <point x="467" y="469" type="curve"/>
      <point x="467" y="596"/>
      <point x="393" y="674"/>
      <point x="232" y="674" type="curve" smooth="yes"/>
      <point x="80" y="674" type="line"/>
      <point x="80" y="619" type="line"/>
      <point x="239" y="619" type="line" smooth="yes"/>
      <point x="353" y="619"/>
      <point x="405" y="568"/>
    </contour>
    <contour>
      <point x="80" y="0" type="line"/>
      <point x="142" y="0" type="line"/>
      <point x="142" y="674" type="line"/>
      <point x="80" y="674" type="line"/>
    </contour>
  </outline>
</glyph>
<glyph name="rcommaaccent" format="1">
  <advance width="314"/>
  <unicode hex="0157"/>
  <outline>
    <contour>
      <point x="76" y="0" type="line"/>
      <point x="137" y="0" type="line"/>
      <point x="137" y="507" type="line"/>
      <point x="76" y="507" type="line"/>
    </contour>
    <contour>
      <point x="304" y="511" type="line"/>
      <point x="295" y="512"/>
      <point x="287" y="513"/>
      <point x="279" y="513" type="curve" smooth="yes"/>
      <point x="154" y="513"/>
      <point x="114" y="406"/>
      <point x="110" y="280" type="curve"/>
      <point x="137" y="283" type="line"/>
      <point x="137" y="365"/>
      <point x="188" y="455"/>
      <point x="264" y="455" type="curve" smooth="yes"/>
      <point x="279" y="455"/>
      <point x="291" y="453"/>
      <point x="304" y="449" type="curve"/>
    </contour>
    <contour>
      <point x="-20" y="-238" type="line"/>
      <point x="34" y="-238" type="line"/>
      <point x="144" y="-51" type="line"/>
      <point x="68" y="-51" type="line"/>
    </contour>
  </outline>
</glyph>
<glyph name="florin" format="1">
  <advance width="357"/>
  <unicode hex="0192"/>
  <outline>
    <contour>
      <point x="392" y="613" type="line"/>
      <point x="376" y="619"/>
      <point x="358" y="623"/>
      <point x="335" y="623" type="curve" smooth="yes"/>
      <point x="284" y="623"/>
      <point x="255" y="584"/>
      <point x="241" y="507" type="curve" smooth="yes"/>
      <point x="135" y="-90" type="line" smooth="yes"/>
      <point x="116" y="-199"/>
      <point x="74" y="-257"/>
      <point x="-15" y="-257" type="curve" smooth="yes"/>
      <point x="-32" y="-257"/>
      <point x="-61" y="-254"/>
      <point x="-76" y="-249" type="curve"/>
      <point x="-76" y="-189" type="line"/>
      <point x="-60" y="-195"/>
      <point x="-42" y="-199"/>
      <point x="-19" y="-199" type="curve" smooth="yes"/>
      <point x="32" y="-199"/>
      <point x="61" y="-160"/>
      <point x="75" y="-83" type="curve" smooth="yes"/>
      <point x="181" y="514" type="line" smooth="yes"/>
      <point x="200" y="623"/>
      <point x="242" y="681"/>
      <point x="331" y="681" type="curve" smooth="yes"/>
      <point x="348" y="681"/>
      <point x="377" y="678"/>
      <point x="392" y="673" type="curve"/>
    </contour>
    <contour>
      <point x="46" y="367" type="line"/>
      <point x="316" y="367" type="line"/>
      <point x="316" y="315" type="line"/>
      <point x="46" y="315" type="line"/>
    </contour>
  </outline>
</glyph>
<glyph name="Tcommaaccent" format="1">
  <advance width="465"/>
  <unicode hex="021A"/>
  <outline>
    <contour>
      <point x="201" y="0" type="line"/>
      <point x="263" y="0" type="line"/>
      <point x="263" y="674" type="line"/>
      <point x="201" y="674" type="line"/>
    </contour>
    <contour>
      <point x="15" y="617" type="line"/>
      <point x="450" y="617" type="line"/>
      <point x="450" y="674" type="line"/>
      <point x="15" y="674" type="line"/>
    </contour>
    <contour>
      <point x="103" y="-238" type="line"/>
      <point x="157" y="-238" type="line"/>
      <point x="267" y="-51" type="line"/>
      <point x="191" y="-51" type="line"/>
    </contour>
  </outline>
</glyph>
<glyph name="circumflex" format="1">
  <advance width="400"/>
  <unicode hex="02C6"/>
  <outline>
    <contour>
      <point x="231" y="798" type="line"/>
      <point x="350" y="648" type="line"/>
      <point x="286" y="648" type="line"/>
      <point x="199" y="755" type="line"/>
      <point x="113" y="648" type="line"/>
      <point x="49" y="648" type="line"/>
      <point x="168" y="798" type="line"/>
    </contour>
  </outline>
</glyph>
<glyph name="caron" format="1">
  <advance width="400"/>
  <unicode hex="02C7"/>
  <outline>
    <contour>
      <point x="168" y="648" type="line"/>
      <point x="49" y="798" type="line"/>
      <point x="113" y="798" type="line"/>
      <point x="200" y="691" type="line"/>
      <point x="286" y="798" type="line"/>
      <point x="350" y="798" type="line"/>
      <point x="231" y="648" type="line"/>
    </contour>
  </outline>
</glyph>
<glyph name="breve" format="1">
  <advance width="400"/>
  <unicode hex="02D8"/>
  <outline>
    <contour>
      <point x="200" y="693" type="curve" smooth="yes"/>
      <point x="279" y="693"/>
      <point x="303" y="743"/>
      <point x="303" y="798" type="curve"/>
      <point x="355" y="798" type="line"/>
      <point x="355" y="715"/>
      <point x="315" y="645"/>
      <point x="200" y="645" type="curve"/>
      <point x="85" y="645"/>
      <point x="45" y="715"/>
      <point x="45" y="798" type="curve"/>
      <point x="97" y="798" type="line"/>
      <point x="97" y="743"/>
      <point x="121" y="693"/>
    </contour>
  </outline>
</glyph>
<glyph name="hungarumlaut" format="1">
  <advance width="400"/>
  <unicode hex="02DD"/>
  <outline>
    <contour>
      <point x="182" y="648" type="line"/>
      <point x="231" y="648" type="line"/>
      <point x="366" y="798" type="line"/>
      <point x="285" y="798" type="line"/>
    </contour>
    <contour>
      <point x="34" y="648" type="line"/>
      <point x="83" y="648" type="line"/>
      <point x="214" y="798" type="line"/>
      <point x="133" y="798" type="line"/>
    </contour>
  </outline>
</glyph>
<glyph name="dvAnusvara" format="1">
  <advance width="0"/>
  <unicode hex="0902"/>
  <outline>
    <contour>
      <point x="-100" y="634" type="move" name="_abvm.bindu"/>
    </contour>
    <contour>
      <point x="-180" y="774" type="curve" smooth="yes"/>
      <point x="-180" y="747"/>
      <point x="-161" y="728"/>
      <point x="-134" y="728" type="curve" smooth="yes"/>
      <point x="-107" y="728"/>
      <point x="-86" y="747"/>
      <point x="-86" y="774" type="curve" smooth="yes"/>
      <point x="-86" y="800"/>
      <point x="-107" y="821"/>
      <point x="-134" y="821" type="curve" smooth="yes"/>
      <point x="-161" y="821"/>
      <point x="-180" y="800"/>
    </contour>
  </outline>
</glyph>
<glyph name="dvA" format="1">
  <advance width="647"/>
  <unicode hex="0905"/>
  <outline>
    <contour>
      <point x="410" y="634" type="move" name="abvm.bindu"/>
    </contour>
    <contour>
      <point x="410" y="634" type="move" name="abvm.candra"/>
    </contour>
    <contour>
      <point x="486" y="579" type="line"/>
      <point x="486" y="0" type="line"/>
      <point x="547" y="0" type="line"/>
      <point x="547" y="579" type="line"/>
    </contour>
    <contour>
      <point x="30" y="104" type="line"/>
      <point x="60" y="90"/>
      <point x="103" y="79"/>
      <point x="148" y="79" type="curve" smooth="yes"/>
      <point x="269" y="79"/>
      <point x="341" y="147"/>
      <point x="341" y="241" type="curve" smooth="yes"/>
      <point x="341" y="315"/>
      <point x="294" y="363"/>
      <point x="232" y="372" type="curve"/>
      <point x="280" y="385"/>
      <point x="321" y="426"/>
      <point x="321" y="496" type="curve" smooth="yes"/>
      <point x="321" y="576"/>
      <point x="264" y="631"/>
      <point x="157" y="631" type="curve" smooth="yes"/>
      <point x="120" y="631"/>
      <point x="88" y="623"/>
      <point x="64" y="613" type="curve"/>
      <point x="64" y="554" type="line"/>
      <point x="84" y="565"/>
      <point x="121" y="577"/>
      <point x="159" y="577" type="curve" smooth="yes"/>
      <point x="229" y="577"/>
      <point x="259" y="545"/>
      <point x="259" y="490" type="curve" smooth="yes"/>
      <point x="259" y="437"/>
      <point x="224" y="398"/>
      <point x="146" y="398" type="curve" smooth="yes"/>
      <point x="113" y="398" type="line"/>
      <point x="113" y="341" type="line"/>
      <point x="146" y="341" type="line" smooth="yes"/>
      <point x="233" y="341"/>
      <point x="279" y="304"/>
      <point x="279" y="244" type="curve" smooth="yes"/>
      <point x="279" y="160"/>
      <point x="204" y="133"/>
      <point x="149" y="133" type="curve" smooth="yes"/>
      <point x="97" y="133"/>
      <point x="65" y="146"/>
      <point x="30" y="163" type="curve"/>
    </contour>
    <contour>
      <point x="392" y="579" type="line"/>
      <point x="667" y="579" type="line"/>
      <point x="667" y="634" type="line"/>
      <point x="392" y="634" type="line"/>
    </contour>
    <contour>
      <point x="504" y="268" type="line"/>
      <point x="504" y="323" type="line"/>
      <point x="302" y="323" type="line"/>
      <point x="302" y="268" type="line"/>
    </contour>
  </outline>
</glyph>
<glyph name="dvAA" format="1">
  <advance width="909"/>
  <unicode hex="0906"/>
  <outline>
    <contour>
      <point x="687" y="634" type="move" name="abvm.bindu"/>
    </contour>
    <contour>
      <point x="687" y="634" type="move" name="abvm.candra"/>
    </contour>
    <component base="dvA"/>
    <component base="dvmAA" xOffset="647"/>
  </outline>
</glyph>
<glyph name="dvI" format="1">
  <advance width="468"/>
  <unicode hex="0907"/>
  <outline>
    <contour>
      <point x="275" y="634" type="move" name="abvm.bindu"/>
    </contour>
    <contour>
      <point x="275" y="634" type="move" name="abvm.candra"/>
    </contour>
    <contour>
      <point x="438" y="156" type="curve" smooth="yes"/>
      <point x="438" y="244"/>
      <point x="376" y="283"/>
      <point x="269" y="292" type="curve" smooth="yes"/>
      <point x="169" y="300"/>
      <point x="130" y="319"/>
      <point x="130" y="364" type="curve" smooth="yes"/>
      <point x="130" y="407"/>
      <point x="168" y="432"/>
      <point x="231" y="432" type="curve" smooth="yes"/>
      <point x="379" y="432" type="line"/>
      <point x="365" y="487" type="line"/>
      <point x="226" y="487" type="line" smooth="yes"/>
      <point x="131" y="487"/>
      <point x="68" y="439"/>
      <point x="68" y="363" type="curve" smooth="yes"/>
      <point x="68" y="277"/>
      <point x="147" y="247"/>
      <point x="253" y="240" type="curve" smooth="yes"/>
      <point x="349" y="234"/>
      <point x="376" y="201"/>
      <point x="376" y="156" type="curve" smooth="yes"/>
      <point x="376" y="100"/>
      <point x="335" y="63"/>
      <point x="276" y="63" type="curve" smooth="yes"/>
      <point x="208" y="63"/>
      <point x="148" y="107"/>
      <point x="125" y="165" type="curve"/>
      <point x="125" y="72" type="line"/>
      <point x="158" y="32"/>
      <point x="216" y="9"/>
      <point x="276" y="9" type="curve" smooth="yes"/>
      <point x="369" y="9"/>
      <point x="438" y="72"/>
    </contour>
    <contour>
      <point x="-20" y="579" type="line"/>
      <point x="317" y="579" type="line"/>
      <point x="317" y="478" type="line"/>
      <point x="379" y="432" type="line"/>
      <point x="379" y="579" type="line"/>
      <point x="488" y="579" type="line"/>
      <point x="488" y="634" type="line"/>
      <point x="-20" y="634" type="line"/>
    </contour>
    <contour>
      <point x="70" y="-57" type="line"/>
      <point x="130" y="-57" type="line"/>
      <point x="130" y="106" type="line"/>
      <point x="125" y="165" type="line"/>
      <point x="70" y="165" type="line"/>
    </contour>
  </outline>
</glyph>
<glyph name="dvII" format="1">
  <advance width="468"/>
  <unicode hex="0908"/>
  <outline>
    <contour>
      <point x="400" y="803" type="curve" smooth="yes"/>
      <point x="422" y="803"/>
      <point x="442" y="798"/>
      <point x="456" y="792" type="curve"/>
      <point x="456" y="848" type="line"/>
      <point x="443" y="854"/>
      <point x="422" y="858"/>
      <point x="400" y="858" type="curve" smooth="yes"/>
      <point x="309" y="858"/>
      <point x="264" y="793"/>
      <point x="264" y="729" type="curve" smooth="yes"/>
      <point x="264" y="682"/>
      <point x="283" y="645"/>
      <point x="310" y="623" type="curve"/>
      <point x="379" y="623" type="line"/>
      <point x="354" y="643"/>
      <point x="326" y="684"/>
      <point x="326" y="724" type="curve" smooth="yes"/>
      <point x="326" y="772"/>
      <point x="353" y="803"/>
    </contour>
    <contour>
      <point x="438" y="156" type="curve" smooth="yes"/>
      <point x="438" y="244"/>
      <point x="376" y="283"/>
      <point x="269" y="292" type="curve" smooth="yes"/>
      <point x="169" y="300"/>
      <point x="130" y="319"/>
      <point x="130" y="364" type="curve" smooth="yes"/>
      <point x="130" y="407"/>
      <point x="168" y="432"/>
      <point x="231" y="432" type="curve" smooth="yes"/>
      <point x="379" y="432" type="line"/>
      <point x="365" y="487" type="line"/>
      <point x="226" y="487" type="line" smooth="yes"/>
      <point x="131" y="487"/>
      <point x="68" y="439"/>
      <point x="68" y="363" type="curve" smooth="yes"/>
      <point x="68" y="277"/>
      <point x="147" y="247"/>
      <point x="253" y="240" type="curve" smooth="yes"/>
      <point x="349" y="234"/>
      <point x="376" y="201"/>
      <point x="376" y="156" type="curve" smooth="yes"/>
      <point x="376" y="100"/>
      <point x="335" y="63"/>
      <point x="276" y="63" type="curve" smooth="yes"/>
      <point x="208" y="63"/>
      <point x="148" y="107"/>
      <point x="125" y="165" type="curve"/>
      <point x="125" y="72" type="line"/>
      <point x="158" y="32"/>
      <point x="216" y="9"/>
      <point x="276" y="9" type="curve" smooth="yes"/>
      <point x="369" y="9"/>
      <point x="438" y="72"/>
    </contour>
    <contour>
      <point x="-20" y="579" type="line"/>
      <point x="317" y="579" type="line"/>
      <point x="317" y="478" type="line"/>
      <point x="379" y="432" type="line"/>
      <point x="379" y="579" type="line"/>
      <point x="488" y="579" type="line"/>
      <point x="488" y="634" type="line"/>
      <point x="-20" y="634" type="line"/>
    </contour>
    <contour>
      <point x="70" y="-57" type="line"/>
      <point x="130" y="-57" type="line"/>
      <point x="130" y="106" type="line"/>
      <point x="125" y="165" type="line"/>
      <point x="70" y="165" type="line"/>
    </contour>
  </outline>
</glyph>
<glyph name="dvUU" format="1">
  <advance width="684"/>
  <unicode hex="090A"/>
  <outline>
    <contour>
      <point x="390" y="634" type="move" name="abvm.bindu"/>
    </contour>
    <contour>
      <point x="390" y="634" type="move" name="abvm.candra"/>
    </contour>
    <contour>
      <point x="465" y="37" type="line"/>
      <point x="470" y="35"/>
      <point x="478" y="34"/>
      <point x="485" y="34" type="curve" smooth="yes"/>
      <point x="588" y="34"/>
      <point x="654" y="111"/>
      <point x="654" y="220" type="curve" smooth="yes"/>
      <point x="654" y="325"/>
      <point x="598" y="398"/>
      <point x="483" y="398" type="curve" smooth="yes"/>
      <point x="417" y="398"/>
      <point x="344" y="342"/>
      <point x="340" y="265" type="curve"/>
      <point x="379" y="201" type="line"/>
      <point x="380" y="274"/>
      <point x="416" y="345"/>
      <point x="487" y="345" type="curve" smooth="yes"/>
      <point x="561" y="345"/>
      <point x="592" y="291"/>
      <point x="592" y="220" type="curve" smooth="yes"/>
      <point x="592" y="136"/>
      <point x="552" y="87"/>
      <point x="482" y="87" type="curve" smooth="yes"/>
      <point x="477" y="87"/>
      <point x="469" y="88"/>
      <point x="465" y="89" type="curve"/>
    </contour>
    <contour>
      <point x="229" y="587" type="line"/>
      <point x="259" y="570"/>
      <point x="284" y="524"/>
      <point x="284" y="481" type="curve" smooth="yes"/>
      <point x="284" y="418"/>
      <point x="253" y="372"/>
      <point x="161" y="372" type="curve" smooth="yes"/>
      <point x="111" y="372" type="line"/>
      <point x="111" y="317" type="line"/>
      <point x="158" y="317" type="line" smooth="yes"/>
      <point x="245" y="317"/>
      <point x="317" y="276"/>
      <point x="317" y="198" type="curve" smooth="yes"/>
      <point x="317" y="112"/>
      <point x="247" y="75"/>
      <point x="160" y="75" type="curve" smooth="yes"/>
      <point x="102" y="75"/>
      <point x="61" y="90"/>
      <point x="30" y="105" type="curve"/>
      <point x="30" y="48" type="line"/>
      <point x="69" y="34"/>
      <point x="111" y="22"/>
      <point x="166" y="22" type="curve" smooth="yes"/>
      <point x="307" y="22"/>
      <point x="379" y="97"/>
      <point x="379" y="195" type="curve" smooth="yes"/>
      <point x="379" y="290"/>
      <point x="304" y="340"/>
      <point x="249" y="345" type="curve"/>
      <point x="305" y="364"/>
      <point x="346" y="408"/>
      <point x="346" y="482" type="curve" smooth="yes"/>
      <point x="346" y="525"/>
      <point x="326" y="567"/>
      <point x="299" y="587" type="curve"/>
    </contour>
    <contour>
      <point x="703" y="579" type="line"/>
      <point x="703" y="634" type="line"/>
      <point x="-20" y="634" type="line"/>
      <point x="-20" y="579" type="line"/>
    </contour>
  </outline>
</glyph>
<glyph name="dvvR" format="1">
  <advance width="792"/>
  <unicode hex="090B"/>
  <outline>
    <contour>
      <point x="421" y="634" type="move" name="abvm.bindu"/>
    </contour>
    <contour>
      <point x="421" y="634" type="move" name="abvm.candra"/>
    </contour>
    <contour>
      <point x="812" y="579" type="line"/>
      <point x="812" y="634" type="line"/>
      <point x="-20" y="634" type="line"/>
      <point x="-20" y="579" type="line"/>
    </contour>
    <contour>
      <point x="421" y="0" type="line"/>
      <point x="421" y="579" type="line"/>
      <point x="359" y="579" type="line"/>
      <point x="359" y="0" type="line"/>
    </contour>
    <contour>
      <point x="631" y="480" type="line"/>
      <point x="576" y="480" type="line"/>
      <point x="576" y="386" type="line" smooth="yes"/>
      <point x="576" y="327"/>
      <point x="600" y="278"/>
      <point x="672" y="278" type="curve"/>
      <point x="725" y="303" type="line"/>
      <point x="659" y="303"/>
      <point x="631" y="329"/>
      <point x="631" y="387" type="curve" smooth="yes"/>
    </contour>
    <contour>
      <point x="772" y="116" type="line"/>
      <point x="746" y="104"/>
      <point x="715" y="95"/>
      <point x="683" y="95" type="curve" smooth="yes"/>
      <point x="636" y="95"/>
      <point x="593" y="116"/>
      <point x="593" y="168" type="curve" smooth="yes"/>
      <point x="593" y="219"/>
      <point x="632" y="250"/>
      <point x="692" y="250" type="curve" smooth="yes"/>
      <point x="727" y="250" type="line"/>
      <point x="727" y="303" type="line"/>
      <point x="684" y="303" type="line"/>
      <point x="676" y="296" type="line"/>
      <point x="582" y="296"/>
      <point x="531" y="235"/>
      <point x="531" y="167" type="curve" smooth="yes"/>
      <point x="531" y="83"/>
      <point x="599" y="42"/>
      <point x="675" y="42" type="curve" smooth="yes"/>
      <point x="711" y="42"/>
      <point x="743" y="48"/>
      <point x="772" y="63" type="curve"/>
    </contour>
    <contour>
      <point x="415" y="269" type="line"/>
      <point x="613" y="385" type="line"/>
      <point x="579" y="427" type="line"/>
      <point x="415" y="332" type="line"/>
    </contour>
    <contour>
      <point x="133" y="393" type="curve"/>
      <point x="231" y="392"/>
      <point x="266" y="320"/>
      <point x="289" y="238" type="curve"/>
      <point x="340" y="269" type="line"/>
      <point x="307" y="397"/>
      <point x="227" y="453"/>
      <point x="134" y="453" type="curve" smooth="yes"/>
      <point x="95" y="453"/>
      <point x="59" y="445"/>
      <point x="30" y="431" type="curve"/>
      <point x="30" y="369" type="line"/>
      <point x="56" y="381"/>
      <point x="82" y="392"/>
    </contour>
    <contour>
      <point x="392" y="325" type="line"/>
      <point x="44" y="115" type="line"/>
      <point x="44" y="47" type="line"/>
      <point x="392" y="260" type="line"/>
    </contour>
  </outline>
</glyph>
<glyph name="dvvL" format="1">
  <advance width="745"/>
  <unicode hex="090C"/>
  <outline>
    <contour>
      <point x="132" y="261" type="curve" smooth="yes"/>
      <point x="132" y="362"/>
      <point x="183" y="414"/>
      <point x="243" y="414" type="curve" smooth="yes"/>
      <point x="302" y="414"/>
      <point x="337" y="374"/>
      <point x="337" y="285" type="curve" smooth="yes"/>
      <point x="337" y="210" type="line"/>
      <point x="398" y="210" type="line"/>
      <point x="398" y="284" type="line" smooth="yes"/>
      <point x="398" y="378"/>
      <point x="444" y="417"/>
      <point x="510" y="417" type="curve" smooth="yes"/>
      <point x="564" y="417"/>
      <point x="596" y="389"/>
      <point x="596" y="389" type="curve"/>
      <point x="596" y="447" type="line"/>
      <point x="596" y="447"/>
      <point x="564" y="469"/>
      <point x="505" y="469" type="curve" smooth="yes"/>
      <point x="430" y="469"/>
      <point x="383" y="433"/>
      <point x="369" y="371" type="curve"/>
      <point x="355" y="433"/>
      <point x="307" y="466"/>
      <point x="237" y="466" type="curve" smooth="yes"/>
      <point x="136" y="466"/>
      <point x="70" y="379"/>
      <point x="70" y="262" type="curve" smooth="yes"/>
      <point x="70" y="116"/>
      <point x="160" y="0"/>
      <point x="300" y="0" type="curve" smooth="yes"/>
      <point x="323" y="0"/>
      <point x="344" y="3"/>
      <point x="358" y="8" type="curve"/>
      <point x="358" y="61" type="line"/>
      <point x="345" y="55"/>
      <point x="328" y="52"/>
      <point x="309" y="52" type="curve" smooth="yes"/>
      <point x="187" y="52"/>
      <point x="132" y="152"/>
    </contour>
    <contour>
      <point x="647" y="163" type="curve"/>
      <point x="647" y="579" type="line"/>
      <point x="585" y="579" type="line"/>
      <point x="585" y="205" type="line"/>
      <point x="514" y="189"/>
      <point x="472" y="142"/>
      <point x="472" y="77" type="curve" smooth="yes"/>
      <point x="472" y="-11"/>
      <point x="546" y="-56"/>
      <point x="642" y="-56" type="curve" smooth="yes"/>
      <point x="668" y="-56"/>
      <point x="693" y="-50"/>
      <point x="715" y="-44" type="curve"/>
      <point x="715" y="10" type="line"/>
      <point x="686" y="0"/>
      <point x="666" y="-4"/>
      <point x="632" y="-4" type="curve" smooth="yes"/>
      <point x="565" y="-4"/>
      <point x="533" y="31"/>
      <point x="533" y="71" type="curve" smooth="yes"/>
      <point x="533" y="117"/>
      <point x="562" y="160"/>
    </contour>
    <contour>
      <point x="-20" y="579" type="line"/>
      <point x="765" y="579" type="line"/>
      <point x="765" y="634" type="line"/>
      <point x="-20" y="634" type="line"/>
    </contour>
  </outline>
</glyph>
<glyph name="dvOcandra" format="1">
  <advance width="908"/>
  <unicode hex="0911"/>
  <outline>
    <contour>
      <point x="696" y="821" type="move" name="abvm.bindu"/>
    </contour>
    <contour>
      <point x="657" y="741" type="curve" smooth="yes"/>
      <point x="743" y="741"/>
      <point x="823" y="788"/>
      <point x="823" y="889" type="curve"/>
      <point x="761" y="889" type="line"/>
      <point x="761" y="836"/>
      <point x="725" y="793"/>
      <point x="657" y="793" type="curve" smooth="yes"/>
      <point x="590" y="793"/>
      <point x="554" y="836"/>
      <point x="554" y="889" type="curve"/>
      <point x="492" y="889" type="line"/>
      <point x="492" y="786"/>
      <point x="572" y="741"/>
    </contour>
    <component base="dvA"/>
    <component base="dvmAA" xOffset="646"/>
  </outline>
</glyph>
<glyph name="dvKHA" format="1">
  <advance width="763"/>
  <unicode hex="0916"/>
  <outline>
    <contour>
      <point x="663" y="0" type="line"/>
      <point x="663" y="579" type="line"/>
      <point x="601" y="579" type="line"/>
      <point x="601" y="0" type="line"/>
    </contour>
    <contour>
      <point x="527" y="456" type="line"/>
      <point x="512" y="460"/>
      <point x="492" y="462"/>
      <point x="474" y="462" type="curve" smooth="yes"/>
      <point x="390" y="462"/>
      <point x="312" y="404"/>
      <point x="312" y="299" type="curve" smooth="yes"/>
      <point x="312" y="203"/>
      <point x="389" y="140"/>
      <point x="475" y="140" type="curve" smooth="yes"/>
      <point x="552" y="140"/>
      <point x="623" y="179"/>
      <point x="645" y="300" type="curve"/>
      <point x="601" y="312" type="line"/>
      <point x="601" y="240"/>
      <point x="546" y="192"/>
      <point x="485" y="192" type="curve" smooth="yes"/>
      <point x="419" y="192"/>
      <point x="374" y="234"/>
      <point x="374" y="299" type="curve" smooth="yes"/>
      <point x="374" y="365"/>
      <point x="423" y="408"/>
      <point x="482" y="408" type="curve" smooth="yes"/>
      <point x="497" y="408"/>
      <point x="511" y="407"/>
      <point x="527" y="402" type="curve"/>
    </contour>
    <contour>
      <point x="783" y="579" type="line"/>
      <point x="783" y="634" type="line"/>
      <point x="343" y="634" type="line"/>
      <point x="343" y="579" type="line"/>
    </contour>
    <contour>
      <point x="30" y="285" type="line"/>
      <point x="250" y="0" type="line"/>
      <point x="327" y="0" type="line"/>
      <point x="103" y="283" type="line"/>
      <point x="115" y="283" type="line" smooth="yes"/>
      <point x="214" y="283"/>
      <point x="286" y="334"/>
      <point x="286" y="433" type="curve" smooth="yes"/>
      <point x="286" y="579" type="line"/>
      <point x="383" y="579" type="line"/>
      <point x="383" y="634" type="line"/>
      <point x="-20" y="634" type="line"/>
      <point x="-20" y="579" type="line"/>
      <point x="224" y="579" type="line"/>
      <point x="224" y="440" type="line" smooth="yes"/>
      <point x="224" y="376"/>
      <point x="189" y="338"/>
      <point x="95" y="338" type="curve" smooth="yes"/>
      <point x="30" y="338" type="line"/>
    </contour>
  </outline>
</glyph>
<glyph name="dvGHA" format="1">
  <advance width="643"/>
  <unicode hex="0918"/>
  <outline>
    <contour>
      <point x="482" y="327" type="line"/>
      <point x="482" y="240"/>
      <point x="391" y="152"/>
      <point x="270" y="152" type="curve" smooth="yes"/>
      <point x="209" y="152"/>
      <point x="142" y="178"/>
      <point x="142" y="245" type="curve" smooth="yes"/>
      <point x="142" y="310"/>
      <point x="192" y="344"/>
      <point x="270" y="344" type="curve" smooth="yes"/>
      <point x="332" y="344" type="line"/>
      <point x="332" y="399" type="line"/>
      <point x="281" y="399" type="line" smooth="yes"/>
      <point x="207" y="399"/>
      <point x="146" y="415"/>
      <point x="146" y="483" type="curve" smooth="yes"/>
      <point x="146" y="533"/>
      <point x="175" y="570"/>
      <point x="236" y="588" type="curve"/>
      <point x="143" y="588" type="line"/>
      <point x="102" y="562"/>
      <point x="84" y="527"/>
      <point x="84" y="484" type="curve" smooth="yes"/>
      <point x="84" y="411"/>
      <point x="143" y="377"/>
      <point x="186" y="370" type="curve"/>
      <point x="123" y="355"/>
      <point x="80" y="317"/>
      <point x="80" y="248" type="curve" smooth="yes"/>
      <point x="80" y="158"/>
      <point x="153" y="100"/>
      <point x="267" y="100" type="curve" smooth="yes"/>
      <point x="368" y="100"/>
      <point x="444" y="148"/>
      <point x="482" y="198" type="curve"/>
      <point x="482" y="0" type="line"/>
      <point x="543" y="0" type="line"/>
      <point x="543" y="587" type="line"/>
      <point x="482" y="587" type="line"/>
    </contour>
    <contour>
      <point x="663" y="579" type="line"/>
      <point x="663" y="634" type="line"/>
      <point x="-20" y="634" type="line"/>
      <point x="-20" y="579" type="line"/>
    </contour>
  </outline>
</glyph>
<glyph name="dvNGA" format="1">
  <advance width="553"/>
  <unicode hex="0919"/>
  <outline>
    <contour>
      <point x="390" y="634" type="move" name="abvm.bindu"/>
    </contour>
    <contour>
      <point x="390" y="634" type="move" name="abvm.candra"/>
    </contour>
    <contour>
      <point x="390" y="634" type="move" name="abvm.e"/>
    </contour>
    <contour>
      <point x="390" y="634" type="move" name="abvm.reph"/>
    </contour>
    <contour>
      <point x="228" y="-36" type="move" name="blwm.u"/>
    </contour>
    <contour>
      <point x="228" y="-1" type="move" name="blwm.virama"/>
    </contour>
    <contour>
      <point x="447" y="149" type="curve" smooth="yes"/>
      <point x="447" y="250"/>
      <point x="369" y="278"/>
      <point x="273" y="283" type="curve" smooth="yes"/>
      <point x="163" y="289"/>
      <point x="132" y="312"/>
      <point x="132" y="360" type="curve" smooth="yes"/>
      <point x="132" y="412"/>
      <point x="180" y="429"/>
      <point x="225" y="429" type="curve" smooth="yes"/>
      <point x="390" y="429" type="line"/>
      <point x="376" y="484" type="line"/>
      <point x="221" y="484" type="line" smooth="yes"/>
      <point x="133" y="484"/>
      <point x="70" y="441"/>
      <point x="70" y="358" type="curve" smooth="yes"/>
      <point x="70" y="280"/>
      <point x="125" y="237"/>
      <point x="247" y="231" type="curve" smooth="yes"/>
      <point x="344" y="226"/>
      <point x="383" y="203"/>
      <point x="383" y="149" type="curve" smooth="yes"/>
      <point x="383" y="84"/>
      <point x="330" y="51"/>
      <point x="253" y="51" type="curve" smooth="yes"/>
      <point x="191" y="51"/>
      <point x="116" y="75"/>
      <point x="71" y="103" type="curve"/>
      <point x="71" y="40" type="line"/>
      <point x="121" y="14"/>
      <point x="188" y="-1"/>
      <point x="253" y="-1" type="curve" smooth="yes"/>
      <point x="373" y="-1"/>
      <point x="447" y="61"/>
    </contour>
    <contour>
      <point x="-20" y="579" type="line"/>
      <point x="328" y="579" type="line"/>
      <point x="328" y="475" type="line"/>
      <point x="390" y="429" type="line"/>
      <point x="390" y="579" type="line"/>
      <point x="573" y="579" type="line"/>
      <point x="573" y="634" type="line"/>
      <point x="-20" y="634" type="line"/>
    </contour>
    <contour>
      <point x="449" y="343" type="curve" smooth="yes"/>
      <point x="449" y="316"/>
      <point x="468" y="297"/>
      <point x="495" y="297" type="curve" smooth="yes"/>
      <point x="522" y="297"/>
      <point x="543" y="316"/>
      <point x="543" y="343" type="curve" smooth="yes"/>
      <point x="543" y="369"/>
      <point x="522" y="390"/>
      <point x="495" y="390" type="curve" smooth="yes"/>
      <point x="468" y="390"/>
      <point x="449" y="369"/>
    </contour>
  </outline>
</glyph>
<glyph name="dvCA" format="1">
  <advance width="627"/>
  <unicode hex="091A"/>
  <outline>
    <contour>
      <point x="282" y="101" type="curve"/>
      <point x="388" y="103"/>
      <point x="453" y="158"/>
      <point x="476" y="216" type="curve"/>
      <point x="465" y="328" type="line"/>
      <point x="465" y="241"/>
      <point x="404" y="153"/>
      <point x="283" y="153" type="curve" smooth="yes"/>
      <point x="211" y="153"/>
      <point x="158" y="191"/>
      <point x="158" y="264" type="curve" smooth="yes"/>
      <point x="158" y="320"/>
      <point x="192" y="394"/>
      <point x="367" y="394" type="curve"/>
      <point x="367" y="394"/>
      <point x="230" y="411"/>
      <point x="230" y="411" type="curve"/>
      <point x="141" y="394"/>
      <point x="96" y="337"/>
      <point x="96" y="264" type="curve" smooth="yes"/>
      <point x="96" y="157"/>
      <point x="181" y="101"/>
    </contour>
    <contour>
      <point x="527" y="0" type="line"/>
      <point x="527" y="602" type="line"/>
      <point x="465" y="602" type="line"/>
      <point x="465" y="0" type="line"/>
    </contour>
    <contour>
      <point x="647" y="579" type="line"/>
      <point x="647" y="634" type="line"/>
      <point x="-20" y="634" type="line"/>
      <point x="-20" y="579" type="line"/>
    </contour>
    <contour>
      <point x="367" y="394" type="line"/>
      <point x="367" y="449" type="line"/>
      <point x="30" y="449" type="line"/>
      <point x="30" y="394" type="line"/>
    </contour>
  </outline>
</glyph>
<glyph name="dvJHA" format="1">
  <advance width="753"/>
  <unicode hex="091D"/>
  <outline>
    <contour>
      <point x="619" y="311" type="line"/>
      <point x="280" y="311" type="line"/>
      <point x="276" y="258" type="line"/>
      <point x="619" y="258" type="line"/>
    </contour>
    <contour>
      <point x="479" y="579" type="line"/>
      <point x="591" y="579" type="line"/>
      <point x="591" y="0" type="line"/>
      <point x="653" y="0" type="line"/>
      <point x="653" y="579" type="line"/>
      <point x="773" y="579" type="line"/>
      <point x="773" y="634" type="line"/>
      <point x="479" y="634" type="line"/>
    </contour>
    <contour>
      <point x="442" y="166" type="curve" smooth="yes"/>
      <point x="442" y="250"/>
      <point x="365" y="304"/>
      <point x="269" y="312" type="curve" smooth="yes"/>
      <point x="180" y="319"/>
      <point x="141" y="331"/>
      <point x="141" y="376" type="curve" smooth="yes"/>
      <point x="141" y="419"/>
      <point x="178" y="442"/>
      <point x="241" y="442" type="curve" smooth="yes"/>
      <point x="393" y="442" type="line"/>
      <point x="379" y="497" type="line"/>
      <point x="236" y="497" type="line" smooth="yes"/>
      <point x="141" y="497"/>
      <point x="79" y="451"/>
      <point x="79" y="375" type="curve" smooth="yes"/>
      <point x="79" y="289"/>
      <point x="153" y="267"/>
      <point x="253" y="260" type="curve" smooth="yes"/>
      <point x="349" y="253"/>
      <point x="380" y="211"/>
      <point x="380" y="166" type="curve" smooth="yes"/>
      <point x="380" y="108"/>
      <point x="340" y="73"/>
      <point x="280" y="73" type="curve" smooth="yes"/>
      <point x="213" y="73"/>
      <point x="148" y="118"/>
      <point x="125" y="175" type="curve"/>
      <point x="125" y="82" type="line"/>
      <point x="159" y="41"/>
      <point x="219" y="19"/>
      <point x="280" y="19" type="curve" smooth="yes"/>
      <point x="377" y="19"/>
      <point x="442" y="83"/>
    </contour>
    <contour>
      <point x="-20" y="579" type="line"/>
      <point x="331" y="579" type="line"/>
      <point x="331" y="488" type="line"/>
      <point x="393" y="442" type="line"/>
      <point x="393" y="579" type="line"/>
      <point x="488" y="579" type="line"/>
      <point x="488" y="634" type="line"/>
      <point x="-20" y="634" type="line"/>
    </contour>
    <contour>
      <point x="70" y="-47" type="line"/>
      <point x="130" y="-47" type="line"/>
      <point x="130" y="116" type="line"/>
      <point x="125" y="175" type="line"/>
      <point x="70" y="175" type="line"/>
    </contour>
  </outline>
</glyph>
<glyph name="dvTTA" format="1">
  <advance width="488"/>
  <unicode hex="091F"/>
  <outline>
    <contour>
      <point x="394" y="634" type="move" name="abvm.bindu"/>
    </contour>
    <contour>
      <point x="394" y="634" type="move" name="abvm.candra"/>
    </contour>
    <contour>
      <point x="394" y="634" type="move" name="abvm.e"/>
    </contour>
    <contour>
      <point x="394" y="634" type="move" name="abvm.reph"/>
    </contour>
    <contour>
      <point x="277" y="-10" type="move" name="blwm.u"/>
    </contour>
    <contour>
      <point x="277" y="25" type="move" name="blwm.virama"/>
    </contour>
    <contour>
      <point x="308" y="77" type="curve" smooth="yes"/>
      <point x="200" y="77"/>
      <point x="125" y="133"/>
      <point x="125" y="235" type="curve" smooth="yes"/>
      <point x="125" y="348"/>
      <point x="216" y="402"/>
      <point x="330" y="402" type="curve" smooth="yes"/>
      <point x="353" y="402"/>
      <point x="374" y="400"/>
      <point x="394" y="397" type="curve"/>
      <point x="394" y="579" type="line"/>
      <point x="508" y="579" type="line"/>
      <point x="508" y="634" type="line"/>
      <point x="-20" y="634" type="line"/>
      <point x="-20" y="579" type="line"/>
      <point x="332" y="579" type="line"/>
      <point x="332" y="452" type="line"/>
      <point x="323" y="453"/>
      <point x="313" y="453"/>
      <point x="304" y="453" type="curve" smooth="yes"/>
      <point x="167" y="453"/>
      <point x="60" y="368"/>
      <point x="60" y="235" type="curve" smooth="yes"/>
      <point x="60" y="101"/>
      <point x="166" y="25"/>
      <point x="307" y="25" type="curve" smooth="yes"/>
      <point x="363" y="25"/>
      <point x="420" y="42"/>
      <point x="448" y="57" type="curve"/>
      <point x="448" y="114" type="line"/>
      <point x="418" y="96"/>
      <point x="360" y="77"/>
    </contour>
  </outline>
</glyph>
<glyph name="dvTTHA" format="1">
  <advance width="561"/>
  <unicode hex="0920"/>
  <outline>
    <contour>
      <point x="331" y="634" type="move" name="abvm.bindu"/>
    </contour>
    <contour>
      <point x="331" y="634" type="move" name="abvm.candra"/>
    </contour>
    <contour>
      <point x="331" y="634" type="move" name="abvm.e"/>
    </contour>
    <contour>
      <point x="331" y="634" type="move" name="abvm.reph"/>
    </contour>
    <contour>
      <point x="246" y="28" type="move" name="blwm.u"/>
    </contour>
    <contour>
      <point x="246" y="63" type="move" name="blwm.virama"/>
    </contour>
    <contour>
      <point x="270" y="416" type="line"/>
      <point x="331" y="401" type="line"/>
      <point x="331" y="579" type="line"/>
      <point x="581" y="579" type="line"/>
      <point x="581" y="634" type="line"/>
      <point x="-20" y="634" type="line"/>
      <point x="-20" y="579" type="line"/>
      <point x="270" y="579" type="line"/>
    </contour>
    <contour>
      <point x="279" y="63" type="curve" smooth="yes"/>
      <point x="411" y="63"/>
      <point x="501" y="142"/>
      <point x="501" y="256" type="curve" smooth="yes"/>
      <point x="501" y="380"/>
      <point x="397" y="444"/>
      <point x="281" y="444" type="curve" smooth="yes"/>
      <point x="174" y="444"/>
      <point x="60" y="387"/>
      <point x="60" y="257" type="curve" smooth="yes"/>
      <point x="60" y="143"/>
      <point x="148" y="63"/>
    </contour>
    <contour>
      <point x="281" y="392" type="curve" smooth="yes"/>
      <point x="372" y="392"/>
      <point x="437" y="346"/>
      <point x="437" y="256" type="curve" smooth="yes"/>
      <point x="437" y="173"/>
      <point x="373" y="115"/>
      <point x="280" y="115" type="curve" smooth="yes"/>
      <point x="182" y="115"/>
      <point x="124" y="173"/>
      <point x="124" y="257" type="curve" smooth="yes"/>
      <point x="124" y="354"/>
      <point x="205" y="392"/>
    </contour>
  </outline>
</glyph>
<glyph name="dvTA" format="1">
  <advance width="582"/>
  <unicode hex="0924"/>
  <outline>
    <contour>
      <point x="431" y="391" type="line"/>
      <point x="431" y="446" type="line"/>
      <point x="309" y="446" type="line" smooth="yes"/>
      <point x="148" y="446"/>
      <point x="70" y="351"/>
      <point x="70" y="225" type="curve" smooth="yes"/>
      <point x="70" y="97"/>
      <point x="150" y="0"/>
      <point x="284" y="0" type="curve" smooth="yes"/>
      <point x="295" y="0"/>
      <point x="305" y="1"/>
      <point x="311" y="2" type="curve"/>
      <point x="311" y="56" type="line"/>
      <point x="306" y="55"/>
      <point x="294" y="54"/>
      <point x="287" y="54" type="curve" smooth="yes"/>
      <point x="182" y="54"/>
      <point x="133" y="124"/>
      <point x="133" y="224" type="curve" smooth="yes"/>
      <point x="133" y="334"/>
      <point x="196" y="391"/>
      <point x="320" y="391" type="curve" smooth="yes"/>
    </contour>
    <contour>
      <point x="421" y="0" type="line"/>
      <point x="482" y="0" type="line"/>
      <point x="482" y="579" type="line"/>
      <point x="421" y="579" type="line"/>
    </contour>
    <contour>
      <point x="-20" y="579" type="line"/>
      <point x="602" y="579" type="line"/>
      <point x="602" y="634" type="line"/>
      <point x="-20" y="634" type="line"/>
    </contour>
  </outline>
</glyph>
<glyph name="dvTHA" format="1">
  <advance width="630"/>
  <unicode hex="0925"/>
  <outline>
    <contour>
      <point x="348" y="507" type="curve" smooth="yes"/>
      <point x="348" y="575"/>
      <point x="304" y="639"/>
      <point x="213" y="639" type="curve" smooth="yes"/>
      <point x="131" y="639"/>
      <point x="78" y="581"/>
      <point x="78" y="520" type="curve" smooth="yes"/>
      <point x="78" y="483"/>
      <point x="87" y="468"/>
      <point x="91" y="457" type="curve"/>
      <point x="153" y="457" type="line"/>
      <point x="150" y="467"/>
      <point x="140" y="478"/>
      <point x="140" y="513" type="curve" smooth="yes"/>
      <point x="140" y="552"/>
      <point x="162" y="587"/>
      <point x="213" y="587" type="curve" smooth="yes"/>
      <point x="264" y="587"/>
      <point x="286" y="550"/>
      <point x="286" y="505" type="curve" smooth="yes"/>
      <point x="286" y="419"/>
      <point x="200" y="370"/>
      <point x="30" y="335" type="curve"/>
      <point x="48" y="174"/>
      <point x="158" y="113"/>
      <point x="273" y="113" type="curve" smooth="yes"/>
      <point x="376" y="113"/>
      <point x="449" y="177"/>
      <point x="469" y="220" type="curve"/>
      <point x="469" y="0" type="line"/>
      <point x="530" y="0" type="line"/>
      <point x="530" y="579" type="line"/>
      <point x="650" y="579" type="line"/>
      <point x="650" y="634" type="line"/>
      <point x="469" y="634" type="line"/>
      <point x="469" y="374" type="line" smooth="yes"/>
      <point x="469" y="234"/>
      <point x="374" y="166"/>
      <point x="273" y="166" type="curve" smooth="yes"/>
      <point x="183" y="166"/>
      <point x="122" y="209"/>
      <point x="103" y="298" type="curve"/>
      <point x="249" y="330"/>
      <point x="348" y="389"/>
    </contour>
  </outline>
</glyph>
<glyph name="dvPA" format="1">
  <advance width="547"/>
  <unicode hex="092A"/>
  <outline>
    <contour>
      <point x="567" y="579" type="line"/>
      <point x="567" y="634" type="line"/>
      <point x="-20" y="634" type="line"/>
      <point x="-20" y="579" type="line"/>
    </contour>
    <contour>
      <point x="248" y="177" type="curve"/>
      <point x="330" y="178"/>
      <point x="380" y="222"/>
      <point x="403" y="279" type="curve"/>
      <point x="385" y="383" type="line"/>
      <point x="385" y="284"/>
      <point x="319" y="229"/>
      <point x="247" y="229" type="curve" smooth="yes"/>
      <point x="170" y="229"/>
      <point x="132" y="269"/>
      <point x="132" y="375" type="curve" smooth="yes"/>
      <point x="132" y="588" type="line"/>
      <point x="70" y="588" type="line"/>
      <point x="70" y="375" type="line" smooth="yes"/>
      <point x="70" y="234"/>
      <point x="135" y="177"/>
    </contour>
    <contour>
      <point x="385" y="0" type="line"/>
      <point x="447" y="0" type="line"/>
      <point x="447" y="588" type="line"/>
      <point x="385" y="588" type="line"/>
    </contour>
  </outline>
</glyph>
<glyph name="dvBA" format="1">
  <advance width="611"/>
  <unicode hex="092C"/>
  <outline>
    <contour>
      <point x="511" y="0" type="line"/>
      <point x="511" y="634" type="line"/>
      <point x="450" y="634" type="line"/>
      <point x="450" y="0" type="line"/>
    </contour>
    <contour>
      <point x="265" y="83" type="curve" smooth="yes"/>
      <point x="368" y="83"/>
      <point x="444" y="141"/>
      <point x="461" y="198" type="curve"/>
      <point x="450" y="310" type="line"/>
      <point x="450" y="223"/>
      <point x="389" y="135"/>
      <point x="268" y="135" type="curve"/>
      <point x="181" y="135"/>
      <point x="119" y="198"/>
      <point x="119" y="286" type="curve" smooth="yes"/>
      <point x="119" y="377"/>
      <point x="175" y="439"/>
      <point x="279" y="439" type="curve" smooth="yes"/>
      <point x="302" y="439"/>
      <point x="329" y="435"/>
      <point x="359" y="425" type="curve"/>
      <point x="359" y="480" type="line"/>
      <point x="332" y="487"/>
      <point x="307" y="491"/>
      <point x="276" y="491" type="curve" smooth="yes"/>
      <point x="153" y="491"/>
      <point x="60" y="408"/>
      <point x="60" y="286" type="curve" smooth="yes"/>
      <point x="60" y="162"/>
      <point x="155" y="83"/>
    </contour>
    <contour>
      <point x="631" y="579" type="line"/>
      <point x="631" y="634" type="line"/>
      <point x="-20" y="634" type="line"/>
      <point x="-20" y="579" type="line"/>
    </contour>
    <contour>
      <point x="434" y="170" type="line"/>
      <point x="178" y="434" type="line"/>
      <point x="141" y="402" type="line"/>
      <point x="399" y="139" type="line"/>
    </contour>
  </outline>
</glyph>
<glyph name="dvYA" format="1">
  <advance width="623"/>
  <unicode hex="092F"/>
  <outline>
    <contour>
      <point x="296" y="130" type="curve" smooth="yes"/>
      <point x="371" y="130"/>
      <point x="428" y="156"/>
      <point x="462" y="201" type="curve"/>
      <point x="462" y="0" type="line"/>
      <point x="523" y="0" type="line"/>
      <point x="523" y="579" type="line"/>
      <point x="643" y="579" type="line"/>
      <point x="643" y="634" type="line"/>
      <point x="-20" y="634" type="line"/>
      <point x="-20" y="579" type="line"/>
      <point x="193" y="579" type="line"/>
      <point x="208" y="560"/>
      <point x="224" y="528"/>
      <point x="224" y="488" type="curve" smooth="yes"/>
      <point x="224" y="430"/>
      <point x="168" y="382"/>
      <point x="60" y="364" type="curve"/>
      <point x="80" y="210"/>
      <point x="178" y="130"/>
    </contour>
    <contour>
      <point x="299" y="182" type="curve" smooth="yes"/>
      <point x="215" y="182"/>
      <point x="150" y="242"/>
      <point x="133" y="321" type="curve"/>
      <point x="214" y="346"/>
      <point x="286" y="391"/>
      <point x="286" y="485" type="curve" smooth="yes"/>
      <point x="286" y="523"/>
      <point x="276" y="555"/>
      <point x="260" y="579" type="curve"/>
      <point x="462" y="579" type="line"/>
      <point x="462" y="327" type="line" smooth="yes"/>
      <point x="462" y="240"/>
      <point x="395" y="182"/>
    </contour>
  </outline>
</glyph>
<glyph name="dvRxA" format="1">
  <advance width="365"/>
  <unicode hex="0931"/>
  <outline>
    <contour>
      <point x="286" y="634" type="move" name="abvm.bindu"/>
    </contour>
    <contour>
      <point x="286" y="634" type="move" name="abvm.candra"/>
    </contour>
    <contour>
      <point x="286" y="634" type="move" name="abvm.e"/>
    </contour>
    <contour>
      <point x="286" y="634" type="move" name="abvm.reph"/>
    </contour>
    <contour>
      <point x="234" y="0" type="move" name="blwm.u"/>
    </contour>
    <contour>
      <point x="234" y="0" type="move" name="blwm.virama"/>
    </contour>
    <contour>
      <point x="-22" y="7" type="curve" smooth="yes"/>
      <point x="-22" y="-20"/>
      <point x="-3" y="-39"/>
      <point x="24" y="-39" type="curve" smooth="yes"/>
      <point x="51" y="-39"/>
      <point x="72" y="-20"/>
      <point x="72" y="7" type="curve" smooth="yes"/>
      <point x="72" y="33"/>
      <point x="51" y="54"/>
      <point x="24" y="54" type="curve" smooth="yes"/>
      <point x="-3" y="54"/>
      <point x="-22" y="33"/>
    </contour>
    <component base="dvRA"/>
  </outline>
</glyph>
<glyph name="dvLLA" format="1">
  <advance width="797"/>
  <unicode hex="0933"/>
  <outline>
    <contour>
      <point x="592" y="634" type="move" name="abvm.bindu"/>
    </contour>
    <contour>
      <point x="592" y="634" type="move" name="abvm.candra"/>
    </contour>
    <contour>
      <point x="592" y="634" type="move" name="abvm.e"/>
    </contour>
    <contour>
      <point x="592" y="634" type="move" name="abvm.reph"/>
    </contour>
    <contour>
      <point x="533" y="57" type="move" name="blwm.u"/>
    </contour>
    <contour>
      <point x="533" y="92" type="move" name="blwm.virama"/>
    </contour>
    <contour>
      <point x="558" y="92" type="curve" smooth="yes"/>
      <point x="662" y="92"/>
      <point x="747" y="165"/>
      <point x="747" y="279" type="curve" smooth="yes"/>
      <point x="747" y="382"/>
      <point x="671" y="456"/>
      <point x="556" y="456" type="curve" smooth="yes"/>
      <point x="477" y="456"/>
      <point x="433" y="426"/>
      <point x="406" y="385" type="curve"/>
      <point x="378" y="416"/>
      <point x="324" y="456"/>
      <point x="233" y="456" type="curve" smooth="yes"/>
      <point x="130" y="456"/>
      <point x="50" y="382"/>
      <point x="50" y="272" type="curve" smooth="yes"/>
      <point x="50" y="161"/>
      <point x="127" y="92"/>
      <point x="234" y="92" type="curve" smooth="yes"/>
      <point x="313" y="92"/>
      <point x="355" y="124"/>
      <point x="382" y="169" type="curve"/>
      <point x="419" y="125"/>
      <point x="477" y="92"/>
    </contour>
    <contour>
      <point x="555" y="404" type="curve" smooth="yes"/>
      <point x="636" y="404"/>
      <point x="685" y="354"/>
      <point x="685" y="279" type="curve" smooth="yes"/>
      <point x="685" y="199"/>
      <point x="635" y="146"/>
      <point x="555" y="146" type="curve" smooth="yes"/>
      <point x="492" y="146"/>
      <point x="441" y="180"/>
      <point x="408" y="222" type="curve"/>
      <point x="440" y="308"/>
      <point x="452" y="404"/>
    </contour>
    <contour>
      <point x="235" y="146" type="curve" smooth="yes"/>
      <point x="162" y="146"/>
      <point x="112" y="194"/>
      <point x="112" y="271" type="curve" smooth="yes"/>
      <point x="112" y="347"/>
      <point x="159" y="404"/>
      <point x="237" y="404" type="curve" smooth="yes"/>
      <point x="306" y="404"/>
      <point x="355" y="364"/>
      <point x="380" y="334" type="curve"/>
      <point x="346" y="247"/>
      <point x="339" y="146"/>
    </contour>
    <contour>
      <point x="531" y="409" type="line"/>
      <point x="592" y="409" type="line"/>
      <point x="592" y="592" type="line"/>
      <point x="531" y="592" type="line"/>
    </contour>
    <contour>
      <point x="-20" y="579" type="line"/>
      <point x="817" y="579" type="line"/>
      <point x="817" y="634" type="line"/>
      <point x="-20" y="634" type="line"/>
    </contour>
  </outline>
</glyph>
<glyph name="dvSHA" format="1">
  <advance width="654"/>
  <unicode hex="0936"/>
  <outline>
    <contour>
      <point x="367" y="467" type="curve" smooth="yes"/>
      <point x="367" y="555"/>
      <point x="310" y="634"/>
      <point x="212" y="634" type="curve" smooth="yes"/>
      <point x="125" y="634"/>
      <point x="77" y="572"/>
      <point x="77" y="504" type="curve" smooth="yes"/>
      <point x="77" y="484"/>
      <point x="80" y="463"/>
      <point x="89" y="443" type="curve"/>
      <point x="150" y="443" type="line"/>
      <point x="141" y="459"/>
      <point x="136" y="479"/>
      <point x="136" y="499" type="curve" smooth="yes"/>
      <point x="136" y="540"/>
      <point x="158" y="579"/>
      <point x="212" y="579" type="curve" smooth="yes"/>
      <point x="266" y="579"/>
      <point x="305" y="545"/>
      <point x="305" y="465" type="curve" smooth="yes"/>
      <point x="305" y="372"/>
      <point x="239" y="315"/>
      <point x="125" y="315" type="curve" smooth="yes"/>
      <point x="30" y="315" type="line"/>
      <point x="74" y="260" type="line"/>
      <point x="152" y="260" type="line" smooth="yes"/>
      <point x="259" y="260"/>
      <point x="367" y="331"/>
    </contour>
    <contour>
      <point x="30" y="258" type="line"/>
      <point x="251" y="0" type="line"/>
      <point x="334" y="0" type="line"/>
      <point x="57" y="315" type="line"/>
      <point x="30" y="315" type="line"/>
    </contour>
    <contour>
      <point x="492" y="0" type="line"/>
      <point x="554" y="0" type="line"/>
      <point x="554" y="579" type="line"/>
      <point x="674" y="579" type="line"/>
      <point x="674" y="634" type="line"/>
      <point x="492" y="634" type="line"/>
    </contour>
  </outline>
</glyph>
<glyph name="dvSA" format="1">
  <advance width="623"/>
  <unicode hex="0938"/>
  <outline>
    <contour>
      <point x="476" y="271" type="line"/>
      <point x="476" y="328" type="line"/>
      <point x="115" y="328" type="line"/>
      <point x="70" y="289" type="line"/>
      <point x="70" y="289"/>
      <point x="99" y="271"/>
      <point x="289" y="271" type="curve" smooth="yes"/>
    </contour>
    <contour>
      <point x="403" y="579" type="line"/>
      <point x="462" y="579" type="line"/>
      <point x="462" y="0" type="line"/>
      <point x="523" y="0" type="line"/>
      <point x="523" y="579" type="line"/>
      <point x="643" y="579" type="line"/>
      <point x="643" y="634" type="line"/>
      <point x="403" y="634" type="line"/>
    </contour>
    <contour>
      <point x="30" y="285" type="line"/>
      <point x="215" y="0" type="line"/>
      <point x="290" y="0" type="line"/>
      <point x="105" y="283" type="line"/>
      <point x="115" y="283" type="line" smooth="yes"/>
      <point x="206" y="283"/>
      <point x="256" y="330"/>
      <point x="256" y="429" type="curve" smooth="yes"/>
      <point x="256" y="579" type="line"/>
      <point x="433" y="579" type="line"/>
      <point x="433" y="634" type="line"/>
      <point x="-20" y="634" type="line"/>
      <point x="-20" y="579" type="line"/>
      <point x="194" y="579" type="line"/>
      <point x="194" y="436" type="line" smooth="yes"/>
      <point x="194" y="372"/>
      <point x="179" y="338"/>
      <point x="95" y="338" type="curve" smooth="yes"/>
      <point x="30" y="338" type="line"/>
    </contour>
  </outline>
</glyph>
<glyph name="dvHA" format="1">
  <advance width="525"/>
  <unicode hex="0939"/>
  <outline>
    <contour>
      <point x="429" y="634" type="move" name="abvm.bindu"/>
    </contour>
    <contour>
      <point x="429" y="634" type="move" name="abvm.candra"/>
    </contour>
    <contour>
      <point x="429" y="634" type="move" name="abvm.e"/>
    </contour>
    <contour>
      <point x="429" y="634" type="move" name="abvm.reph"/>
    </contour>
    <contour>
      <point x="268" y="-62" type="move" name="blwm.u"/>
    </contour>
    <contour>
      <point x="268" y="-27" type="move" name="blwm.virama"/>
    </contour>
    <contour>
      <point x="441" y="44" type="line"/>
      <point x="408" y="33"/>
      <point x="355" y="26"/>
      <point x="319" y="26" type="curve" smooth="yes"/>
      <point x="189" y="26"/>
      <point x="135" y="81"/>
      <point x="135" y="147" type="curve" smooth="yes"/>
      <point x="135" y="201"/>
      <point x="185" y="254"/>
      <point x="285" y="254" type="curve" smooth="yes"/>
      <point x="359" y="254"/>
      <point x="388" y="217"/>
      <point x="388" y="174" type="curve" smooth="yes"/>
      <point x="388" y="156"/>
      <point x="384" y="135"/>
      <point x="373" y="121" type="curve"/>
      <point x="434" y="121" type="line"/>
      <point x="442" y="137"/>
      <point x="445" y="158"/>
      <point x="445" y="177" type="curve" smooth="yes"/>
      <point x="445" y="239"/>
      <point x="400" y="306"/>
      <point x="285" y="306" type="curve" smooth="yes"/>
      <point x="149" y="306"/>
      <point x="74" y="229"/>
      <point x="74" y="148" type="curve" smooth="yes"/>
      <point x="74" y="64"/>
      <point x="151" y="-27"/>
      <point x="313" y="-27" type="curve" smooth="yes"/>
      <point x="351" y="-27"/>
      <point x="393" y="-23"/>
      <point x="441" y="-11" type="curve"/>
    </contour>
    <contour>
      <point x="187" y="290" type="line"/>
      <point x="166" y="295"/>
      <point x="131" y="325"/>
      <point x="131" y="373" type="curve" smooth="yes"/>
      <point x="131" y="415"/>
      <point x="160" y="423"/>
      <point x="192" y="423" type="curve" smooth="yes"/>
      <point x="429" y="423" type="line"/>
      <point x="429" y="579" type="line"/>
      <point x="545" y="579" type="line"/>
      <point x="545" y="634" type="line"/>
      <point x="-20" y="634" type="line"/>
      <point x="-20" y="579" type="line"/>
      <point x="368" y="579" type="line"/>
      <point x="368" y="475" type="line"/>
      <point x="184" y="475" type="line" smooth="yes"/>
      <point x="120" y="475"/>
      <point x="70" y="443"/>
      <point x="70" y="381" type="curve" smooth="yes"/>
      <point x="70" y="314"/>
      <point x="111" y="276"/>
      <point x="148" y="256" type="curve"/>
    </contour>
  </outline>
</glyph>
<glyph name="dvNukta" format="1">
  <advance width="0"/>
  <unicode hex="093C"/>
  <outline>
    <contour>
      <point x="-317" y="-127" type="curve" smooth="yes"/>
      <point x="-317" y="-154"/>
      <point x="-298" y="-173"/>
      <point x="-271" y="-173" type="curve" smooth="yes"/>
      <point x="-244" y="-173"/>
      <point x="-223" y="-154"/>
      <point x="-223" y="-127" type="curve" smooth="yes"/>
      <point x="-223" y="-101"/>
      <point x="-244" y="-80"/>
      <point x="-271" y="-80" type="curve" smooth="yes"/>
      <point x="-298" y="-80"/>
      <point x="-317" y="-101"/>
    </contour>
  </outline>
</glyph>
<glyph name="dvAvagraha" format="1">
  <advance width="418"/>
  <unicode hex="093D"/>
  <outline>
    <contour>
      <point x="209" y="-3" type="curve" smooth="yes"/>
      <point x="351" y="-3"/>
      <point x="408" y="86"/>
      <point x="408" y="163" type="curve" smooth="yes"/>
      <point x="408" y="329"/>
      <point x="67" y="428"/>
      <point x="67" y="527" type="curve" smooth="yes"/>
      <point x="67" y="563"/>
      <point x="93" y="580"/>
      <point x="125" y="580" type="curve" smooth="yes"/>
      <point x="383" y="580" type="line"/>
      <point x="383" y="634" type="line"/>
      <point x="119" y="634" type="line" smooth="yes"/>
      <point x="47" y="634"/>
      <point x="6" y="593"/>
      <point x="6" y="528" type="curve" smooth="yes"/>
      <point x="6" y="371"/>
      <point x="347" y="304"/>
      <point x="347" y="157" type="curve" smooth="yes"/>
      <point x="347" y="108"/>
      <point x="307" y="51"/>
      <point x="211" y="51" type="curve" smooth="yes"/>
      <point x="149" y="51"/>
      <point x="72" y="71"/>
      <point x="5" y="115" type="curve"/>
      <point x="5" y="48" type="line"/>
      <point x="43" y="25"/>
      <point x="119" y="-3"/>
    </contour>
  </outline>
</glyph>
<glyph name="dvmI" format="1">
  <advance width="261"/>
  <unicode hex="093F"/>
  <outline>
    <contour>
      <point x="100" y="714" type="curve"/>
      <point x="100" y="621" type="line"/>
      <point x="161" y="621" type="line"/>
      <point x="161" y="712" type="line" smooth="yes"/>
      <point x="161" y="783"/>
      <point x="203" y="829"/>
      <point x="284" y="829" type="curve" smooth="yes"/>
      <point x="375" y="829"/>
      <point x="537" y="790"/>
      <point x="653" y="708" type="curve"/>
      <point x="653" y="770" type="line"/>
      <point x="553" y="835"/>
      <point x="401" y="888"/>
      <point x="281" y="888" type="curve" smooth="yes"/>
      <point x="165" y="888"/>
      <point x="100" y="816"/>
    </contour>
    <contour>
      <point x="-20" y="579" type="line"/>
      <point x="100" y="579" type="line"/>
      <point x="100" y="0" type="line"/>
      <point x="161" y="0" type="line"/>
      <point x="161" y="579" type="line"/>
      <point x="281" y="579" type="line"/>
      <point x="281" y="634" type="line"/>
      <point x="-20" y="634" type="line"/>
    </contour>
  </outline>
</glyph>
<glyph name="dvmII" format="1">
  <advance width="261"/>
  <unicode hex="0940"/>
  <outline>
    <contour>
      <point x="-20" y="579" type="line"/>
      <point x="100" y="579" type="line"/>
      <point x="100" y="0" type="line"/>
      <point x="161" y="0" type="line"/>
      <point x="161" y="579" type="line"/>
      <point x="281" y="579" type="line"/>
      <point x="281" y="634" type="line"/>
      <point x="-20" y="634" type="line"/>
    </contour>
    <contour>
      <point x="-164" y="726" type="curve"/>
      <point x="-164" y="708" type="line"/>
      <point x="-103" y="708" type="line"/>
      <point x="-103" y="725" type="line" smooth="yes"/>
      <point x="-103" y="799"/>
      <point x="-60" y="832"/>
      <point x="-4" y="832" type="curve" smooth="yes"/>
      <point x="52" y="832"/>
      <point x="98" y="798"/>
      <point x="98" y="725" type="curve" smooth="yes"/>
      <point x="98" y="611" type="line"/>
      <point x="160" y="611" type="line"/>
      <point x="160" y="726" type="line" smooth="yes"/>
      <point x="160" y="841"/>
      <point x="81" y="888"/>
      <point x="-4" y="888" type="curve" smooth="yes"/>
      <point x="-88" y="888"/>
      <point x="-164" y="841"/>
    </contour>
  </outline>
</glyph>
<glyph name="dvmOcandra" format="1">
  <advance width="262"/>
  <unicode hex="0945"/>
  <outline>
    <contour>
      <point x="-20" y="579" type="line"/>
      <point x="100" y="579" type="line"/>
      <point x="100" y="0" type="line"/>
      <point x="162" y="0" type="line"/>
      <point x="162" y="579" type="line"/>
      <point x="282" y="579" type="line"/>
      <point x="282" y="634" type="line"/>
      <point x="-20" y="634" type="line"/>
    </contour>
    <contour>
      <point x="128" y="741" type="curve" smooth="yes"/>
      <point x="214" y="741"/>
      <point x="294" y="788"/>
      <point x="294" y="889" type="curve"/>
      <point x="232" y="889" type="line"/>
      <point x="232" y="836"/>
      <point x="196" y="793"/>
      <point x="128" y="793" type="curve" smooth="yes"/>
      <point x="61" y="793"/>
      <point x="25" y="836"/>
      <point x="25" y="889" type="curve"/>
      <point x="-37" y="889" type="line"/>
      <point x="-37" y="786"/>
      <point x="43" y="741"/>
    </contour>
  </outline>
</glyph>
<glyph name="dvmO" format="1">
  <advance width="261"/>
  <unicode hex="094B"/>
  <outline>
    <contour>
      <point x="-20" y="579" type="line"/>
      <point x="100" y="579" type="line"/>
      <point x="100" y="0" type="line"/>
      <point x="161" y="0" type="line"/>
      <point x="161" y="579" type="line"/>
      <point x="281" y="579" type="line"/>
      <point x="281" y="634" type="line"/>
      <point x="-20" y="634" type="line"/>
    </contour>
    <component base="dvmE" xOffset="262"/>
  </outline>
</glyph>
<glyph name="dvmAU" format="1">
  <advance width="261"/>
  <unicode hex="094C"/>
  <outline>
    <contour>
      <point x="-20" y="579" type="line"/>
      <point x="100" y="579" type="line"/>
      <point x="100" y="0" type="line"/>
      <point x="161" y="0" type="line"/>
      <point x="161" y="579" type="line"/>
      <point x="281" y="579" type="line"/>
      <point x="281" y="634" type="line"/>
      <point x="-20" y="634" type="line"/>
    </contour>
    <component base="dvmAI" xOffset="259"/>
  </outline>
</glyph>
<glyph name="dvDDxA" format="1">
  <advance width="517"/>
  <unicode hex="095C"/>
  <outline>
    <contour>
      <point x="390" y="634" type="move" name="abvm.bindu"/>
    </contour>
    <contour>
      <point x="390" y="634" type="move" name="abvm.candra"/>
    </contour>
    <contour>
      <point x="390" y="634" type="move" name="abvm.e"/>
    </contour>
    <contour>
      <point x="390" y="634" type="move" name="abvm.reph"/>
    </contour>
    <contour>
      <point x="218" y="-218" type="move" name="blwm.u"/>
    </contour>
    <contour>
      <point x="218" y="-183" type="move" name="blwm.virama"/>
    </contour>
    <component base="dvDDA"/>
    <component base="dvNukta" xOffset="520" yOffset="-10"/>
  </outline>
</glyph>
<glyph name="dvDDHxA" format="1">
  <advance width="554"/>
  <unicode hex="095D"/>
  <outline>
    <contour>
      <point x="423" y="634" type="move" name="abvm.bindu"/>
    </contour>
    <contour>
      <point x="423" y="634" type="move" name="abvm.candra"/>
    </contour>
    <contour>
      <point x="423" y="634" type="move" name="abvm.e"/>
    </contour>
    <contour>
      <point x="423" y="634" type="move" name="abvm.reph"/>
    </contour>
    <contour>
      <point x="268" y="-208" type="move" name="blwm.u"/>
    </contour>
    <contour>
      <point x="268" y="-173" type="move" name="blwm.virama"/>
    </contour>
    <component base="dvDDHA"/>
    <component base="dvNukta" xOffset="573"/>
  </outline>
</glyph>
<glyph name="dvvRR" format="1">
  <advance width="792"/>
  <unicode hex="0960"/>
  <outline>
    <contour>
      <point x="421" y="634" type="move" name="abvm.bindu"/>
    </contour>
    <contour>
      <point x="421" y="634" type="move" name="abvm.candra"/>
    </contour>
    <contour>
      <point x="812" y="579" type="line"/>
      <point x="812" y="634" type="line"/>
      <point x="-20" y="634" type="line"/>
      <point x="-20" y="579" type="line"/>
    </contour>
    <contour>
      <point x="421" y="0" type="line"/>
      <point x="421" y="579" type="line"/>
      <point x="359" y="579" type="line"/>
      <point x="359" y="0" type="line"/>
    </contour>
    <contour>
      <point x="631" y="480" type="line"/>
      <point x="576" y="480" type="line"/>
      <point x="576" y="386" type="line" smooth="yes"/>
      <point x="576" y="327"/>
      <point x="600" y="278"/>
      <point x="672" y="278" type="curve"/>
      <point x="725" y="303" type="line"/>
      <point x="659" y="303"/>
      <point x="631" y="329"/>
      <point x="631" y="387" type="curve" smooth="yes"/>
    </contour>
    <contour>
      <point x="415" y="269" type="line"/>
      <point x="613" y="385" type="line"/>
      <point x="579" y="427" type="line"/>
      <point x="415" y="332" type="line"/>
    </contour>
    <contour>
      <point x="133" y="393" type="curve"/>
      <point x="231" y="392"/>
      <point x="266" y="320"/>
      <point x="289" y="238" type="curve"/>
      <point x="340" y="269" type="line"/>
      <point x="307" y="397"/>
      <point x="227" y="453"/>
      <point x="134" y="453" type="curve" smooth="yes"/>
      <point x="95" y="453"/>
      <point x="59" y="445"/>
      <point x="30" y="431" type="curve"/>
      <point x="30" y="369" type="line"/>
      <point x="56" y="381"/>
      <point x="82" y="392"/>
    </contour>
    <contour>
      <point x="392" y="325" type="line"/>
      <point x="44" y="115" type="line"/>
      <point x="44" y="47" type="line"/>
      <point x="392" y="260" type="line"/>
    </contour>
    <contour>
      <point x="645" y="93" type="line"/>
      <point x="578" y="92"/>
      <point x="542" y="43"/>
      <point x="542" y="-15" type="curve" smooth="yes"/>
      <point x="542" y="-92"/>
      <point x="611" y="-132"/>
      <point x="689" y="-132" type="curve" smooth="yes"/>
      <point x="725" y="-132"/>
      <point x="757" y="-125"/>
      <point x="783" y="-111" type="curve"/>
      <point x="783" y="-58" type="line"/>
      <point x="757" y="-70"/>
      <point x="727" y="-79"/>
      <point x="696" y="-79" type="curve" smooth="yes"/>
      <point x="644" y="-79"/>
      <point x="604" y="-56"/>
      <point x="604" y="-10" type="curve" smooth="yes"/>
      <point x="604" y="32"/>
      <point x="632" y="62"/>
      <point x="683" y="62" type="curve" smooth="yes"/>
      <point x="703" y="62" type="line"/>
      <point x="703" y="115" type="line"/>
      <point x="678" y="115" type="line" smooth="yes"/>
      <point x="621" y="115"/>
      <point x="593" y="142"/>
      <point x="593" y="179" type="curve" smooth="yes"/>
      <point x="593" y="226"/>
      <point x="625" y="250"/>
      <point x="689" y="250" type="curve" smooth="yes"/>
      <point x="727" y="250" type="line"/>
      <point x="727" y="303" type="line"/>
      <point x="684" y="303" type="line"/>
      <point x="680" y="292" type="line"/>
      <point x="586" y="292"/>
      <point x="531" y="250"/>
      <point x="531" y="177" type="curve" smooth="yes"/>
      <point x="531" y="112"/>
      <point x="582" y="77"/>
      <point x="645" y="77" type="curve"/>
    </contour>
  </outline>
</glyph>
<glyph name="dvvLL" format="1">
  <advance width="760"/>
  <unicode hex="0961"/>
  <outline>
    <contour>
      <point x="666" y="579" type="line"/>
      <point x="604" y="579" type="line"/>
      <point x="604" y="295" type="line" smooth="yes"/>
      <point x="604" y="187"/>
      <point x="492" y="173"/>
      <point x="492" y="73" type="curve" smooth="yes"/>
      <point x="492" y="22"/>
      <point x="517" y="-21"/>
      <point x="637" y="-51" type="curve"/>
      <point x="663" y="-51" type="line"/>
      <point x="663" y="3" type="line"/>
      <point x="645" y="3" type="line"/>
      <point x="588" y="3"/>
      <point x="554" y="30"/>
      <point x="554" y="74" type="curve" smooth="yes"/>
      <point x="554" y="145"/>
      <point x="666" y="170"/>
      <point x="666" y="295" type="curve" smooth="yes"/>
    </contour>
    <contour>
      <point x="-11" y="579" type="line"/>
      <point x="772" y="579" type="line"/>
      <point x="772" y="634" type="line"/>
      <point x="-11" y="634" type="line"/>
    </contour>
    <contour>
      <point x="472" y="-130" type="curve" smooth="yes"/>
      <point x="472" y="-211"/>
      <point x="536" y="-268"/>
      <point x="626" y="-268" type="curve" smooth="yes"/>
      <point x="658" y="-268"/>
      <point x="684" y="-261"/>
      <point x="697" y="-257" type="curve"/>
      <point x="697" y="-201" type="line"/>
      <point x="684" y="-206"/>
      <point x="665" y="-213"/>
      <point x="627" y="-213" type="curve" smooth="yes"/>
      <point x="568" y="-213"/>
      <point x="536" y="-171"/>
      <point x="536" y="-130" type="curve" smooth="yes"/>
      <point x="536" y="-84"/>
      <point x="565" y="-51"/>
      <point x="621" y="-51" type="curve"/>
      <point x="648" y="-51" type="line"/>
      <point x="627" y="-9" type="line"/>
      <point x="613" y="-10" type="line"/>
      <point x="562" y="-18" type="line" smooth="yes"/>
      <point x="514" y="-26"/>
      <point x="472" y="-67"/>
    </contour>
    <contour>
      <point x="604" y="475" type="line"/>
      <point x="518" y="475" type="line" smooth="yes"/>
      <point x="432" y="475"/>
      <point x="381" y="445"/>
      <point x="366" y="373" type="curve"/>
      <point x="350" y="437"/>
      <point x="304" y="478"/>
      <point x="221" y="478" type="curve" smooth="yes"/>
      <point x="108" y="478"/>
      <point x="44" y="389"/>
      <point x="44" y="272" type="curve" smooth="yes"/>
      <point x="44" y="107"/>
      <point x="132" y="15"/>
      <point x="267" y="-8" type="curve"/>
      <point x="269" y="48" type="line"/>
      <point x="158" y="70"/>
      <point x="106" y="148"/>
      <point x="106" y="271" type="curve" smooth="yes"/>
      <point x="106" y="372"/>
      <point x="155" y="424"/>
      <point x="227" y="424" type="curve" smooth="yes"/>
      <point x="283" y="424"/>
      <point x="334" y="392"/>
      <point x="334" y="280" type="curve" smooth="yes"/>
      <point x="334" y="231" type="line"/>
      <point x="396" y="231" type="line"/>
      <point x="396" y="279" type="line" smooth="yes"/>
      <point x="396" y="385"/>
      <point x="432" y="422"/>
      <point x="522" y="422" type="curve" smooth="yes"/>
      <point x="604" y="422" type="line"/>
    </contour>
  </outline>
</glyph>
<glyph name="quotedblleft" format="1">
  <advance width="290"/>
  <unicode hex="201C"/>
  <outline>
    <contour>
      <point x="168" y="695" type="line"/>
      <point x="123" y="695" type="line"/>
      <point x="8" y="481" type="line"/>
      <point x="89" y="481" type="line"/>
    </contour>
    <contour>
      <point x="300" y="695" type="line"/>
      <point x="255" y="695" type="line"/>
      <point x="140" y="481" type="line"/>
      <point x="221" y="481" type="line"/>
    </contour>
  </outline>
</glyph>
<glyph name="quotedblright" format="1">
  <advance width="289"/>
  <unicode hex="201D"/>
  <outline>
    <contour>
      <point x="140" y="481" type="line"/>
      <point x="185" y="481" type="line"/>
      <point x="300" y="695" type="line"/>
      <point x="219" y="695" type="line"/>
    </contour>
    <contour>
      <point x="8" y="481" type="line"/>
      <point x="53" y="481" type="line"/>
      <point x="168" y="695" type="line"/>
      <point x="87" y="695" type="line"/>
    </contour>
  </outline>
</glyph>
<glyph name="quotedblbase" format="1">
  <advance width="289"/>
  <unicode hex="201E"/>
  <outline>
    <contour>
      <point x="136" y="-122" type="line"/>
      <point x="181" y="-122" type="line"/>
      <point x="296" y="92" type="line"/>
      <point x="215" y="92" type="line"/>
    </contour>
    <contour>
      <point x="4" y="-122" type="line"/>
      <point x="49" y="-122" type="line"/>
      <point x="164" y="92" type="line"/>
      <point x="83" y="92" type="line"/>
    </contour>
  </outline>
</glyph>
<glyph name="daggerdbl" format="1">
  <advance width="514"/>
  <unicode hex="2021"/>
  <outline>
    <contour>
      <point x="224" y="0" type="line"/>
      <point x="281" y="0" type="line"/>
      <point x="281" y="674" type="line"/>
      <point x="224" y="674" type="line"/>
    </contour>
    <contour>
      <point x="45" y="442" type="line"/>
      <point x="469" y="442" type="line"/>
      <point x="469" y="498" type="line"/>
      <point x="45" y="498" type="line"/>
    </contour>
    <contour>
      <point x="45" y="189" type="line"/>
      <point x="469" y="189" type="line"/>
      <point x="469" y="245" type="line"/>
      <point x="45" y="245" type="line"/>
    </contour>
  </outline>
</glyph>
<glyph name="bullet" format="1">
  <advance width="455"/>
  <unicode hex="2022"/>
  <outline>
    <contour>
      <point x="95" y="356" type="curve"/>
      <point x="95" y="281"/>
      <point x="151" y="223"/>
      <point x="228" y="223" type="curve"/>
      <point x="302" y="223"/>
      <point x="360" y="281"/>
      <point x="360" y="356" type="curve"/>
      <point x="360" y="431"/>
      <point x="302" y="489"/>
      <point x="227" y="489" type="curve"/>
      <point x="151" y="489"/>
      <point x="95" y="431"/>
    </contour>
  </outline>
</glyph>
<glyph name="guilsinglleft" format="1">
  <advance width="280"/>
  <unicode hex="2039"/>
  <outline>
    <contour>
      <point x="30" y="253" type="line"/>
      <point x="180" y="415" type="line"/>
      <point x="250" y="415" type="line"/>
      <point x="103" y="253" type="line"/>
    </contour>
    <contour>
      <point x="103" y="253" type="line"/>
      <point x="250" y="91" type="line"/>
      <point x="180" y="91" type="line"/>
      <point x="30" y="253" type="line"/>
    </contour>
  </outline>
</glyph>
<glyph name="guilsinglright" format="1">
  <advance width="277"/>
  <unicode hex="203A"/>
  <outline>
    <contour>
      <point x="250" y="253" type="line"/>
      <point x="100" y="415" type="line"/>
      <point x="30" y="415" type="line"/>
      <point x="177" y="253" type="line"/>
    </contour>
    <contour>
      <point x="177" y="253" type="line"/>
      <point x="30" y="91" type="line"/>
      <point x="100" y="91" type="line"/>
      <point x="250" y="253" type="line"/>
    </contour>
  </outline>
</glyph>
<glyph name="fraction" format="1">
  <advance width="324"/>
  <unicode hex="2044"/>
  <outline>
    <contour>
      <point x="-70" y="0" type="line"/>
      <point x="-9" y="0" type="line"/>
      <point x="448" y="712" type="line"/>
      <point x="386" y="712" type="line"/>
    </contour>
  </outline>
</glyph>
<glyph name="Euro" format="1">
  <advance width="582"/>
  <unicode hex="20AC"/>
  <outline>
    <contour>
      <point x="213" y="325" type="curve" smooth="yes"/>
      <point x="213" y="148"/>
      <point x="313" y="51"/>
      <point x="433" y="51" type="curve" smooth="yes"/>
      <point x="470" y="51"/>
      <point x="511" y="55"/>
      <point x="542" y="72" type="curve"/>
      <point x="542" y="13" type="line"/>
      <point x="507" y="-5"/>
      <point x="467" y="-8"/>
      <point x="425" y="-8" type="curve" smooth="yes"/>
      <point x="271" y="-8"/>
      <point x="149" y="120"/>
      <point x="149" y="325" type="curve" smooth="yes"/>
      <point x="149" y="532"/>
      <point x="269" y="659"/>
      <point x="432" y="659" type="curve" smooth="yes"/>
      <point x="469" y="659"/>
      <point x="512" y="655"/>
      <point x="542" y="640" type="curve"/>
      <point x="542" y="581" type="line"/>
      <point x="513" y="596"/>
      <point x="475" y="600"/>
      <point x="438" y="600" type="curve" smooth="yes"/>
      <point x="306" y="600"/>
      <point x="213" y="504"/>
    </contour>
    <contour>
      <point x="55" y="434" type="line"/>
      <point x="430" y="434" type="line"/>
      <point x="430" y="385" type="line"/>
      <point x="55" y="385" type="line"/>
    </contour>
    <contour>
      <point x="55" y="275" type="line"/>
      <point x="430" y="275" type="line"/>
      <point x="430" y="226" type="line"/>
      <point x="55" y="226" type="line"/>
    </contour>
  </outline>
</glyph>
<glyph name="litre" format="1">
  <advance width="496"/>
  <unicode hex="2113"/>
  <outline>
    <contour>
      <point x="449" y="27" type="line"/>
      <point x="420" y="8"/>
      <point x="379" y="-5"/>
      <point x="335" y="-5" type="curve" smooth="yes"/>
      <point x="234" y="-5"/>
      <point x="164" y="55"/>
      <point x="164" y="179" type="curve" smooth="yes"/>
      <point x="164" y="481" type="line" smooth="yes"/>
      <point x="164" y="592"/>
      <point x="202" y="679"/>
      <point x="298" y="679" type="curve" smooth="yes"/>
      <point x="396" y="679"/>
      <point x="436" y="596"/>
      <point x="436" y="502" type="curve" smooth="yes"/>
      <point x="436" y="342"/>
      <point x="315" y="202"/>
      <point x="117" y="202" type="curve" smooth="yes"/>
      <point x="91" y="202"/>
      <point x="66" y="205"/>
      <point x="45" y="213" type="curve"/>
      <point x="45" y="271" type="line"/>
      <point x="66" y="264"/>
      <point x="94" y="259"/>
      <point x="116" y="259" type="curve" smooth="yes"/>
      <point x="285" y="259"/>
      <point x="375" y="367"/>
      <point x="375" y="505" type="curve" smooth="yes"/>
      <point x="375" y="570"/>
      <point x="350" y="624"/>
      <point x="300" y="624" type="curve" smooth="yes"/>
      <point x="247" y="624"/>
      <point x="225" y="562"/>
      <point x="225" y="478" type="curve" smooth="yes"/>
      <point x="225" y="211" type="line" smooth="yes"/>
      <point x="225" y="109"/>
      <point x="251" y="50"/>
      <point x="339" y="50" type="curve" smooth="yes"/>
      <point x="382" y="50"/>
      <point x="414" y="60"/>
      <point x="449" y="81" type="curve"/>
    </contour>
  </outline>
</glyph>
<glyph name="Omega.math" format="1">
  <advance width="778"/>
  <unicode hex="2126"/>
  <outline>
    <contour>
      <point x="344" y="57" type="line"/>
      <point x="224" y="77"/>
      <point x="153" y="196"/>
      <point x="153" y="345" type="curve" smooth="yes"/>
      <point x="153" y="514"/>
      <point x="239" y="628"/>
      <point x="384" y="628" type="curve" smooth="yes"/>
      <point x="534" y="628"/>
      <point x="616" y="514"/>
      <point x="616" y="345" type="curve" smooth="yes"/>
      <point x="616" y="197"/>
      <point x="561" y="78"/>
      <point x="434" y="57" type="curve"/>
      <point x="434" y="17" type="line"/>
      <point x="605" y="33"/>
      <point x="680" y="164"/>
      <point x="680" y="345" type="curve" smooth="yes"/>
      <point x="680" y="547"/>
      <point x="572" y="688"/>
      <point x="384" y="688" type="curve" smooth="yes"/>
      <point x="203" y="688"/>
      <point x="89" y="547"/>
      <point x="89" y="345" type="curve" smooth="yes"/>
      <point x="89" y="163"/>
      <point x="176" y="32"/>
      <point x="344" y="17" type="curve"/>
    </contour>
    <contour>
      <point x="434" y="0" type="line"/>
      <point x="723" y="0" type="line"/>
      <point x="723" y="57" type="line"/>
      <point x="434" y="57" type="line"/>
    </contour>
    <contour>
      <point x="55" y="0" type="line"/>
      <point x="344" y="0" type="line"/>
      <point x="344" y="57" type="line"/>
      <point x="55" y="57" type="line"/>
    </contour>
  </outline>
</glyph>
<glyph name="Delta.math" format="1">
  <advance width="601"/>
  <unicode hex="2206"/>
  <outline>
    <contour>
      <point x="571" y="57" type="line"/>
      <point x="348" y="674" type="line"/>
      <point x="258" y="674" type="line"/>
      <point x="30" y="57" type="line"/>
      <point x="30" y="0" type="line"/>
      <point x="77" y="0" type="line"/>
      <point x="170" y="260" type="line" smooth="yes"/>
      <point x="277" y="558"/>
      <point x="303" y="625"/>
      <point x="303" y="625" type="curve"/>
      <point x="303" y="625"/>
      <point x="329" y="559"/>
      <point x="433" y="261" type="curve" smooth="yes"/>
      <point x="524" y="0" type="line"/>
      <point x="571" y="0" type="line"/>
    </contour>
    <contour>
      <point x="52" y="0" type="line"/>
      <point x="550" y="0" type="line"/>
      <point x="550" y="55" type="line"/>
      <point x="52" y="55" type="line"/>
    </contour>
  </outline>
</glyph>
<glyph name="product" format="1">
  <advance width="580"/>
  <unicode hex="220F"/>
  <outline>
    <contour>
      <point x="442" y="-180" type="line"/>
      <point x="504" y="-180" type="line"/>
      <point x="504" y="674" type="line"/>
      <point x="442" y="674" type="line"/>
    </contour>
    <contour>
      <point x="127" y="617" type="line"/>
      <point x="461" y="617" type="line"/>
      <point x="461" y="674" type="line"/>
      <point x="127" y="674" type="line"/>
    </contour>
    <contour>
      <point x="-45" y="-173" type="line"/>
      <point x="-31" y="-179"/>
      <point x="-2" y="-184"/>
      <point x="16" y="-184" type="curve" smooth="yes"/>
      <point x="93" y="-184"/>
      <point x="162" y="-148"/>
      <point x="162" y="-17" type="curve" smooth="yes"/>
      <point x="162" y="674" type="line"/>
      <point x="100" y="674" type="line"/>
      <point x="100" y="-27" type="line" smooth="yes"/>
      <point x="100" y="-93"/>
      <point x="70" y="-125"/>
      <point x="10" y="-125" type="curve" smooth="yes"/>
      <point x="-8" y="-125"/>
      <point x="-31" y="-120"/>
      <point x="-45" y="-113" type="curve"/>
    </contour>
  </outline>
</glyph>
<glyph name="summation" format="1">
  <advance width="430"/>
  <unicode hex="2211"/>
  <outline>
    <contour>
      <point x="30" y="617" type="line"/>
      <point x="475" y="617" type="line"/>
      <point x="475" y="674" type="line"/>
      <point x="30" y="674" type="line"/>
    </contour>
    <contour>
      <point x="30" y="-200" type="line"/>
      <point x="475" y="-200" type="line"/>
      <point x="475" y="-143" type="line"/>
      <point x="30" y="-143" type="line"/>
    </contour>
    <contour>
      <point x="102" y="617" type="line"/>
      <point x="30" y="617" type="line"/>
      <point x="218" y="244" type="line"/>
      <point x="30" y="-143" type="line"/>
      <point x="102" y="-143" type="line"/>
      <point x="290" y="244" type="line"/>
    </contour>
  </outline>
</glyph>
<glyph name="bulletoperator" format="1">
  <advance width="222"/>
  <unicode hex="2219"/>
  <outline>
    <contour>
      <point x="60" y="337" type="curve" smooth="yes"/>
      <point x="60" y="308"/>
      <point x="82" y="286"/>
      <point x="111" y="286" type="curve" smooth="yes"/>
      <point x="140" y="286"/>
      <point x="162" y="308"/>
      <point x="162" y="337" type="curve" smooth="yes"/>
      <point x="162" y="366"/>
      <point x="140" y="388"/>
      <point x="111" y="388" type="curve" smooth="yes"/>
      <point x="82" y="388"/>
      <point x="60" y="366"/>
    </contour>
  </outline>
</glyph>
<glyph name="radical" format="1">
  <advance width="736"/>
  <unicode hex="221A"/>
  <outline>
    <contour>
      <point x="202" y="411" type="line"/>
      <point x="45" y="411" type="line"/>
      <point x="34" y="355" type="line"/>
      <point x="155" y="355" type="line"/>
      <point x="359" y="-200" type="line"/>
      <point x="455" y="-200" type="line"/>
      <point x="782" y="895" type="line"/>
      <point x="718" y="895" type="line"/>
      <point x="641" y="640"/>
      <point x="556" y="362"/>
      <point x="478" y="106" type="curve" smooth="yes"/>
      <point x="435" y="-36"/>
      <point x="406" y="-154"/>
      <point x="406" y="-154" type="curve"/>
      <point x="406" y="-154"/>
      <point x="366" y="-38"/>
      <point x="316" y="99" type="curve" smooth="yes"/>
    </contour>
  </outline>
</glyph>
<glyph name="approxequal" format="1">
  <advance width="625"/>
  <unicode hex="2248"/>
  <outline>
    <contour>
      <point x="519" y="288" type="line"/>
      <point x="500" y="252"/>
      <point x="469" y="228"/>
      <point x="431" y="228" type="curve" smooth="yes"/>
      <point x="358" y="228"/>
      <point x="305" y="308"/>
      <point x="210" y="308" type="curve" smooth="yes"/>
      <point x="156" y="308"/>
      <point x="104" y="281"/>
      <point x="58" y="217" type="curve"/>
      <point x="98" y="180" type="line"/>
      <point x="134" y="233"/>
      <point x="175" y="252"/>
      <point x="217" y="252" type="curve" smooth="yes"/>
      <point x="275" y="252"/>
      <point x="348" y="171"/>
      <point x="431" y="171" type="curve" smooth="yes"/>
      <point x="492" y="171"/>
      <point x="531" y="200"/>
      <point x="566" y="256" type="curve"/>
    </contour>
    <contour>
      <point x="519" y="487" type="line"/>
      <point x="500" y="451"/>
      <point x="469" y="427"/>
      <point x="431" y="427" type="curve" smooth="yes"/>
      <point x="358" y="427"/>
      <point x="305" y="507"/>
      <point x="210" y="507" type="curve" smooth="yes"/>
      <point x="156" y="507"/>
      <point x="104" y="480"/>
      <point x="58" y="416" type="curve"/>
      <point x="98" y="379" type="line"/>
      <point x="134" y="432"/>
      <point x="175" y="451"/>
      <point x="217" y="451" type="curve" smooth="yes"/>
      <point x="275" y="451"/>
      <point x="348" y="370"/>
      <point x="431" y="370" type="curve" smooth="yes"/>
      <point x="492" y="370"/>
      <point x="531" y="399"/>
      <point x="566" y="455" type="curve"/>
    </contour>
  </outline>
</glyph>
<glyph name="notequal" format="1">
  <advance width="544"/>
  <unicode hex="2260"/>
  <outline>
    <contour>
      <point x="60" y="410" type="line"/>
      <point x="484" y="410" type="line"/>
      <point x="484" y="465" type="line"/>
      <point x="60" y="465" type="line"/>
    </contour>
    <contour>
      <point x="60" y="215" type="line"/>
      <point x="484" y="215" type="line"/>
      <point x="484" y="271" type="line"/>
      <point x="60" y="271" type="line"/>
    </contour>
    <contour>
      <point x="203" y="125" type="line"/>
      <point x="392" y="555" type="line"/>
      <point x="341" y="555" type="line"/>
      <point x="152" y="125" type="line"/>
    </contour>
  </outline>
</glyph>
<glyph name="lessequal" format="1">
  <advance width="539"/>
  <unicode hex="2264"/>
  <outline>
    <contour>
      <point x="479" y="185" type="line"/>
      <point x="55" y="185" type="line"/>
      <point x="55" y="130" type="line"/>
      <point x="479" y="130" type="line"/>
    </contour>
    <contour>
      <point x="55" y="395" type="line"/>
      <point x="479" y="489" type="line"/>
      <point x="479" y="549" type="line"/>
      <point x="55" y="448" type="line"/>
    </contour>
    <contour>
      <point x="55" y="351" type="line"/>
      <point x="479" y="250" type="line"/>
      <point x="479" y="310" type="line"/>
      <point x="55" y="404" type="line"/>
    </contour>
  </outline>
</glyph>
<glyph name="greaterequal" format="1">
  <advance width="539"/>
  <unicode hex="2265"/>
  <outline>
    <contour>
      <point x="484" y="404" type="line"/>
      <point x="60" y="310" type="line"/>
      <point x="60" y="250" type="line"/>
      <point x="484" y="351" type="line"/>
    </contour>
    <contour>
      <point x="484" y="448" type="line"/>
      <point x="60" y="549" type="line"/>
      <point x="60" y="489" type="line"/>
      <point x="484" y="395" type="line"/>
    </contour>
    <contour>
      <point x="60" y="130" type="line"/>
      <point x="484" y="130" type="line"/>
      <point x="484" y="185" type="line"/>
      <point x="60" y="185" type="line"/>
    </contour>
  </outline>
</glyph>
<glyph name="fi" format="1">
  <advance width="498"/>
  <unicode hex="FB01"/>
  <outline>
    <contour>
      <point x="361" y="0" type="line"/>
      <point x="422" y="0" type="line"/>
      <point x="422" y="507" type="line"/>
      <point x="361" y="507" type="line"/>
    </contour>
    <contour>
      <point x="390" y="680" type="line"/>
      <point x="353" y="700"/>
      <point x="313" y="712"/>
      <point x="265" y="712" type="curve" smooth="yes"/>
      <point x="171" y="712"/>
      <point x="123" y="651"/>
      <point x="123" y="561" type="curve" smooth="yes"/>
      <point x="123" y="0" type="line"/>
      <point x="184" y="0" type="line"/>
      <point x="184" y="560" type="line" smooth="yes"/>
      <point x="184" y="627"/>
      <point x="216" y="654"/>
      <point x="262" y="654" type="curve" smooth="yes"/>
      <point x="314" y="654"/>
      <point x="350" y="641"/>
      <point x="390" y="620" type="curve"/>
    </contour>
    <contour>
      <point x="30" y="455" type="line"/>
      <point x="392" y="455" type="line"/>
      <point x="392" y="507" type="line"/>
      <point x="30" y="507" type="line"/>
    </contour>
  </outline>
</glyph>
<glyph name="fl" format="1">
  <advance width="488"/>
  <unicode hex="FB02"/>
  <outline>
    <contour>
      <point x="412" y="667" type="line"/>
      <point x="376" y="690"/>
      <point x="318" y="712"/>
      <point x="264" y="712" type="curve" smooth="yes"/>
      <point x="172" y="712"/>
      <point x="123" y="653"/>
      <point x="123" y="561" type="curve" smooth="yes"/>
      <point x="123" y="0" type="line"/>
      <point x="184" y="0" type="line"/>
      <point x="184" y="560" type="line" smooth="yes"/>
      <point x="184" y="634"/>
      <point x="223" y="654"/>
      <point x="267" y="654" type="curve" smooth="yes"/>
      <point x="320" y="654"/>
      <point x="371" y="629"/>
      <point x="412" y="601" type="curve"/>
    </contour>
    <contour>
      <point x="30" y="455" type="line"/>
      <point x="300" y="455" type="line"/>
      <point x="300" y="507" type="line"/>
      <point x="30" y="507" type="line"/>
    </contour>
    <contour>
      <point x="351" y="0" type="line"/>
      <point x="412" y="0" type="line"/>
      <point x="412" y="648" type="line"/>
      <point x="351" y="648" type="line"/>
    </contour>
  </outline>
</glyph>
<glyph name="f_f_i" format="1">
  <advance width="736"/>
  <unicode hex="FB03"/>
  <outline>
    <contour>
      <point x="413" y="671" type="line"/>
      <point x="377" y="693"/>
      <point x="321" y="712"/>
      <point x="270" y="712" type="curve" smooth="yes"/>
      <point x="171" y="712"/>
      <point x="123" y="651"/>
      <point x="123" y="561" type="curve" smooth="yes"/>
      <point x="123" y="0" type="line"/>
      <point x="184" y="0" type="line"/>
      <point x="184" y="560" type="line" smooth="yes"/>
      <point x="184" y="627"/>
      <point x="219" y="654"/>
      <point x="267" y="654" type="curve" smooth="yes"/>
      <point x="326" y="654"/>
      <point x="366" y="635"/>
      <point x="403" y="611" type="curve"/>
    </contour>
    <contour>
      <point x="30" y="455" type="line"/>
      <point x="300" y="455" type="line"/>
      <point x="300" y="507" type="line"/>
      <point x="30" y="507" type="line"/>
    </contour>
    <contour>
      <point x="599" y="0" type="line"/>
      <point x="660" y="0" type="line"/>
      <point x="660" y="507" type="line"/>
      <point x="599" y="507" type="line"/>
    </contour>
    <contour>
      <point x="628" y="680" type="line"/>
      <point x="591" y="700"/>
      <point x="551" y="712"/>
      <point x="503" y="712" type="curve" smooth="yes"/>
      <point x="409" y="712"/>
      <point x="361" y="651"/>
      <point x="361" y="561" type="curve" smooth="yes"/>
      <point x="361" y="0" type="line"/>
      <point x="422" y="0" type="line"/>
      <point x="422" y="560" type="line" smooth="yes"/>
      <point x="422" y="627"/>
      <point x="454" y="654"/>
      <point x="500" y="654" type="curve" smooth="yes"/>
      <point x="552" y="654"/>
      <point x="588" y="641"/>
      <point x="628" y="620" type="curve"/>
    </contour>
    <contour>
      <point x="268" y="455" type="line"/>
      <point x="630" y="455" type="line"/>
      <point x="630" y="507" type="line"/>
      <point x="268" y="507" type="line"/>
    </contour>
  </outline>
</glyph>
<glyph name="f_f_l" format="1">
  <advance width="727"/>
  <unicode hex="FB04"/>
  <outline>
    <contour>
      <point x="413" y="671" type="line"/>
      <point x="377" y="693"/>
      <point x="321" y="712"/>
      <point x="270" y="712" type="curve" smooth="yes"/>
      <point x="171" y="712"/>
      <point x="123" y="651"/>
      <point x="123" y="561" type="curve" smooth="yes"/>
      <point x="123" y="0" type="line"/>
      <point x="184" y="0" type="line"/>
      <point x="184" y="560" type="line" smooth="yes"/>
      <point x="184" y="627"/>
      <point x="219" y="654"/>
      <point x="267" y="654" type="curve" smooth="yes"/>
      <point x="326" y="654"/>
      <point x="366" y="635"/>
      <point x="403" y="611" type="curve"/>
    </contour>
    <contour>
      <point x="30" y="455" type="line"/>
      <point x="300" y="455" type="line"/>
      <point x="300" y="507" type="line"/>
      <point x="30" y="507" type="line"/>
    </contour>
    <contour>
      <point x="651" y="667" type="line"/>
      <point x="615" y="690"/>
      <point x="557" y="712"/>
      <point x="503" y="712" type="curve" smooth="yes"/>
      <point x="411" y="712"/>
      <point x="362" y="653"/>
      <point x="362" y="561" type="curve" smooth="yes"/>
      <point x="362" y="0" type="line"/>
      <point x="423" y="0" type="line"/>
      <point x="423" y="560" type="line" smooth="yes"/>
      <point x="423" y="634"/>
      <point x="462" y="654"/>
      <point x="506" y="654" type="curve" smooth="yes"/>
      <point x="559" y="654"/>
      <point x="610" y="629"/>
      <point x="651" y="601" type="curve"/>
    </contour>
    <contour>
      <point x="269" y="455" type="line"/>
      <point x="539" y="455" type="line"/>
      <point x="539" y="507" type="line"/>
      <point x="269" y="507" type="line"/>
    </contour>
    <contour>
      <point x="590" y="0" type="line"/>
      <point x="651" y="0" type="line"/>
      <point x="651" y="648" type="line"/>
      <point x="590" y="648" type="line"/>
    </contour>
  </outline>
</glyph>
<glyph name="dvAnusvara.amI" format="1">
  <advance width="0"/>
  <outline>
    <contour>
      <point x="0" y="708" type="move" name="_abvm.i"/>
    </contour>
    <component base="dvAnusvara" xOffset="133" yOffset="89"/>
  </outline>
</glyph>
<glyph name="dvB_BH_RA" format="1">
  <advance width="915"/>
  <outline>
    <contour>
      <point x="760" y="259" type="line"/>
      <point x="424" y="-40" type="line"/>
      <point x="512" y="-40" type="line"/>
      <point x="797" y="212" type="line"/>
    </contour>
    <contour>
      <point x="753" y="381" type="line"/>
      <point x="545" y="381" type="line"/>
      <point x="545" y="525" type="line" smooth="yes"/>
      <point x="545" y="597"/>
      <point x="522" y="634"/>
      <point x="436" y="634" type="curve" smooth="yes"/>
      <point x="380" y="634" type="line"/>
      <point x="380" y="579" type="line"/>
      <point x="428" y="579" type="line" smooth="yes"/>
      <point x="474" y="579"/>
      <point x="483" y="555"/>
      <point x="483" y="509" type="curve"/>
      <point x="483" y="379" type="line"/>
      <point x="459" y="374"/>
      <point x="441" y="353"/>
      <point x="441" y="327" type="curve" smooth="yes"/>
      <point x="441" y="300"/>
      <point x="456" y="265"/>
      <point x="468" y="237" type="curve" smooth="yes"/>
      <point x="490" y="187" type="line"/>
      <point x="545" y="187" type="line"/>
      <point x="545" y="327" type="line"/>
      <point x="753" y="327" type="line"/>
      <point x="753" y="0" type="line"/>
      <point x="815" y="0" type="line"/>
      <point x="815" y="579" type="line"/>
      <point x="935" y="579" type="line"/>
      <point x="935" y="634" type="line"/>
      <point x="753" y="634" type="line"/>
    </contour>
    <component base="dvB"/>
  </outline>
</glyph>
<glyph name="dvB_DH_VA" format="1">
  <advance width="1376"/>
  <outline>
    <contour>
      <point x="1276" y="0" type="line"/>
      <point x="1276" y="614" type="line"/>
      <point x="1215" y="614" type="line"/>
      <point x="1215" y="0" type="line"/>
    </contour>
    <contour>
      <point x="1113" y="457" type="line"/>
      <point x="1097" y="461"/>
      <point x="1073" y="464"/>
      <point x="1051" y="464" type="curve" smooth="yes"/>
      <point x="940" y="464"/>
      <point x="860" y="386"/>
      <point x="860" y="279" type="curve" smooth="yes"/>
      <point x="860" y="160"/>
      <point x="952" y="92"/>
      <point x="1049" y="92" type="curve" smooth="yes"/>
      <point x="1152" y="92"/>
      <point x="1210" y="150"/>
      <point x="1227" y="207" type="curve"/>
      <point x="1215" y="319" type="line"/>
      <point x="1215" y="232"/>
      <point x="1163" y="144"/>
      <point x="1052" y="144" type="curve" smooth="yes"/>
      <point x="983" y="144"/>
      <point x="922" y="196"/>
      <point x="922" y="279" type="curve" smooth="yes"/>
      <point x="922" y="358"/>
      <point x="980" y="410"/>
      <point x="1054" y="410" type="curve" smooth="yes"/>
      <point x="1076" y="410"/>
      <point x="1096" y="408"/>
      <point x="1113" y="402" type="curve"/>
    </contour>
    <contour>
      <point x="1396" y="579" type="line"/>
      <point x="1396" y="634" type="line"/>
      <point x="850" y="634" type="line"/>
      <point x="850" y="579" type="line"/>
    </contour>
    <component base="dvB"/>
    <component base="dvDH" xOffset="380"/>
  </outline>
</glyph>
<glyph name="dvB_JA" format="1">
  <advance width="1028"/>
  <outline>
    <contour>
      <point x="271" y="83" type="curve" smooth="yes"/>
      <point x="326" y="83"/>
      <point x="373" y="99"/>
      <point x="410" y="122" type="curve"/>
      <point x="447" y="87"/>
      <point x="491" y="65"/>
      <point x="547" y="65" type="curve" smooth="yes"/>
      <point x="661" y="65"/>
      <point x="735" y="141"/>
      <point x="735" y="247" type="curve" smooth="yes"/>
      <point x="735" y="351"/>
      <point x="671" y="399"/>
      <point x="588" y="406" type="curve"/>
      <point x="489" y="384" type="line"/>
      <point x="598" y="384"/>
      <point x="672" y="346"/>
      <point x="672" y="245" type="curve" smooth="yes"/>
      <point x="672" y="168"/>
      <point x="622" y="117"/>
      <point x="545" y="117" type="curve" smooth="yes"/>
      <point x="498" y="117"/>
      <point x="467" y="137"/>
      <point x="415" y="189" type="curve"/>
      <point x="372" y="148"/>
      <point x="321" y="135"/>
      <point x="274" y="135" type="curve" smooth="yes"/>
      <point x="185" y="135"/>
      <point x="119" y="198"/>
      <point x="119" y="286" type="curve" smooth="yes"/>
      <point x="119" y="377"/>
      <point x="175" y="439"/>
      <point x="279" y="439" type="curve" smooth="yes"/>
      <point x="302" y="439"/>
      <point x="329" y="435"/>
      <point x="359" y="425" type="curve"/>
      <point x="359" y="480" type="line"/>
      <point x="332" y="487"/>
      <point x="307" y="491"/>
      <point x="276" y="491" type="curve" smooth="yes"/>
      <point x="153" y="491"/>
      <point x="60" y="408"/>
      <point x="60" y="286" type="curve" smooth="yes"/>
      <point x="60" y="162"/>
      <point x="158" y="83"/>
    </contour>
    <contour>
      <point x="395" y="579" type="line"/>
      <point x="395" y="634" type="line"/>
      <point x="-20" y="634" type="line"/>
      <point x="-20" y="579" type="line"/>
    </contour>
    <contour>
      <point x="434" y="170" type="line"/>
      <point x="178" y="434" type="line"/>
      <point x="141" y="402" type="line"/>
      <point x="399" y="139" type="line"/>
    </contour>
    <contour>
      <point x="489" y="384" type="line"/>
      <point x="877" y="384" type="line"/>
      <point x="877" y="438" type="line"/>
      <point x="489" y="438" type="line"/>
    </contour>
    <contour>
      <point x="370" y="579" type="line"/>
      <point x="877" y="579" type="line"/>
      <point x="877" y="0" type="line"/>
      <point x="938" y="0" type="line"/>
      <point x="938" y="579" type="line"/>
      <point x="1058" y="579" type="line"/>
      <point x="1058" y="634" type="line"/>
      <point x="370" y="634" type="line"/>
    </contour>
  </outline>
</glyph>
<glyph name="dvB_L_YA" format="1">
  <advance width="1493"/>
  <outline>
    <contour>
      <point x="702" y="54" type="line"/>
      <point x="694" y="52"/>
      <point x="684" y="52"/>
      <point x="679" y="52" type="curve" smooth="yes"/>
      <point x="557" y="52"/>
      <point x="502" y="152"/>
      <point x="502" y="261" type="curve" smooth="yes"/>
      <point x="502" y="362"/>
      <point x="553" y="414"/>
      <point x="613" y="414" type="curve" smooth="yes"/>
      <point x="672" y="414"/>
      <point x="704" y="374"/>
      <point x="704" y="285" type="curve" smooth="yes"/>
      <point x="704" y="210" type="line"/>
      <point x="765" y="210" type="line"/>
      <point x="765" y="284" type="line" smooth="yes"/>
      <point x="765" y="371"/>
      <point x="806" y="407"/>
      <point x="858" y="407" type="curve" smooth="yes"/>
      <point x="906" y="407"/>
      <point x="928" y="367"/>
      <point x="939" y="317" type="curve"/>
      <point x="992" y="349" type="line"/>
      <point x="975" y="410"/>
      <point x="931" y="459"/>
      <point x="860" y="459" type="curve" smooth="yes"/>
      <point x="795" y="459"/>
      <point x="749" y="426"/>
      <point x="736" y="371" type="curve"/>
      <point x="722" y="433"/>
      <point x="677" y="466"/>
      <point x="607" y="466" type="curve" smooth="yes"/>
      <point x="506" y="466"/>
      <point x="440" y="379"/>
      <point x="440" y="262" type="curve" smooth="yes"/>
      <point x="440" y="116"/>
      <point x="530" y="0"/>
      <point x="670" y="0" type="curve" smooth="yes"/>
      <point x="679" y="0"/>
      <point x="693" y="1"/>
      <point x="702" y="3" type="curve"/>
    </contour>
    <contour>
      <point x="360" y="579" type="line"/>
      <point x="869" y="579" type="line"/>
      <point x="869" y="634" type="line"/>
      <point x="360" y="634" type="line"/>
    </contour>
    <component base="dvB"/>
    <component base="dvYA" xOffset="870"/>
  </outline>
</glyph>
<glyph name="dvB_NA" format="1">
  <advance width="621"/>
  <outline>
    <contour>
      <point x="521" y="0" type="line"/>
      <point x="521" y="614" type="line"/>
      <point x="460" y="614" type="line"/>
      <point x="460" y="0" type="line"/>
    </contour>
    <contour>
      <point x="275" y="83" type="curve" smooth="yes"/>
      <point x="378" y="83"/>
      <point x="454" y="141"/>
      <point x="471" y="198" type="curve"/>
      <point x="460" y="310" type="line"/>
      <point x="460" y="223"/>
      <point x="399" y="135"/>
      <point x="278" y="135" type="curve" smooth="yes"/>
      <point x="191" y="135"/>
      <point x="129" y="198"/>
      <point x="129" y="286" type="curve" smooth="yes"/>
      <point x="129" y="377"/>
      <point x="185" y="439"/>
      <point x="289" y="439" type="curve" smooth="yes"/>
      <point x="312" y="439"/>
      <point x="339" y="435"/>
      <point x="369" y="425" type="curve"/>
      <point x="369" y="480" type="line"/>
      <point x="342" y="487"/>
      <point x="317" y="491"/>
      <point x="286" y="491" type="curve" smooth="yes"/>
      <point x="163" y="491"/>
      <point x="70" y="408"/>
      <point x="70" y="286" type="curve" smooth="yes"/>
      <point x="70" y="162"/>
      <point x="165" y="83"/>
    </contour>
    <contour>
      <point x="641" y="579" type="line"/>
      <point x="641" y="634" type="line"/>
      <point x="-20" y="634" type="line"/>
      <point x="-20" y="579" type="line"/>
    </contour>
    <contour>
      <point x="444" y="170" type="line"/>
      <point x="188" y="434" type="line"/>
      <point x="151" y="402" type="line"/>
      <point x="409" y="139" type="line"/>
    </contour>
    <contour>
      <point x="202" y="45" type="line"/>
      <point x="162" y="22"/>
      <point x="146" y="-3"/>
      <point x="146" y="-30" type="curve" smooth="yes"/>
      <point x="146" y="-74"/>
      <point x="186" y="-112"/>
      <point x="215" y="-130" type="curve"/>
      <point x="257" y="-103" type="line"/>
      <point x="239" y="-87"/>
      <point x="217" y="-62"/>
      <point x="217" y="-36" type="curve" smooth="yes"/>
      <point x="217" y="-22"/>
      <point x="223" y="-9"/>
      <point x="236" y="0" type="curve" smooth="yes"/>
      <point x="413" y="124" type="line"/>
      <point x="402" y="161" type="line"/>
    </contour>
  </outline>
</glyph>
<glyph name="dvB_R" format="1">
  <advance width="373"/>
  <outline>
    <contour>
      <point x="282" y="83" type="curve"/>
      <point x="115" y="-65" type="line"/>
      <point x="200" y="-65" type="line"/>
      <point x="490" y="191" type="line"/>
      <point x="460" y="258" type="line"/>
      <point x="426" y="192"/>
      <point x="370" y="135"/>
      <point x="278" y="135" type="curve" smooth="yes"/>
      <point x="191" y="135"/>
      <point x="129" y="198"/>
      <point x="129" y="286" type="curve" smooth="yes"/>
      <point x="129" y="377"/>
      <point x="185" y="439"/>
      <point x="289" y="439" type="curve" smooth="yes"/>
      <point x="312" y="439"/>
      <point x="339" y="435"/>
      <point x="369" y="425" type="curve"/>
      <point x="369" y="480" type="line"/>
      <point x="342" y="487"/>
      <point x="317" y="491"/>
      <point x="286" y="491" type="curve" smooth="yes"/>
      <point x="163" y="491"/>
      <point x="70" y="408"/>
      <point x="70" y="286" type="curve" smooth="yes"/>
      <point x="70" y="162"/>
      <point x="166" y="81"/>
    </contour>
    <contour>
      <point x="393" y="579" type="line"/>
      <point x="393" y="634" type="line"/>
      <point x="-20" y="634" type="line"/>
      <point x="-20" y="579" type="line"/>
    </contour>
    <contour>
      <point x="444" y="170" type="line"/>
      <point x="188" y="434" type="line"/>
      <point x="151" y="402" type="line"/>
      <point x="409" y="139" type="line"/>
    </contour>
  </outline>
</glyph>
<glyph name="dvCH" format="1">
  <advance width="614"/>
  <outline>
    <contour>
      <point x="339" y="417" type="line"/>
      <point x="348" y="421"/>
      <point x="366" y="424"/>
      <point x="381" y="424" type="curve" smooth="yes"/>
      <point x="466" y="424"/>
      <point x="502" y="374"/>
      <point x="502" y="307" type="curve" smooth="yes"/>
      <point x="502" y="180"/>
      <point x="412" y="111"/>
      <point x="295" y="111" type="curve" smooth="yes"/>
      <point x="204" y="111"/>
      <point x="132" y="153"/>
      <point x="132" y="225" type="curve" smooth="yes"/>
      <point x="132" y="282"/>
      <point x="175" y="321"/>
      <point x="250" y="321" type="curve" smooth="yes"/>
      <point x="288" y="321" type="line"/>
      <point x="288" y="374" type="line"/>
      <point x="260" y="374" type="line" smooth="yes"/>
      <point x="206" y="374"/>
      <point x="152" y="408"/>
      <point x="152" y="472" type="curve" smooth="yes"/>
      <point x="152" y="522"/>
      <point x="181" y="569"/>
      <point x="242" y="587" type="curve"/>
      <point x="149" y="587" type="line"/>
      <point x="108" y="561"/>
      <point x="90" y="516"/>
      <point x="90" y="473" type="curve" smooth="yes"/>
      <point x="90" y="399"/>
      <point x="145" y="362"/>
      <point x="175" y="353" type="curve"/>
      <point x="116" y="345"/>
      <point x="70" y="297"/>
      <point x="70" y="226" type="curve" smooth="yes"/>
      <point x="70" y="123"/>
      <point x="163" y="59"/>
      <point x="295" y="59" type="curve" smooth="yes"/>
      <point x="450" y="59"/>
      <point x="564" y="165"/>
      <point x="564" y="306" type="curve" smooth="yes"/>
      <point x="564" y="402"/>
      <point x="511" y="476"/>
      <point x="390" y="476" type="curve" smooth="yes"/>
      <point x="371" y="476"/>
      <point x="350" y="474"/>
      <point x="339" y="470" type="curve"/>
    </contour>
    <contour>
      <point x="634" y="579" type="line"/>
      <point x="634" y="634" type="line"/>
      <point x="-20" y="634" type="line"/>
      <point x="-20" y="579" type="line"/>
    </contour>
  </outline>
</glyph>
<glyph name="dvCH_R_YA" format="1">
  <advance width="1183"/>
  <outline>
    <contour>
      <point x="513" y="382" type="line"/>
      <point x="564" y="411"/>
      <point x="637" y="430"/>
      <point x="696" y="430" type="curve" smooth="yes"/>
      <point x="754" y="430"/>
      <point x="803" y="414"/>
      <point x="803" y="371" type="curve" smooth="yes"/>
      <point x="803" y="318"/>
      <point x="750" y="288"/>
      <point x="660" y="273" type="curve"/>
      <point x="678" y="131"/>
      <point x="770" y="68"/>
      <point x="872" y="68" type="curve" smooth="yes"/>
      <point x="947" y="68"/>
      <point x="995" y="102"/>
      <point x="1022" y="140" type="curve"/>
      <point x="1022" y="0" type="line"/>
      <point x="1083" y="0" type="line"/>
      <point x="1083" y="609" type="line"/>
      <point x="1022" y="609" type="line"/>
      <point x="1022" y="274" type="line" smooth="yes"/>
      <point x="1022" y="197"/>
      <point x="971" y="122"/>
      <point x="875" y="122" type="curve" smooth="yes"/>
      <point x="801" y="122"/>
      <point x="746" y="166"/>
      <point x="733" y="231" type="curve"/>
      <point x="805" y="253"/>
      <point x="865" y="304"/>
      <point x="865" y="368" type="curve" smooth="yes"/>
      <point x="865" y="427"/>
      <point x="822" y="483"/>
      <point x="693" y="483" type="curve" smooth="yes"/>
      <point x="646" y="483"/>
      <point x="564" y="470"/>
      <point x="513" y="442" type="curve"/>
    </contour>
    <contour>
      <point x="1204" y="634" type="line"/>
      <point x="570" y="634" type="line"/>
      <point x="570" y="579" type="line"/>
      <point x="1204" y="579" type="line"/>
    </contour>
    <component base="dvCH_RA"/>
  </outline>
</glyph>
<glyph name="dvCH_YA" format="1">
  <advance width="1163"/>
  <outline>
    <contour>
      <point x="493" y="382" type="line"/>
      <point x="544" y="411"/>
      <point x="617" y="430"/>
      <point x="676" y="430" type="curve" smooth="yes"/>
      <point x="734" y="430"/>
      <point x="783" y="414"/>
      <point x="783" y="371" type="curve" smooth="yes"/>
      <point x="783" y="318"/>
      <point x="730" y="288"/>
      <point x="640" y="273" type="curve"/>
      <point x="658" y="131"/>
      <point x="750" y="68"/>
      <point x="852" y="68" type="curve" smooth="yes"/>
      <point x="927" y="68"/>
      <point x="975" y="102"/>
      <point x="1002" y="140" type="curve"/>
      <point x="1002" y="0" type="line"/>
      <point x="1063" y="0" type="line"/>
      <point x="1063" y="609" type="line"/>
      <point x="1002" y="609" type="line"/>
      <point x="1002" y="274" type="line" smooth="yes"/>
      <point x="1002" y="197"/>
      <point x="951" y="122"/>
      <point x="855" y="122" type="curve" smooth="yes"/>
      <point x="781" y="122"/>
      <point x="726" y="166"/>
      <point x="713" y="231" type="curve"/>
      <point x="785" y="253"/>
      <point x="845" y="304"/>
      <point x="845" y="368" type="curve" smooth="yes"/>
      <point x="845" y="427"/>
      <point x="802" y="483"/>
      <point x="673" y="483" type="curve" smooth="yes"/>
      <point x="626" y="483"/>
      <point x="544" y="470"/>
      <point x="493" y="442" type="curve"/>
    </contour>
    <contour>
      <point x="1184" y="634" type="line"/>
      <point x="550" y="634" type="line"/>
      <point x="550" y="579" type="line"/>
      <point x="1184" y="579" type="line"/>
    </contour>
    <contour>
      <point x="339" y="417" type="line"/>
      <point x="348" y="421"/>
      <point x="366" y="424"/>
      <point x="381" y="424" type="curve" smooth="yes"/>
      <point x="466" y="424"/>
      <point x="502" y="374"/>
      <point x="502" y="307" type="curve" smooth="yes"/>
      <point x="502" y="180"/>
      <point x="412" y="111"/>
      <point x="295" y="111" type="curve" smooth="yes"/>
      <point x="204" y="111"/>
      <point x="132" y="153"/>
      <point x="132" y="225" type="curve" smooth="yes"/>
      <point x="132" y="282"/>
      <point x="175" y="321"/>
      <point x="250" y="321" type="curve" smooth="yes"/>
      <point x="288" y="321" type="line"/>
      <point x="288" y="374" type="line"/>
      <point x="260" y="374" type="line" smooth="yes"/>
      <point x="206" y="374"/>
      <point x="152" y="408"/>
      <point x="152" y="472" type="curve" smooth="yes"/>
      <point x="152" y="522"/>
      <point x="181" y="569"/>
      <point x="242" y="587" type="curve"/>
      <point x="149" y="587" type="line"/>
      <point x="108" y="561"/>
      <point x="90" y="516"/>
      <point x="90" y="473" type="curve" smooth="yes"/>
      <point x="90" y="399"/>
      <point x="145" y="362"/>
      <point x="175" y="353" type="curve"/>
      <point x="116" y="345"/>
      <point x="70" y="297"/>
      <point x="70" y="226" type="curve" smooth="yes"/>
      <point x="70" y="123"/>
      <point x="163" y="59"/>
      <point x="295" y="59" type="curve" smooth="yes"/>
      <point x="450" y="59"/>
      <point x="564" y="165"/>
      <point x="564" y="306" type="curve" smooth="yes"/>
      <point x="564" y="402"/>
      <point x="511" y="476"/>
      <point x="390" y="476" type="curve" smooth="yes"/>
      <point x="371" y="476"/>
      <point x="350" y="474"/>
      <point x="339" y="470" type="curve"/>
    </contour>
    <contour>
      <point x="644" y="579" type="line"/>
      <point x="644" y="634" type="line"/>
      <point x="-20" y="634" type="line"/>
      <point x="-20" y="579" type="line"/>
    </contour>
  </outline>
</glyph>
<glyph name="dvC_CA" format="1">
  <advance width="987"/>
  <outline>
    <contour>
      <point x="642" y="101" type="curve"/>
      <point x="748" y="103"/>
      <point x="813" y="158"/>
      <point x="836" y="216" type="curve"/>
      <point x="825" y="328" type="line"/>
      <point x="825" y="241"/>
      <point x="764" y="153"/>
      <point x="643" y="153" type="curve" smooth="yes"/>
      <point x="571" y="153"/>
      <point x="518" y="191"/>
      <point x="518" y="264" type="curve" smooth="yes"/>
      <point x="518" y="320"/>
      <point x="552" y="394"/>
      <point x="727" y="394" type="curve"/>
      <point x="727" y="394"/>
      <point x="590" y="411"/>
      <point x="590" y="411" type="curve"/>
      <point x="501" y="394"/>
      <point x="456" y="337"/>
      <point x="456" y="264" type="curve" smooth="yes"/>
      <point x="456" y="157"/>
      <point x="541" y="101"/>
    </contour>
    <contour>
      <point x="887" y="0" type="line"/>
      <point x="887" y="602" type="line"/>
      <point x="825" y="602" type="line"/>
      <point x="825" y="0" type="line"/>
    </contour>
    <contour>
      <point x="1007" y="579" type="line"/>
      <point x="1007" y="634" type="line"/>
      <point x="340" y="634" type="line"/>
      <point x="340" y="579" type="line"/>
    </contour>
    <contour>
      <point x="727" y="394" type="line"/>
      <point x="727" y="449" type="line"/>
      <point x="420" y="449" type="line"/>
      <point x="420" y="394" type="line"/>
    </contour>
    <component base="dvC"/>
  </outline>
</glyph>
